<ttFont>
<head>
    <!-- Most of this table will be recalculated by the compiler -->
    <tableVersion value="1.0"/>
    <fontRevision value="1.437"/>
    <checkSumAdjustment value="0xa0b37e49"/>
    <magicNumber value="0x5f0f3cf5"/>
    <flags value="00000000 00001101"/>
    <unitsPerEm value="1000"/>
    <created value="Fri Jul 30 13:54:25 2021"/>
    <modified value="Mon Jun 15 12:00:00 2026"/>
    <xMin value="-280"/>
    <yMin value="-400"/>
    <xMax value="922"/>
    <yMax value="1120"/>
    <macStyle value="00000000 00000001"/>
    <lowestRecPPEM value="6"/>
    <fontDirectionHint value="2"/>
    <indexToLocFormat value="0"/>
    <glyphDataFormat value="0"/>
  </head>
    <TTGlyph name=".notdef" xMin="54" yMin="0" xMax="482" yMax="730">
      <contour>
        <pt x="54" y="0" on="1"/>
        <pt x="54" y="730" on="1"/>
        <pt x="482" y="730" on="1"/>
        <pt x="482" y="0" on="1"/>
      </contour>
      <contour>
        <pt x="105" y="109" on="1"/>
        <pt x="411" y="680" on="1"/>
        <pt x="105" y="680" on="1"/>
      </contour>
      <contour>
        <pt x="125" y="50" on="1"/>
        <pt x="431" y="50" on="1"/>
        <pt x="431" y="621" on="1"/>
      </contour>
    </TTGlyph>
    <TTGlyph name="A" xMin="62" yMin="0" xMax="624" yMax="739">
      <contour>
        <pt x="62" y="0" on="1"/>
        <pt x="271" y="739" on="1"/>
        <pt x="415" y="739" on="1"/>
        <pt x="624" y="0" on="1"/>
        <pt x="482" y="0" on="1"/>
        <pt x="449" y="132" on="1"/>
        <pt x="237" y="132" on="1"/>
        <pt x="204" y="0" on="1"/>
      </contour>
      <contour>
        <pt x="273" y="273" on="1"/>
        <pt x="413" y="273" on="1"/>
        <pt x="342" y="555" on="1"/>
      </contour>
    </TTGlyph>
    <TTGlyph name="AE" xMin="62" yMin="0" xMax="624" yMax="738">
      <contour>
        <pt x="62" y="0" on="1"/>
        <pt x="333" y="738" on="1"/>
        <pt x="624" y="738" on="1"/>
        <pt x="624" y="584" on="1"/>
        <pt x="423" y="584" on="1"/>
        <pt x="423" y="456" on="1"/>
        <pt x="547" y="456" on="1"/>
        <pt x="547" y="305" on="1"/>
        <pt x="423" y="305" on="1"/>
        <pt x="423" y="154" on="1"/>
        <pt x="624" y="154" on="1"/>
        <pt x="624" y="0" on="1"/>
        <pt x="333" y="0" on="1"/>
        <pt x="333" y="132" on="1"/>
        <pt x="205" y="132" on="1"/>
        <pt x="159" y="0" on="1"/>
      </contour>
      <contour>
        <pt x="253" y="273" on="1"/>
        <pt x="333" y="273" on="1"/>
        <pt x="333" y="501" on="1"/>
      </contour>
    </TTGlyph>
    <TTGlyph name="AEacute" xMin="62" yMin="0" xMax="624" yMax="950">
      <component glyphName="AE" x="0" y="0" flags="0x204"/>
      <component glyphName="acutecomb.case" x="194" y="0" flags="0x4"/>
    </TTGlyph>
    <TTGlyph name="Aacute" xMin="62" yMin="0" xMax="624" yMax="967">
      <contour>
        <pt x="62" y="0" on="1"/>
        <pt x="271" y="730" on="1"/>
        <pt x="415" y="730" on="1"/>
        <pt x="624" y="0" on="1"/>
        <pt x="482" y="0" on="1"/>
        <pt x="449" y="130" on="1"/>
        <pt x="237" y="130" on="1"/>
        <pt x="204" y="0" on="1"/>
      </contour>
      <contour>
        <pt x="273" y="270" on="1"/>
        <pt x="413" y="270" on="1"/>
        <pt x="342" y="548" on="1"/>
      </contour>
      <contour>
        <pt x="285" y="799" on="1"/>
        <pt x="309" y="836" on="0"/>
        <pt x="359" y="908" on="0"/>
        <pt x="384" y="945" on="1"/>
        <pt x="400" y="967" on="0"/>
        <pt x="420" y="967" on="1"/>
        <pt x="439" y="967" on="0"/>
        <pt x="466" y="931" on="0"/>
        <pt x="466" y="906" on="1"/>
        <pt x="466" y="892" on="0"/>
        <pt x="457" y="869" on="0"/>
        <pt x="450" y="859" on="1"/>
        <pt x="434" y="845" on="0"/>
        <pt x="404" y="814" on="0"/>
        <pt x="388" y="799" on="1"/>
      </contour>
    </TTGlyph>
    <TTGlyph name="Abreve" xMin="62" yMin="0" xMax="624" yMax="930">
      <contour>
        <pt x="62" y="0" on="1"/>
        <pt x="271" y="730" on="1"/>
        <pt x="415" y="730" on="1"/>
        <pt x="624" y="0" on="1"/>
        <pt x="482" y="0" on="1"/>
        <pt x="449" y="130" on="1"/>
        <pt x="237" y="130" on="1"/>
        <pt x="204" y="0" on="1"/>
      </contour>
      <contour>
        <pt x="273" y="270" on="1"/>
        <pt x="413" y="270" on="1"/>
        <pt x="342" y="548" on="1"/>
      </contour>
      <contour>
        <pt x="342" y="799" on="1"/>
        <pt x="298" y="799" on="0"/>
        <pt x="232" y="874" on="0"/>
        <pt x="223" y="930" on="1"/>
        <pt x="294" y="930" on="1"/>
        <pt x="298" y="912" on="0"/>
        <pt x="324" y="883" on="0"/>
        <pt x="342" y="883" on="1"/>
        <pt x="361" y="883" on="0"/>
        <pt x="388" y="912" on="0"/>
        <pt x="391" y="930" on="1"/>
        <pt x="462" y="930" on="1"/>
        <pt x="454" y="874" on="0"/>
        <pt x="387" y="799" on="0"/>
      </contour>
    </TTGlyph>
    <TTGlyph name="Acircumflex" xMin="62" yMin="0" xMax="624" yMax="965">
      <contour>
        <pt x="62" y="0" on="1"/>
        <pt x="271" y="730" on="1"/>
        <pt x="415" y="730" on="1"/>
        <pt x="624" y="0" on="1"/>
        <pt x="482" y="0" on="1"/>
        <pt x="449" y="130" on="1"/>
        <pt x="237" y="130" on="1"/>
        <pt x="204" y="0" on="1"/>
      </contour>
      <contour>
        <pt x="273" y="270" on="1"/>
        <pt x="413" y="270" on="1"/>
        <pt x="342" y="548" on="1"/>
      </contour>
      <contour>
        <pt x="180" y="799" on="1"/>
        <pt x="302" y="944" on="1"/>
        <pt x="309" y="953" on="0"/>
        <pt x="330" y="965" on="0"/>
        <pt x="342" y="965" on="1"/>
        <pt x="365" y="965" on="0"/>
        <pt x="383" y="944" on="1"/>
        <pt x="505" y="799" on="1"/>
        <pt x="399" y="799" on="1"/>
        <pt x="342" y="866" on="1"/>
        <pt x="286" y="799" on="1"/>
      </contour>
    </TTGlyph>
    <TTGlyph name="Adieresis" xMin="62" yMin="0" xMax="624" yMax="947">
      <contour>
        <pt x="62" y="0" on="1"/>
        <pt x="271" y="730" on="1"/>
        <pt x="415" y="730" on="1"/>
        <pt x="624" y="0" on="1"/>
        <pt x="482" y="0" on="1"/>
        <pt x="449" y="130" on="1"/>
        <pt x="237" y="130" on="1"/>
        <pt x="204" y="0" on="1"/>
      </contour>
      <contour>
        <pt x="273" y="270" on="1"/>
        <pt x="413" y="270" on="1"/>
        <pt x="342" y="548" on="1"/>
      </contour>
      <contour>
        <pt x="263" y="793" on="1"/>
        <pt x="239" y="793" on="0"/>
        <pt x="204" y="838" on="0"/>
        <pt x="204" y="870" on="1"/>
        <pt x="204" y="902" on="0"/>
        <pt x="239" y="947" on="0"/>
        <pt x="263" y="947" on="1"/>
        <pt x="287" y="947" on="0"/>
        <pt x="322" y="902" on="0"/>
        <pt x="322" y="870" on="1"/>
        <pt x="322" y="838" on="0"/>
        <pt x="287" y="793" on="0"/>
      </contour>
      <contour>
        <pt x="424" y="793" on="1"/>
        <pt x="400" y="793" on="0"/>
        <pt x="365" y="838" on="0"/>
        <pt x="365" y="870" on="1"/>
        <pt x="365" y="902" on="0"/>
        <pt x="400" y="947" on="0"/>
        <pt x="424" y="947" on="1"/>
        <pt x="448" y="947" on="0"/>
        <pt x="482" y="902" on="0"/>
        <pt x="482" y="870" on="1"/>
        <pt x="482" y="838" on="0"/>
        <pt x="448" y="793" on="0"/>
      </contour>
    </TTGlyph>
    <TTGlyph name="Agrave" xMin="62" yMin="0" xMax="624" yMax="967">
      <contour>
        <pt x="62" y="0" on="1"/>
        <pt x="271" y="730" on="1"/>
        <pt x="415" y="730" on="1"/>
        <pt x="624" y="0" on="1"/>
        <pt x="482" y="0" on="1"/>
        <pt x="449" y="130" on="1"/>
        <pt x="237" y="130" on="1"/>
        <pt x="204" y="0" on="1"/>
      </contour>
      <contour>
        <pt x="273" y="270" on="1"/>
        <pt x="413" y="270" on="1"/>
        <pt x="342" y="548" on="1"/>
      </contour>
      <contour>
        <pt x="299" y="799" on="1"/>
        <pt x="283" y="814" on="0"/>
        <pt x="254" y="845" on="0"/>
        <pt x="238" y="859" on="1"/>
        <pt x="230" y="870" on="0"/>
        <pt x="221" y="891" on="0"/>
        <pt x="221" y="906" on="1"/>
        <pt x="221" y="930" on="0"/>
        <pt x="250" y="967" on="0"/>
        <pt x="267" y="967" on="1"/>
        <pt x="286" y="967" on="0"/>
        <pt x="299" y="951" on="1"/>
        <pt x="403" y="799" on="1"/>
      </contour>
    </TTGlyph>
    <TTGlyph name="Alpha" xMin="85" yMin="0" xMax="647" yMax="739">
      <component glyphName="A" x="23" y="0" flags="0x4"/>
    </TTGlyph>
    <TTGlyph name="Alphatonos" xMin="24" yMin="0" xMax="624" yMax="739">
      <component glyphName="A" x="0" y="0" flags="0x204"/>
      <component glyphName="tonos.case" x="-68" y="0" flags="0x4"/>
    </TTGlyph>
    <TTGlyph name="Amacron" xMin="62" yMin="0" xMax="624" yMax="923">
      <contour>
        <pt x="62" y="0" on="1"/>
        <pt x="271" y="730" on="1"/>
        <pt x="415" y="730" on="1"/>
        <pt x="624" y="0" on="1"/>
        <pt x="482" y="0" on="1"/>
        <pt x="449" y="130" on="1"/>
        <pt x="237" y="130" on="1"/>
        <pt x="204" y="0" on="1"/>
      </contour>
      <contour>
        <pt x="273" y="270" on="1"/>
        <pt x="413" y="270" on="1"/>
        <pt x="342" y="548" on="1"/>
      </contour>
      <contour>
        <pt x="219" y="816" on="1"/>
        <pt x="219" y="923" on="1"/>
        <pt x="466" y="923" on="1"/>
        <pt x="466" y="816" on="1"/>
      </contour>
    </TTGlyph>
    <TTGlyph name="Aogonek" xMin="62" yMin="-192" xMax="624" yMax="739">
      <contour>
        <pt x="62" y="0" on="1"/>
        <pt x="271" y="739" on="1"/>
        <pt x="415" y="739" on="1"/>
        <pt x="624" y="0" on="1"/>
        <pt x="482" y="0" on="1"/>
        <pt x="449" y="132" on="1"/>
        <pt x="237" y="132" on="1"/>
        <pt x="204" y="0" on="1"/>
      </contour>
      <contour>
        <pt x="273" y="273" on="1"/>
        <pt x="413" y="273" on="1"/>
        <pt x="342" y="555" on="1"/>
      </contour>
      <contour>
        <pt x="533" y="-192" on="1"/>
        <pt x="489" y="-192" on="0"/>
        <pt x="438" y="-160" on="0"/>
        <pt x="415" y="-115" on="0"/>
        <pt x="415" y="-94" on="1"/>
        <pt x="415" y="-56" on="0"/>
        <pt x="459" y="-10" on="0"/>
        <pt x="482" y="0" on="1"/>
        <pt x="599" y="0" on="1"/>
        <pt x="583" y="-2" on="0"/>
        <pt x="546" y="-24" on="0"/>
        <pt x="520" y="-57" on="0"/>
        <pt x="520" y="-75" on="1"/>
        <pt x="520" y="-95" on="0"/>
        <pt x="545" y="-108" on="0"/>
        <pt x="558" y="-108" on="1"/>
        <pt x="571" y="-108" on="0"/>
        <pt x="594" y="-99" on="0"/>
        <pt x="599" y="-98" on="1"/>
        <pt x="599" y="-181" on="1"/>
        <pt x="590" y="-186" on="0"/>
        <pt x="549" y="-192" on="0"/>
      </contour>
    </TTGlyph>
    <TTGlyph name="Aring" xMin="62" yMin="0" xMax="624" yMax="941">
      <contour>
        <pt x="62" y="0" on="1"/>
        <pt x="271" y="730" on="1"/>
        <pt x="415" y="730" on="1"/>
        <pt x="624" y="0" on="1"/>
        <pt x="482" y="0" on="1"/>
        <pt x="449" y="130" on="1"/>
        <pt x="237" y="130" on="1"/>
        <pt x="204" y="0" on="1"/>
      </contour>
      <contour>
        <pt x="273" y="270" on="1"/>
        <pt x="413" y="270" on="1"/>
        <pt x="342" y="548" on="1"/>
      </contour>
      <contour>
        <pt x="342" y="651" on="1"/>
        <pt x="313" y="651" on="0"/>
        <pt x="263" y="691" on="0"/>
        <pt x="233" y="757" on="0"/>
        <pt x="233" y="797" on="1"/>
        <pt x="233" y="837" on="0"/>
        <pt x="263" y="902" on="0"/>
        <pt x="313" y="941" on="0"/>
        <pt x="342" y="941" on="1"/>
        <pt x="372" y="941" on="0"/>
        <pt x="423" y="902" on="0"/>
        <pt x="452" y="837" on="0"/>
        <pt x="452" y="797" on="1"/>
        <pt x="452" y="757" on="0"/>
        <pt x="423" y="691" on="0"/>
        <pt x="372" y="651" on="0"/>
      </contour>
      <contour>
        <pt x="342" y="745" on="1"/>
        <pt x="359" y="745" on="0"/>
        <pt x="381" y="776" on="0"/>
        <pt x="381" y="797" on="1"/>
        <pt x="381" y="819" on="0"/>
        <pt x="359" y="848" on="0"/>
        <pt x="342" y="848" on="1"/>
        <pt x="326" y="848" on="0"/>
        <pt x="303" y="819" on="0"/>
        <pt x="303" y="797" on="1"/>
        <pt x="303" y="776" on="0"/>
        <pt x="326" y="745" on="0"/>
      </contour>
    </TTGlyph>
    <TTGlyph name="Atilde" xMin="62" yMin="0" xMax="624" yMax="928">
      <contour>
        <pt x="62" y="0" on="1"/>
        <pt x="271" y="730" on="1"/>
        <pt x="415" y="730" on="1"/>
        <pt x="624" y="0" on="1"/>
        <pt x="482" y="0" on="1"/>
        <pt x="449" y="130" on="1"/>
        <pt x="237" y="130" on="1"/>
        <pt x="204" y="0" on="1"/>
      </contour>
      <contour>
        <pt x="273" y="270" on="1"/>
        <pt x="413" y="270" on="1"/>
        <pt x="342" y="548" on="1"/>
      </contour>
      <contour>
        <pt x="404" y="797" on="1"/>
        <pt x="371" y="797" on="0"/>
        <pt x="345" y="814" on="1"/>
        <pt x="329" y="825" on="0"/>
        <pt x="310" y="838" on="0"/>
        <pt x="299" y="838" on="1"/>
        <pt x="286" y="838" on="0"/>
        <pt x="266" y="820" on="0"/>
        <pt x="263" y="802" on="1"/>
        <pt x="190" y="802" on="1"/>
        <pt x="197" y="862" on="0"/>
        <pt x="250" y="928" on="0"/>
        <pt x="294" y="928" on="1"/>
        <pt x="320" y="928" on="0"/>
        <pt x="352" y="906" on="0"/>
        <pt x="380" y="883" on="0"/>
        <pt x="396" y="883" on="1"/>
        <pt x="407" y="883" on="0"/>
        <pt x="423" y="895" on="0"/>
        <pt x="431" y="906" on="1"/>
        <pt x="447" y="928" on="0"/>
        <pt x="462" y="928" on="1"/>
        <pt x="477" y="928" on="0"/>
        <pt x="496" y="903" on="0"/>
        <pt x="496" y="884" on="1"/>
        <pt x="496" y="863" on="0"/>
        <pt x="469" y="823" on="0"/>
        <pt x="427" y="797" on="0"/>
      </contour>
    </TTGlyph>
    <TTGlyph name="B" xMin="62" yMin="0" xMax="624" yMax="739">
      <contour>
        <pt x="62" y="0" on="1"/>
        <pt x="62" y="739" on="1"/>
        <pt x="348" y="739" on="1"/>
        <pt x="420" y="739" on="0"/>
        <pt x="532" y="706" on="0"/>
        <pt x="598" y="623" on="0"/>
        <pt x="598" y="546" on="1"/>
        <pt x="598" y="496" on="0"/>
        <pt x="557" y="418" on="0"/>
        <pt x="520" y="393" on="1"/>
        <pt x="567" y="374" on="0"/>
        <pt x="624" y="296" on="0"/>
        <pt x="624" y="228" on="1"/>
        <pt x="624" y="145" on="0"/>
        <pt x="558" y="46" on="0"/>
        <pt x="439" y="0" on="0"/>
        <pt x="359" y="0" on="1"/>
      </contour>
      <contour>
        <pt x="217" y="446" on="1"/>
        <pt x="354" y="446" on="1"/>
        <pt x="392" y="446" on="0"/>
        <pt x="436" y="488" on="0"/>
        <pt x="436" y="522" on="1"/>
        <pt x="436" y="558" on="0"/>
        <pt x="392" y="596" on="0"/>
        <pt x="354" y="596" on="1"/>
        <pt x="217" y="596" on="1"/>
      </contour>
      <contour>
        <pt x="217" y="145" on="1"/>
        <pt x="360" y="145" on="1"/>
        <pt x="410" y="145" on="0"/>
        <pt x="461" y="190" on="0"/>
        <pt x="461" y="229" on="1"/>
        <pt x="461" y="267" on="0"/>
        <pt x="410" y="312" on="0"/>
        <pt x="360" y="312" on="1"/>
        <pt x="217" y="312" on="1"/>
      </contour>
    </TTGlyph>
    <TTGlyph name="Beta" xMin="85" yMin="0" xMax="647" yMax="739">
      <component glyphName="B" x="23" y="0" flags="0x4"/>
    </TTGlyph>
    <TTGlyph name="C" xMin="62" yMin="-13" xMax="624" yMax="752">
      <contour>
        <pt x="367" y="-13" on="1"/>
        <pt x="272" y="-13" on="0"/>
        <pt x="135" y="80" on="0"/>
        <pt x="62" y="252" on="0"/>
        <pt x="62" y="369" on="1"/>
        <pt x="62" y="487" on="0"/>
        <pt x="137" y="658" on="0"/>
        <pt x="276" y="752" on="0"/>
        <pt x="370" y="752" on="1"/>
        <pt x="457" y="752" on="0"/>
        <pt x="586" y="659" on="0"/>
        <pt x="621" y="581" on="1"/>
        <pt x="493" y="524" on="1"/>
        <pt x="473" y="570" on="0"/>
        <pt x="403" y="608" on="0"/>
        <pt x="366" y="608" on="1"/>
        <pt x="324" y="608" on="0"/>
        <pt x="255" y="552" on="0"/>
        <pt x="214" y="444" on="0"/>
        <pt x="214" y="369" on="1"/>
        <pt x="214" y="253" on="0"/>
        <pt x="303" y="131" on="0"/>
        <pt x="367" y="131" on="1"/>
        <pt x="403" y="131" on="0"/>
        <pt x="476" y="166" on="0"/>
        <pt x="497" y="214" on="1"/>
        <pt x="624" y="157" on="1"/>
        <pt x="588" y="79" on="0"/>
        <pt x="453" y="-13" on="0"/>
      </contour>
    </TTGlyph>
    <TTGlyph name="Cacute" xMin="62" yMin="-13" xMax="624" yMax="967">
      <contour>
        <pt x="367" y="-13" on="1"/>
        <pt x="272" y="-13" on="0"/>
        <pt x="135" y="79" on="0"/>
        <pt x="62" y="249" on="0"/>
        <pt x="62" y="365" on="1"/>
        <pt x="62" y="481" on="0"/>
        <pt x="137" y="650" on="0"/>
        <pt x="276" y="743" on="0"/>
        <pt x="370" y="743" on="1"/>
        <pt x="457" y="743" on="0"/>
        <pt x="586" y="651" on="0"/>
        <pt x="621" y="574" on="1"/>
        <pt x="493" y="518" on="1"/>
        <pt x="473" y="563" on="0"/>
        <pt x="403" y="601" on="0"/>
        <pt x="366" y="601" on="1"/>
        <pt x="324" y="601" on="0"/>
        <pt x="255" y="545" on="0"/>
        <pt x="214" y="439" on="0"/>
        <pt x="214" y="365" on="1"/>
        <pt x="214" y="250" on="0"/>
        <pt x="303" y="129" on="0"/>
        <pt x="367" y="129" on="1"/>
        <pt x="403" y="129" on="0"/>
        <pt x="476" y="164" on="0"/>
        <pt x="497" y="211" on="1"/>
        <pt x="624" y="155" on="1"/>
        <pt x="588" y="78" on="0"/>
        <pt x="453" y="-13" on="0"/>
      </contour>
      <contour>
        <pt x="292" y="799" on="1"/>
        <pt x="319" y="836" on="0"/>
        <pt x="373" y="908" on="0"/>
        <pt x="401" y="945" on="1"/>
        <pt x="419" y="967" on="0"/>
        <pt x="440" y="967" on="1"/>
        <pt x="461" y="967" on="0"/>
        <pt x="491" y="931" on="0"/>
        <pt x="491" y="906" on="1"/>
        <pt x="491" y="892" on="0"/>
        <pt x="482" y="869" on="0"/>
        <pt x="473" y="859" on="1"/>
        <pt x="456" y="845" on="0"/>
        <pt x="424" y="814" on="0"/>
        <pt x="406" y="799" on="1"/>
      </contour>
    </TTGlyph>
    <TTGlyph name="Ccaron" xMin="62" yMin="-13" xMax="624" yMax="958">
      <contour>
        <pt x="367" y="-13" on="1"/>
        <pt x="272" y="-13" on="0"/>
        <pt x="135" y="79" on="0"/>
        <pt x="62" y="249" on="0"/>
        <pt x="62" y="365" on="1"/>
        <pt x="62" y="481" on="0"/>
        <pt x="137" y="650" on="0"/>
        <pt x="276" y="743" on="0"/>
        <pt x="370" y="743" on="1"/>
        <pt x="457" y="743" on="0"/>
        <pt x="586" y="651" on="0"/>
        <pt x="621" y="574" on="1"/>
        <pt x="493" y="518" on="1"/>
        <pt x="473" y="563" on="0"/>
        <pt x="403" y="601" on="0"/>
        <pt x="366" y="601" on="1"/>
        <pt x="324" y="601" on="0"/>
        <pt x="255" y="545" on="0"/>
        <pt x="214" y="439" on="0"/>
        <pt x="214" y="365" on="1"/>
        <pt x="214" y="250" on="0"/>
        <pt x="303" y="129" on="0"/>
        <pt x="367" y="129" on="1"/>
        <pt x="403" y="129" on="0"/>
        <pt x="476" y="164" on="0"/>
        <pt x="497" y="211" on="1"/>
        <pt x="624" y="155" on="1"/>
        <pt x="588" y="78" on="0"/>
        <pt x="453" y="-13" on="0"/>
      </contour>
      <contour>
        <pt x="356" y="792" on="1"/>
        <pt x="329" y="792" on="0"/>
        <pt x="310" y="813" on="1"/>
        <pt x="176" y="958" on="1"/>
        <pt x="294" y="958" on="1"/>
        <pt x="356" y="892" on="1"/>
        <pt x="418" y="958" on="1"/>
        <pt x="535" y="958" on="1"/>
        <pt x="402" y="813" on="1"/>
        <pt x="382" y="792" on="0"/>
      </contour>
    </TTGlyph>
    <TTGlyph name="Ccedilla" xMin="62" yMin="-206" xMax="624" yMax="752">
      <contour>
        <pt x="367" y="-13" on="1"/>
        <pt x="272" y="-13" on="0"/>
        <pt x="135" y="80" on="0"/>
        <pt x="62" y="252" on="0"/>
        <pt x="62" y="369" on="1"/>
        <pt x="62" y="487" on="0"/>
        <pt x="137" y="658" on="0"/>
        <pt x="276" y="752" on="0"/>
        <pt x="370" y="752" on="1"/>
        <pt x="457" y="752" on="0"/>
        <pt x="586" y="659" on="0"/>
        <pt x="621" y="581" on="1"/>
        <pt x="493" y="524" on="1"/>
        <pt x="473" y="570" on="0"/>
        <pt x="403" y="608" on="0"/>
        <pt x="366" y="608" on="1"/>
        <pt x="324" y="608" on="0"/>
        <pt x="255" y="552" on="0"/>
        <pt x="214" y="444" on="0"/>
        <pt x="214" y="369" on="1"/>
        <pt x="214" y="253" on="0"/>
        <pt x="303" y="131" on="0"/>
        <pt x="367" y="131" on="1"/>
        <pt x="403" y="131" on="0"/>
        <pt x="476" y="166" on="0"/>
        <pt x="497" y="214" on="1"/>
        <pt x="624" y="157" on="1"/>
        <pt x="588" y="79" on="0"/>
        <pt x="453" y="-13" on="0"/>
      </contour>
      <contour>
        <pt x="338" y="-206" on="1"/>
        <pt x="316" y="-206" on="0"/>
        <pt x="275" y="-199" on="0"/>
        <pt x="257" y="-192" on="1"/>
        <pt x="272" y="-138" on="1"/>
        <pt x="279" y="-142" on="0"/>
        <pt x="312" y="-152" on="0"/>
        <pt x="327" y="-152" on="1"/>
        <pt x="344" y="-152" on="0"/>
        <pt x="367" y="-139" on="0"/>
        <pt x="367" y="-121" on="1"/>
        <pt x="367" y="-108" on="0"/>
        <pt x="349" y="-93" on="0"/>
        <pt x="334" y="-93" on="1"/>
        <pt x="323" y="-93" on="0"/>
        <pt x="309" y="-98" on="1"/>
        <pt x="301" y="-102" on="0"/>
        <pt x="294" y="-96" on="1"/>
        <pt x="287" y="-92" on="0"/>
        <pt x="283" y="-73" on="0"/>
        <pt x="286" y="-65" on="1"/>
        <pt x="334" y="27" on="1"/>
        <pt x="371" y="0" on="1"/>
        <pt x="344" y="-53" on="1"/>
        <pt x="357" y="-50" on="0"/>
        <pt x="375" y="-50" on="1"/>
        <pt x="392" y="-50" on="0"/>
        <pt x="429" y="-63" on="0"/>
        <pt x="453" y="-93" on="0"/>
        <pt x="453" y="-118" on="1"/>
        <pt x="453" y="-151" on="0"/>
        <pt x="420" y="-189" on="0"/>
        <pt x="367" y="-206" on="0"/>
      </contour>
    </TTGlyph>
    <TTGlyph name="Ccircumflex" xMin="62" yMin="-13" xMax="624" yMax="950">
      <component glyphName="C" x="0" y="0" flags="0x204"/>
      <component glyphName="uni0302.case" x="92" y="0" flags="0x4"/>
    </TTGlyph>
    <TTGlyph name="Cdotaccent" xMin="62" yMin="-13" xMax="624" yMax="947">
      <contour>
        <pt x="367" y="-13" on="1"/>
        <pt x="272" y="-13" on="0"/>
        <pt x="135" y="79" on="0"/>
        <pt x="62" y="249" on="0"/>
        <pt x="62" y="365" on="1"/>
        <pt x="62" y="481" on="0"/>
        <pt x="137" y="650" on="0"/>
        <pt x="276" y="743" on="0"/>
        <pt x="370" y="743" on="1"/>
        <pt x="457" y="743" on="0"/>
        <pt x="586" y="651" on="0"/>
        <pt x="621" y="574" on="1"/>
        <pt x="493" y="518" on="1"/>
        <pt x="473" y="563" on="0"/>
        <pt x="403" y="601" on="0"/>
        <pt x="366" y="601" on="1"/>
        <pt x="324" y="601" on="0"/>
        <pt x="255" y="545" on="0"/>
        <pt x="214" y="439" on="0"/>
        <pt x="214" y="365" on="1"/>
        <pt x="214" y="250" on="0"/>
        <pt x="303" y="129" on="0"/>
        <pt x="367" y="129" on="1"/>
        <pt x="403" y="129" on="0"/>
        <pt x="476" y="164" on="0"/>
        <pt x="497" y="211" on="1"/>
        <pt x="624" y="155" on="1"/>
        <pt x="588" y="78" on="0"/>
        <pt x="453" y="-13" on="0"/>
      </contour>
      <contour>
        <pt x="356" y="793" on="1"/>
        <pt x="329" y="793" on="0"/>
        <pt x="291" y="838" on="0"/>
        <pt x="291" y="870" on="1"/>
        <pt x="291" y="902" on="0"/>
        <pt x="329" y="947" on="0"/>
        <pt x="356" y="947" on="1"/>
        <pt x="382" y="947" on="0"/>
        <pt x="420" y="902" on="0"/>
        <pt x="420" y="870" on="1"/>
        <pt x="420" y="838" on="0"/>
        <pt x="382" y="793" on="0"/>
      </contour>
    </TTGlyph>
    <TTGlyph name="Chi" xMin="85" yMin="0" xMax="647" yMax="739">
      <component glyphName="X" x="23" y="0" flags="0x4"/>
    </TTGlyph>
    <TTGlyph name="D" xMin="62" yMin="0" xMax="624" yMax="739">
      <contour>
        <pt x="62" y="0" on="1"/>
        <pt x="62" y="739" on="1"/>
        <pt x="265" y="739" on="1"/>
        <pt x="342" y="739" on="0"/>
        <pt x="472" y="702" on="0"/>
        <pt x="570" y="617" on="0"/>
        <pt x="624" y="475" on="0"/>
        <pt x="624" y="369" on="1"/>
        <pt x="624" y="263" on="0"/>
        <pt x="570" y="121" on="0"/>
        <pt x="472" y="36" on="0"/>
        <pt x="342" y="0" on="0"/>
        <pt x="265" y="0" on="1"/>
      </contour>
      <contour>
        <pt x="209" y="147" on="1"/>
        <pt x="268" y="147" on="1"/>
        <pt x="308" y="147" on="0"/>
        <pt x="382" y="163" on="0"/>
        <pt x="440" y="207" on="0"/>
        <pt x="473" y="297" on="0"/>
        <pt x="473" y="369" on="1"/>
        <pt x="473" y="442" on="0"/>
        <pt x="440" y="532" on="0"/>
        <pt x="382" y="577" on="0"/>
        <pt x="308" y="594" on="0"/>
        <pt x="268" y="594" on="1"/>
        <pt x="209" y="594" on="1"/>
      </contour>
    </TTGlyph>
    <TTGlyph name="Dcaron" xMin="62" yMin="0" xMax="624" yMax="958">
      <contour>
        <pt x="62" y="0" on="1"/>
        <pt x="62" y="730" on="1"/>
        <pt x="265" y="730" on="1"/>
        <pt x="342" y="730" on="0"/>
        <pt x="472" y="694" on="0"/>
        <pt x="570" y="610" on="0"/>
        <pt x="624" y="469" on="0"/>
        <pt x="624" y="365" on="1"/>
        <pt x="624" y="260" on="0"/>
        <pt x="570" y="120" on="0"/>
        <pt x="472" y="36" on="0"/>
        <pt x="342" y="0" on="0"/>
        <pt x="265" y="0" on="1"/>
      </contour>
      <contour>
        <pt x="209" y="145" on="1"/>
        <pt x="268" y="145" on="1"/>
        <pt x="308" y="145" on="0"/>
        <pt x="382" y="161" on="0"/>
        <pt x="440" y="205" on="0"/>
        <pt x="473" y="293" on="0"/>
        <pt x="473" y="365" on="1"/>
        <pt x="473" y="437" on="0"/>
        <pt x="440" y="526" on="0"/>
        <pt x="382" y="570" on="0"/>
        <pt x="308" y="587" on="0"/>
        <pt x="268" y="587" on="1"/>
        <pt x="209" y="587" on="1"/>
      </contour>
      <contour>
        <pt x="329" y="792" on="1"/>
        <pt x="303" y="792" on="0"/>
        <pt x="283" y="813" on="1"/>
        <pt x="147" y="958" on="1"/>
        <pt x="266" y="958" on="1"/>
        <pt x="329" y="892" on="1"/>
        <pt x="392" y="958" on="1"/>
        <pt x="511" y="958" on="1"/>
        <pt x="376" y="813" on="1"/>
        <pt x="356" y="792" on="0"/>
      </contour>
    </TTGlyph>
    <TTGlyph name="Dcroat" xMin="62" yMin="0" xMax="624" yMax="739">
      <contour>
        <pt x="153" y="0" on="1"/>
        <pt x="153" y="305" on="1"/>
        <pt x="62" y="305" on="1"/>
        <pt x="62" y="455" on="1"/>
        <pt x="153" y="455" on="1"/>
        <pt x="153" y="739" on="1"/>
        <pt x="324" y="739" on="1"/>
        <pt x="388" y="739" on="0"/>
        <pt x="497" y="702" on="0"/>
        <pt x="578" y="617" on="0"/>
        <pt x="624" y="475" on="0"/>
        <pt x="624" y="369" on="1"/>
        <pt x="624" y="263" on="0"/>
        <pt x="578" y="121" on="0"/>
        <pt x="497" y="36" on="0"/>
        <pt x="388" y="0" on="0"/>
        <pt x="324" y="0" on="1"/>
      </contour>
      <contour>
        <pt x="276" y="147" on="1"/>
        <pt x="326" y="147" on="1"/>
        <pt x="360" y="147" on="0"/>
        <pt x="421" y="163" on="0"/>
        <pt x="470" y="207" on="0"/>
        <pt x="497" y="297" on="0"/>
        <pt x="497" y="369" on="1"/>
        <pt x="497" y="442" on="0"/>
        <pt x="470" y="532" on="0"/>
        <pt x="421" y="577" on="0"/>
        <pt x="360" y="594" on="0"/>
        <pt x="326" y="594" on="1"/>
        <pt x="276" y="594" on="1"/>
        <pt x="276" y="455" on="1"/>
        <pt x="336" y="455" on="1"/>
        <pt x="336" y="305" on="1"/>
        <pt x="276" y="305" on="1"/>
      </contour>
    </TTGlyph>
    <TTGlyph name="E" xMin="62" yMin="0" xMax="602" yMax="739">
      <contour>
        <pt x="62" y="0" on="1"/>
        <pt x="62" y="739" on="1"/>
        <pt x="602" y="739" on="1"/>
        <pt x="602" y="585" on="1"/>
        <pt x="228" y="585" on="1"/>
        <pt x="228" y="456" on="1"/>
        <pt x="456" y="456" on="1"/>
        <pt x="456" y="303" on="1"/>
        <pt x="228" y="303" on="1"/>
        <pt x="228" y="154" on="1"/>
        <pt x="602" y="154" on="1"/>
        <pt x="602" y="0" on="1"/>
      </contour>
    </TTGlyph>
    <TTGlyph name="Eacute" xMin="62" yMin="0" xMax="602" yMax="967">
      <contour>
        <pt x="62" y="0" on="1"/>
        <pt x="62" y="730" on="1"/>
        <pt x="602" y="730" on="1"/>
        <pt x="602" y="578" on="1"/>
        <pt x="228" y="578" on="1"/>
        <pt x="228" y="451" on="1"/>
        <pt x="456" y="451" on="1"/>
        <pt x="456" y="299" on="1"/>
        <pt x="228" y="299" on="1"/>
        <pt x="228" y="152" on="1"/>
        <pt x="602" y="152" on="1"/>
        <pt x="602" y="0" on="1"/>
      </contour>
      <contour>
        <pt x="261" y="799" on="1"/>
        <pt x="292" y="836" on="0"/>
        <pt x="354" y="908" on="0"/>
        <pt x="386" y="945" on="1"/>
        <pt x="407" y="967" on="0"/>
        <pt x="431" y="967" on="1"/>
        <pt x="455" y="967" on="0"/>
        <pt x="490" y="931" on="0"/>
        <pt x="490" y="906" on="1"/>
        <pt x="490" y="892" on="0"/>
        <pt x="479" y="869" on="0"/>
        <pt x="470" y="859" on="1"/>
        <pt x="450" y="845" on="0"/>
        <pt x="412" y="814" on="0"/>
        <pt x="392" y="799" on="1"/>
      </contour>
    </TTGlyph>
    <TTGlyph name="Ebreve" xMin="62" yMin="0" xMax="602" yMax="950">
      <component glyphName="E" x="0" y="0" flags="0x204"/>
      <component glyphName="uni0306.case" x="120" y="0" flags="0x4"/>
    </TTGlyph>
    <TTGlyph name="Ecaron" xMin="62" yMin="0" xMax="602" yMax="958">
      <contour>
        <pt x="62" y="0" on="1"/>
        <pt x="62" y="730" on="1"/>
        <pt x="602" y="730" on="1"/>
        <pt x="602" y="578" on="1"/>
        <pt x="228" y="578" on="1"/>
        <pt x="228" y="451" on="1"/>
        <pt x="456" y="451" on="1"/>
        <pt x="456" y="299" on="1"/>
        <pt x="228" y="299" on="1"/>
        <pt x="228" y="152" on="1"/>
        <pt x="602" y="152" on="1"/>
        <pt x="602" y="0" on="1"/>
      </contour>
      <contour>
        <pt x="334" y="792" on="1"/>
        <pt x="304" y="792" on="0"/>
        <pt x="282" y="813" on="1"/>
        <pt x="127" y="958" on="1"/>
        <pt x="263" y="958" on="1"/>
        <pt x="334" y="892" on="1"/>
        <pt x="406" y="958" on="1"/>
        <pt x="540" y="958" on="1"/>
        <pt x="387" y="813" on="1"/>
        <pt x="364" y="792" on="0"/>
      </contour>
    </TTGlyph>
    <TTGlyph name="Ecircumflex" xMin="62" yMin="0" xMax="602" yMax="965">
      <contour>
        <pt x="62" y="0" on="1"/>
        <pt x="62" y="730" on="1"/>
        <pt x="602" y="730" on="1"/>
        <pt x="602" y="578" on="1"/>
        <pt x="228" y="578" on="1"/>
        <pt x="228" y="451" on="1"/>
        <pt x="456" y="451" on="1"/>
        <pt x="456" y="299" on="1"/>
        <pt x="228" y="299" on="1"/>
        <pt x="228" y="152" on="1"/>
        <pt x="602" y="152" on="1"/>
        <pt x="602" y="0" on="1"/>
      </contour>
      <contour>
        <pt x="127" y="799" on="1"/>
        <pt x="282" y="944" on="1"/>
        <pt x="292" y="953" on="0"/>
        <pt x="318" y="965" on="0"/>
        <pt x="333" y="965" on="1"/>
        <pt x="362" y="965" on="0"/>
        <pt x="385" y="944" on="1"/>
        <pt x="540" y="799" on="1"/>
        <pt x="404" y="799" on="1"/>
        <pt x="333" y="866" on="1"/>
        <pt x="263" y="799" on="1"/>
      </contour>
    </TTGlyph>
    <TTGlyph name="Edieresis" xMin="62" yMin="0" xMax="602" yMax="947">
      <contour>
        <pt x="62" y="0" on="1"/>
        <pt x="62" y="730" on="1"/>
        <pt x="602" y="730" on="1"/>
        <pt x="602" y="578" on="1"/>
        <pt x="228" y="578" on="1"/>
        <pt x="228" y="451" on="1"/>
        <pt x="456" y="451" on="1"/>
        <pt x="456" y="299" on="1"/>
        <pt x="228" y="299" on="1"/>
        <pt x="228" y="152" on="1"/>
        <pt x="602" y="152" on="1"/>
        <pt x="602" y="0" on="1"/>
      </contour>
      <contour>
        <pt x="233" y="793" on="1"/>
        <pt x="203" y="793" on="0"/>
        <pt x="159" y="838" on="0"/>
        <pt x="159" y="870" on="1"/>
        <pt x="159" y="902" on="0"/>
        <pt x="203" y="947" on="0"/>
        <pt x="233" y="947" on="1"/>
        <pt x="264" y="947" on="0"/>
        <pt x="307" y="902" on="0"/>
        <pt x="307" y="870" on="1"/>
        <pt x="307" y="838" on="0"/>
        <pt x="264" y="793" on="0"/>
      </contour>
      <contour>
        <pt x="437" y="793" on="1"/>
        <pt x="407" y="793" on="0"/>
        <pt x="362" y="838" on="0"/>
        <pt x="362" y="870" on="1"/>
        <pt x="362" y="902" on="0"/>
        <pt x="407" y="947" on="0"/>
        <pt x="437" y="947" on="1"/>
        <pt x="467" y="947" on="0"/>
        <pt x="509" y="902" on="0"/>
        <pt x="509" y="870" on="1"/>
        <pt x="509" y="838" on="0"/>
        <pt x="467" y="793" on="0"/>
      </contour>
    </TTGlyph>
    <TTGlyph name="Edotaccent" xMin="62" yMin="0" xMax="602" yMax="947">
      <contour>
        <pt x="62" y="0" on="1"/>
        <pt x="62" y="730" on="1"/>
        <pt x="602" y="730" on="1"/>
        <pt x="602" y="578" on="1"/>
        <pt x="228" y="578" on="1"/>
        <pt x="228" y="451" on="1"/>
        <pt x="456" y="451" on="1"/>
        <pt x="456" y="299" on="1"/>
        <pt x="228" y="299" on="1"/>
        <pt x="228" y="152" on="1"/>
        <pt x="602" y="152" on="1"/>
        <pt x="602" y="0" on="1"/>
      </contour>
      <contour>
        <pt x="334" y="793" on="1"/>
        <pt x="304" y="793" on="0"/>
        <pt x="260" y="838" on="0"/>
        <pt x="260" y="870" on="1"/>
        <pt x="260" y="902" on="0"/>
        <pt x="304" y="947" on="0"/>
        <pt x="334" y="947" on="1"/>
        <pt x="365" y="947" on="0"/>
        <pt x="408" y="902" on="0"/>
        <pt x="408" y="870" on="1"/>
        <pt x="408" y="838" on="0"/>
        <pt x="365" y="793" on="0"/>
      </contour>
    </TTGlyph>
    <TTGlyph name="Egrave" xMin="62" yMin="0" xMax="602" yMax="967">
      <contour>
        <pt x="62" y="0" on="1"/>
        <pt x="62" y="730" on="1"/>
        <pt x="602" y="730" on="1"/>
        <pt x="602" y="578" on="1"/>
        <pt x="228" y="578" on="1"/>
        <pt x="228" y="451" on="1"/>
        <pt x="456" y="451" on="1"/>
        <pt x="456" y="299" on="1"/>
        <pt x="228" y="299" on="1"/>
        <pt x="228" y="152" on="1"/>
        <pt x="602" y="152" on="1"/>
        <pt x="602" y="0" on="1"/>
      </contour>
      <contour>
        <pt x="278" y="799" on="1"/>
        <pt x="259" y="814" on="0"/>
        <pt x="221" y="845" on="0"/>
        <pt x="201" y="859" on="1"/>
        <pt x="190" y="870" on="0"/>
        <pt x="180" y="891" on="0"/>
        <pt x="180" y="906" on="1"/>
        <pt x="180" y="930" on="0"/>
        <pt x="215" y="967" on="0"/>
        <pt x="239" y="967" on="1"/>
        <pt x="263" y="967" on="0"/>
        <pt x="278" y="951" on="1"/>
        <pt x="410" y="799" on="1"/>
      </contour>
    </TTGlyph>
    <TTGlyph name="Emacron" xMin="62" yMin="0" xMax="602" yMax="923">
      <contour>
        <pt x="62" y="0" on="1"/>
        <pt x="62" y="730" on="1"/>
        <pt x="602" y="730" on="1"/>
        <pt x="602" y="578" on="1"/>
        <pt x="228" y="578" on="1"/>
        <pt x="228" y="451" on="1"/>
        <pt x="456" y="451" on="1"/>
        <pt x="456" y="299" on="1"/>
        <pt x="228" y="299" on="1"/>
        <pt x="228" y="152" on="1"/>
        <pt x="602" y="152" on="1"/>
        <pt x="602" y="0" on="1"/>
      </contour>
      <contour>
        <pt x="177" y="816" on="1"/>
        <pt x="177" y="923" on="1"/>
        <pt x="491" y="923" on="1"/>
        <pt x="491" y="816" on="1"/>
      </contour>
    </TTGlyph>
    <TTGlyph name="Eng" xMin="58" yMin="-182" xMax="536" yMax="739">
      <contour>
        <pt x="240" y="-182" on="1"/>
        <pt x="240" y="-62" on="1"/>
        <pt x="305" y="-62" on="1"/>
        <pt x="352" y="-62" on="0"/>
        <pt x="404" y="-13" on="0"/>
        <pt x="404" y="30" on="1"/>
        <pt x="165" y="597" on="1"/>
        <pt x="167" y="568" on="0"/>
        <pt x="173" y="485" on="0"/>
        <pt x="177" y="398" on="0"/>
        <pt x="177" y="361" on="1"/>
        <pt x="177" y="0" on="1"/>
        <pt x="58" y="0" on="1"/>
        <pt x="58" y="739" on="1"/>
        <pt x="218" y="739" on="1"/>
        <pt x="431" y="231" on="1"/>
        <pt x="428" y="263" on="0"/>
        <pt x="422" y="351" on="0"/>
        <pt x="417" y="442" on="0"/>
        <pt x="417" y="478" on="1"/>
        <pt x="417" y="739" on="1"/>
        <pt x="536" y="739" on="1"/>
        <pt x="536" y="21" on="1"/>
        <pt x="536" y="-39" on="0"/>
        <pt x="477" y="-131" on="0"/>
        <pt x="369" y="-182" on="0"/>
        <pt x="299" y="-182" on="1"/>
      </contour>
    </TTGlyph>
    <TTGlyph name="Eogonek" xMin="62" yMin="-192" xMax="602" yMax="739">
      <contour>
        <pt x="62" y="0" on="1"/>
        <pt x="62" y="739" on="1"/>
        <pt x="602" y="739" on="1"/>
        <pt x="602" y="585" on="1"/>
        <pt x="228" y="585" on="1"/>
        <pt x="228" y="456" on="1"/>
        <pt x="456" y="456" on="1"/>
        <pt x="456" y="303" on="1"/>
        <pt x="228" y="303" on="1"/>
        <pt x="228" y="154" on="1"/>
        <pt x="602" y="154" on="1"/>
        <pt x="602" y="0" on="1"/>
      </contour>
      <contour>
        <pt x="481" y="-192" on="1"/>
        <pt x="424" y="-192" on="0"/>
        <pt x="359" y="-160" on="0"/>
        <pt x="332" y="-115" on="0"/>
        <pt x="332" y="-94" on="1"/>
        <pt x="332" y="-56" on="0"/>
        <pt x="386" y="-10" on="0"/>
        <pt x="416" y="0" on="1"/>
        <pt x="564" y="0" on="1"/>
        <pt x="544" y="-2" on="0"/>
        <pt x="497" y="-24" on="0"/>
        <pt x="464" y="-57" on="0"/>
        <pt x="464" y="-75" on="1"/>
        <pt x="464" y="-95" on="0"/>
        <pt x="496" y="-108" on="0"/>
        <pt x="513" y="-108" on="1"/>
        <pt x="528" y="-108" on="0"/>
        <pt x="558" y="-99" on="0"/>
        <pt x="564" y="-98" on="1"/>
        <pt x="564" y="-181" on="1"/>
        <pt x="553" y="-186" on="0"/>
        <pt x="501" y="-192" on="0"/>
      </contour>
    </TTGlyph>
    <TTGlyph name="Epsilon" xMin="75" yMin="0" xMax="615" yMax="739">
      <component glyphName="E" x="13" y="0" flags="0x4"/>
    </TTGlyph>
    <TTGlyph name="Epsilontonos" xMin="-103" yMin="0" xMax="602" yMax="739">
      <component glyphName="E" x="0" y="0" flags="0x204"/>
      <component glyphName="tonos.case" x="-195" y="0" flags="0x4"/>
    </TTGlyph>
    <TTGlyph name="Eta" xMin="85" yMin="0" xMax="647" yMax="739">
      <component glyphName="H" x="23" y="0" flags="0x4"/>
    </TTGlyph>
    <TTGlyph name="Etatonos" xMin="-92" yMin="0" xMax="624" yMax="739">
      <component glyphName="tonos.case" x="-184" y="0" flags="0x4"/>
      <component glyphName="H" x="0" y="0" flags="0x204"/>
    </TTGlyph>
    <TTGlyph name="Eth" xMin="62" yMin="0" xMax="624" yMax="739">
      <contour>
        <pt x="153" y="0" on="1"/>
        <pt x="153" y="305" on="1"/>
        <pt x="62" y="305" on="1"/>
        <pt x="62" y="455" on="1"/>
        <pt x="153" y="455" on="1"/>
        <pt x="153" y="739" on="1"/>
        <pt x="324" y="739" on="1"/>
        <pt x="388" y="739" on="0"/>
        <pt x="497" y="702" on="0"/>
        <pt x="578" y="617" on="0"/>
        <pt x="624" y="475" on="0"/>
        <pt x="624" y="369" on="1"/>
        <pt x="624" y="263" on="0"/>
        <pt x="578" y="121" on="0"/>
        <pt x="497" y="36" on="0"/>
        <pt x="388" y="0" on="0"/>
        <pt x="324" y="0" on="1"/>
      </contour>
      <contour>
        <pt x="276" y="147" on="1"/>
        <pt x="326" y="147" on="1"/>
        <pt x="360" y="147" on="0"/>
        <pt x="421" y="163" on="0"/>
        <pt x="470" y="207" on="0"/>
        <pt x="497" y="297" on="0"/>
        <pt x="497" y="369" on="1"/>
        <pt x="497" y="442" on="0"/>
        <pt x="470" y="532" on="0"/>
        <pt x="421" y="577" on="0"/>
        <pt x="360" y="594" on="0"/>
        <pt x="326" y="594" on="1"/>
        <pt x="276" y="594" on="1"/>
        <pt x="276" y="455" on="1"/>
        <pt x="336" y="455" on="1"/>
        <pt x="336" y="305" on="1"/>
        <pt x="276" y="305" on="1"/>
      </contour>
    </TTGlyph>
    <TTGlyph name="Euro" xMin="36" yMin="-10" xMax="597" yMax="730">
      <contour>
        <pt x="351" y="-10" on="1"/>
        <pt x="276" y="-10" on="0"/>
        <pt x="166" y="45" on="0"/>
        <pt x="105" y="144" on="0"/>
        <pt x="105" y="211" on="1"/>
        <pt x="105" y="233" on="1"/>
        <pt x="36" y="233" on="1"/>
        <pt x="36" y="316" on="1"/>
        <pt x="105" y="316" on="1"/>
        <pt x="105" y="404" on="1"/>
        <pt x="36" y="404" on="1"/>
        <pt x="36" y="487" on="1"/>
        <pt x="105" y="487" on="1"/>
        <pt x="105" y="509" on="1"/>
        <pt x="105" y="576" on="0"/>
        <pt x="166" y="675" on="0"/>
        <pt x="277" y="730" on="0"/>
        <pt x="352" y="730" on="1"/>
        <pt x="424" y="730" on="0"/>
        <pt x="531" y="678" on="0"/>
        <pt x="594" y="582" on="0"/>
        <pt x="597" y="517" on="1"/>
        <pt x="467" y="517" on="1"/>
        <pt x="465" y="565" on="0"/>
        <pt x="403" y="618" on="0"/>
        <pt x="352" y="618" on="1"/>
        <pt x="297" y="618" on="0"/>
        <pt x="234" y="560" on="0"/>
        <pt x="234" y="509" on="1"/>
        <pt x="234" y="487" on="1"/>
        <pt x="394" y="487" on="1"/>
        <pt x="394" y="404" on="1"/>
        <pt x="234" y="404" on="1"/>
        <pt x="234" y="316" on="1"/>
        <pt x="394" y="316" on="1"/>
        <pt x="394" y="233" on="1"/>
        <pt x="234" y="233" on="1"/>
        <pt x="234" y="211" on="1"/>
        <pt x="234" y="160" on="0"/>
        <pt x="296" y="102" on="0"/>
        <pt x="351" y="102" on="1"/>
        <pt x="403" y="102" on="0"/>
        <pt x="465" y="155" on="0"/>
        <pt x="467" y="203" on="1"/>
        <pt x="597" y="203" on="1"/>
        <pt x="592" y="105" on="0"/>
        <pt x="459" y="-10" on="0"/>
      </contour>
    </TTGlyph>
    <TTGlyph name="F" xMin="59" yMin="0" xMax="561" yMax="739">
      <contour>
        <pt x="59" y="0" on="1"/>
        <pt x="59" y="739" on="1"/>
        <pt x="561" y="739" on="1"/>
        <pt x="561" y="585" on="1"/>
        <pt x="225" y="585" on="1"/>
        <pt x="225" y="456" on="1"/>
        <pt x="561" y="456" on="1"/>
        <pt x="561" y="303" on="1"/>
        <pt x="225" y="303" on="1"/>
        <pt x="225" y="0" on="1"/>
      </contour>
    </TTGlyph>
    <TTGlyph name="G" xMin="62" yMin="-13" xMax="624" yMax="752">
      <contour>
        <pt x="337" y="-13" on="1"/>
        <pt x="252" y="-13" on="0"/>
        <pt x="129" y="81" on="0"/>
        <pt x="62" y="254" on="0"/>
        <pt x="62" y="371" on="1"/>
        <pt x="62" y="489" on="0"/>
        <pt x="136" y="659" on="0"/>
        <pt x="270" y="752" on="0"/>
        <pt x="357" y="752" on="1"/>
        <pt x="433" y="752" on="0"/>
        <pt x="556" y="675" on="0"/>
        <pt x="591" y="599" on="1"/>
        <pt x="472" y="537" on="1"/>
        <pt x="459" y="567" on="0"/>
        <pt x="401" y="608" on="0"/>
        <pt x="356" y="608" on="1"/>
        <pt x="315" y="608" on="0"/>
        <pt x="246" y="556" on="0"/>
        <pt x="207" y="450" on="0"/>
        <pt x="207" y="371" on="1"/>
        <pt x="207" y="255" on="0"/>
        <pt x="291" y="131" on="0"/>
        <pt x="358" y="131" on="1"/>
        <pt x="390" y="131" on="0"/>
        <pt x="449" y="154" on="0"/>
        <pt x="487" y="209" on="0"/>
        <pt x="487" y="255" on="1"/>
        <pt x="487" y="276" on="1"/>
        <pt x="357" y="276" on="1"/>
        <pt x="357" y="418" on="1"/>
        <pt x="624" y="418" on="1"/>
        <pt x="624" y="0" on="1"/>
        <pt x="534" y="0" on="1"/>
        <pt x="515" y="82" on="1"/>
        <pt x="460" y="-13" on="0"/>
      </contour>
    </TTGlyph>
    <TTGlyph name="Gamma" xMin="6" yMin="0" xMax="465" yMax="739">
      <component glyphName="uni0413" x="-52" y="0" flags="0x4"/>
    </TTGlyph>
    <TTGlyph name="Gbreve" xMin="62" yMin="-13" xMax="624" yMax="930">
      <contour>
        <pt x="337" y="-13" on="1"/>
        <pt x="252" y="-13" on="0"/>
        <pt x="129" y="80" on="0"/>
        <pt x="62" y="251" on="0"/>
        <pt x="62" y="367" on="1"/>
        <pt x="62" y="483" on="0"/>
        <pt x="136" y="651" on="0"/>
        <pt x="270" y="743" on="0"/>
        <pt x="357" y="743" on="1"/>
        <pt x="433" y="743" on="0"/>
        <pt x="556" y="667" on="0"/>
        <pt x="591" y="592" on="1"/>
        <pt x="472" y="531" on="1"/>
        <pt x="459" y="560" on="0"/>
        <pt x="401" y="601" on="0"/>
        <pt x="356" y="601" on="1"/>
        <pt x="315" y="601" on="0"/>
        <pt x="246" y="549" on="0"/>
        <pt x="207" y="445" on="0"/>
        <pt x="207" y="367" on="1"/>
        <pt x="207" y="252" on="0"/>
        <pt x="291" y="129" on="0"/>
        <pt x="358" y="129" on="1"/>
        <pt x="390" y="129" on="0"/>
        <pt x="449" y="152" on="0"/>
        <pt x="487" y="207" on="0"/>
        <pt x="487" y="252" on="1"/>
        <pt x="487" y="273" on="1"/>
        <pt x="357" y="273" on="1"/>
        <pt x="357" y="413" on="1"/>
        <pt x="624" y="413" on="1"/>
        <pt x="624" y="0" on="1"/>
        <pt x="534" y="0" on="1"/>
        <pt x="515" y="81" on="1"/>
        <pt x="460" y="-13" on="0"/>
      </contour>
      <contour>
        <pt x="351" y="799" on="1"/>
        <pt x="305" y="799" on="0"/>
        <pt x="235" y="874" on="0"/>
        <pt x="228" y="930" on="1"/>
        <pt x="301" y="930" on="1"/>
        <pt x="305" y="912" on="0"/>
        <pt x="333" y="883" on="0"/>
        <pt x="351" y="883" on="1"/>
        <pt x="371" y="883" on="0"/>
        <pt x="400" y="912" on="0"/>
        <pt x="403" y="930" on="1"/>
        <pt x="476" y="930" on="1"/>
        <pt x="469" y="874" on="0"/>
        <pt x="399" y="799" on="0"/>
      </contour>
    </TTGlyph>
    <TTGlyph name="Gcaron" xMin="62" yMin="-13" xMax="624" yMax="950">
      <component glyphName="G" x="0" y="0" flags="0x204"/>
      <component glyphName="uni030C.case" x="88" y="0" flags="0x4"/>
    </TTGlyph>
    <TTGlyph name="Gcircumflex" xMin="62" yMin="-13" xMax="624" yMax="950">
      <component glyphName="G" x="0" y="0" flags="0x204"/>
      <component glyphName="uni0302.case" x="88" y="0" flags="0x4"/>
    </TTGlyph>
    <TTGlyph name="Gdotaccent" xMin="62" yMin="-13" xMax="624" yMax="947">
      <contour>
        <pt x="337" y="-13" on="1"/>
        <pt x="252" y="-13" on="0"/>
        <pt x="129" y="80" on="0"/>
        <pt x="62" y="251" on="0"/>
        <pt x="62" y="367" on="1"/>
        <pt x="62" y="483" on="0"/>
        <pt x="136" y="651" on="0"/>
        <pt x="270" y="743" on="0"/>
        <pt x="357" y="743" on="1"/>
        <pt x="433" y="743" on="0"/>
        <pt x="556" y="667" on="0"/>
        <pt x="591" y="592" on="1"/>
        <pt x="472" y="531" on="1"/>
        <pt x="459" y="560" on="0"/>
        <pt x="401" y="601" on="0"/>
        <pt x="356" y="601" on="1"/>
        <pt x="315" y="601" on="0"/>
        <pt x="246" y="549" on="0"/>
        <pt x="207" y="445" on="0"/>
        <pt x="207" y="367" on="1"/>
        <pt x="207" y="252" on="0"/>
        <pt x="291" y="129" on="0"/>
        <pt x="358" y="129" on="1"/>
        <pt x="390" y="129" on="0"/>
        <pt x="449" y="152" on="0"/>
        <pt x="487" y="207" on="0"/>
        <pt x="487" y="252" on="1"/>
        <pt x="487" y="273" on="1"/>
        <pt x="357" y="273" on="1"/>
        <pt x="357" y="413" on="1"/>
        <pt x="624" y="413" on="1"/>
        <pt x="624" y="0" on="1"/>
        <pt x="534" y="0" on="1"/>
        <pt x="515" y="81" on="1"/>
        <pt x="460" y="-13" on="0"/>
      </contour>
      <contour>
        <pt x="352" y="793" on="1"/>
        <pt x="327" y="793" on="0"/>
        <pt x="291" y="838" on="0"/>
        <pt x="291" y="870" on="1"/>
        <pt x="291" y="902" on="0"/>
        <pt x="327" y="947" on="0"/>
        <pt x="352" y="947" on="1"/>
        <pt x="378" y="947" on="0"/>
        <pt x="413" y="902" on="0"/>
        <pt x="413" y="870" on="1"/>
        <pt x="413" y="838" on="0"/>
        <pt x="378" y="793" on="0"/>
      </contour>
    </TTGlyph>
    <TTGlyph name="H" xMin="62" yMin="0" xMax="624" yMax="739">
      <contour>
        <pt x="62" y="0" on="1"/>
        <pt x="62" y="739" on="1"/>
        <pt x="212" y="739" on="1"/>
        <pt x="212" y="456" on="1"/>
        <pt x="474" y="456" on="1"/>
        <pt x="474" y="739" on="1"/>
        <pt x="624" y="739" on="1"/>
        <pt x="624" y="0" on="1"/>
        <pt x="474" y="0" on="1"/>
        <pt x="474" y="303" on="1"/>
        <pt x="212" y="303" on="1"/>
        <pt x="212" y="0" on="1"/>
      </contour>
    </TTGlyph>
    <TTGlyph name="Hbar" xMin="62" yMin="0" xMax="624" yMax="739">
      <contour>
        <pt x="109" y="0" on="1"/>
        <pt x="109" y="549" on="1"/>
        <pt x="62" y="549" on="1"/>
        <pt x="62" y="657" on="1"/>
        <pt x="109" y="657" on="1"/>
        <pt x="109" y="739" on="1"/>
        <pt x="235" y="739" on="1"/>
        <pt x="235" y="657" on="1"/>
        <pt x="452" y="657" on="1"/>
        <pt x="452" y="739" on="1"/>
        <pt x="577" y="739" on="1"/>
        <pt x="577" y="657" on="1"/>
        <pt x="624" y="657" on="1"/>
        <pt x="624" y="549" on="1"/>
        <pt x="577" y="549" on="1"/>
        <pt x="577" y="0" on="1"/>
        <pt x="452" y="0" on="1"/>
        <pt x="452" y="303" on="1"/>
        <pt x="235" y="303" on="1"/>
        <pt x="235" y="0" on="1"/>
      </contour>
      <contour>
        <pt x="235" y="456" on="1"/>
        <pt x="452" y="456" on="1"/>
        <pt x="452" y="549" on="1"/>
        <pt x="235" y="549" on="1"/>
      </contour>
    </TTGlyph>
    <TTGlyph name="Hcircumflex" xMin="62" yMin="0" xMax="624" yMax="950">
      <component glyphName="H" x="0" y="0" flags="0x204"/>
      <component glyphName="uni0302.case" x="88" y="0" flags="0x4"/>
    </TTGlyph>
    <TTGlyph name="I" xMin="80" yMin="0" xMax="230" yMax="739">
      <contour>
        <pt x="80" y="0" on="1"/>
        <pt x="80" y="739" on="1"/>
        <pt x="230" y="739" on="1"/>
        <pt x="230" y="0" on="1"/>
      </contour>
    </TTGlyph>
    <TTGlyph name="Iacute" xMin="80" yMin="0" xMax="313" yMax="967">
      <contour>
        <pt x="80" y="0" on="1"/>
        <pt x="80" y="739" on="1"/>
        <pt x="230" y="739" on="1"/>
        <pt x="230" y="0" on="1"/>
      </contour>
      <contour>
        <pt x="84" y="799" on="1"/>
        <pt x="115" y="836" on="0"/>
        <pt x="177" y="908" on="0"/>
        <pt x="209" y="945" on="1"/>
        <pt x="230" y="967" on="0"/>
        <pt x="254" y="967" on="1"/>
        <pt x="278" y="967" on="0"/>
        <pt x="313" y="931" on="0"/>
        <pt x="313" y="906" on="1"/>
        <pt x="313" y="892" on="0"/>
        <pt x="302" y="869" on="0"/>
        <pt x="293" y="859" on="1"/>
        <pt x="273" y="845" on="0"/>
        <pt x="235" y="814" on="0"/>
        <pt x="215" y="799" on="1"/>
      </contour>
    </TTGlyph>
    <TTGlyph name="Ibreve" xMin="-27" yMin="0" xMax="329" yMax="950">
      <component glyphName="I" x="0" y="0" flags="0x204"/>
      <component glyphName="uni0306.case" x="-77" y="0" flags="0x4"/>
    </TTGlyph>
    <TTGlyph name="Icircumflex" xMin="-50" yMin="0" xMax="363" yMax="965">
      <contour>
        <pt x="80" y="0" on="1"/>
        <pt x="80" y="739" on="1"/>
        <pt x="230" y="739" on="1"/>
        <pt x="230" y="0" on="1"/>
      </contour>
      <contour>
        <pt x="-50" y="799" on="1"/>
        <pt x="105" y="944" on="1"/>
        <pt x="115" y="953" on="0"/>
        <pt x="141" y="965" on="0"/>
        <pt x="156" y="965" on="1"/>
        <pt x="185" y="965" on="0"/>
        <pt x="207" y="944" on="1"/>
        <pt x="363" y="799" on="1"/>
        <pt x="227" y="799" on="1"/>
        <pt x="156" y="866" on="1"/>
        <pt x="86" y="799" on="1"/>
      </contour>
    </TTGlyph>
    <TTGlyph name="Idieresis" xMin="-18" yMin="0" xMax="332" yMax="947">
      <contour>
        <pt x="80" y="0" on="1"/>
        <pt x="80" y="739" on="1"/>
        <pt x="230" y="739" on="1"/>
        <pt x="230" y="0" on="1"/>
      </contour>
      <contour>
        <pt x="56" y="793" on="1"/>
        <pt x="26" y="793" on="0"/>
        <pt x="-18" y="838" on="0"/>
        <pt x="-18" y="870" on="1"/>
        <pt x="-18" y="902" on="0"/>
        <pt x="26" y="947" on="0"/>
        <pt x="56" y="947" on="1"/>
        <pt x="87" y="947" on="0"/>
        <pt x="130" y="902" on="0"/>
        <pt x="130" y="870" on="1"/>
        <pt x="130" y="838" on="0"/>
        <pt x="87" y="793" on="0"/>
      </contour>
      <contour>
        <pt x="260" y="793" on="1"/>
        <pt x="230" y="793" on="0"/>
        <pt x="185" y="838" on="0"/>
        <pt x="185" y="870" on="1"/>
        <pt x="185" y="902" on="0"/>
        <pt x="230" y="947" on="0"/>
        <pt x="260" y="947" on="1"/>
        <pt x="290" y="947" on="0"/>
        <pt x="332" y="902" on="0"/>
        <pt x="332" y="870" on="1"/>
        <pt x="332" y="838" on="0"/>
        <pt x="290" y="793" on="0"/>
      </contour>
    </TTGlyph>
    <TTGlyph name="Idotaccent" xMin="66" yMin="0" xMax="234" yMax="952">
      <component glyphName="I" x="0" y="0" flags="0x204"/>
      <component glyphName="uni0307.case" x="-30" y="0" flags="0x4"/>
    </TTGlyph>
    <TTGlyph name="Igrave" xMin="3" yMin="0" xMax="233" yMax="967">
      <contour>
        <pt x="80" y="0" on="1"/>
        <pt x="80" y="739" on="1"/>
        <pt x="230" y="739" on="1"/>
        <pt x="230" y="0" on="1"/>
      </contour>
      <contour>
        <pt x="101" y="799" on="1"/>
        <pt x="82" y="814" on="0"/>
        <pt x="44" y="845" on="0"/>
        <pt x="24" y="859" on="1"/>
        <pt x="13" y="870" on="0"/>
        <pt x="3" y="891" on="0"/>
        <pt x="3" y="906" on="1"/>
        <pt x="3" y="930" on="0"/>
        <pt x="38" y="967" on="0"/>
        <pt x="62" y="967" on="1"/>
        <pt x="86" y="967" on="0"/>
        <pt x="101" y="951" on="1"/>
        <pt x="233" y="799" on="1"/>
      </contour>
    </TTGlyph>
    <TTGlyph name="Imacron" xMin="0" yMin="0" xMax="314" yMax="923">
      <contour>
        <pt x="80" y="0" on="1"/>
        <pt x="80" y="739" on="1"/>
        <pt x="230" y="739" on="1"/>
        <pt x="230" y="0" on="1"/>
      </contour>
      <contour>
        <pt x="0" y="816" on="1"/>
        <pt x="0" y="923" on="1"/>
        <pt x="314" y="923" on="1"/>
        <pt x="314" y="816" on="1"/>
      </contour>
    </TTGlyph>
    <TTGlyph name="Iogonek" xMin="30" yMin="-192" xMax="262" yMax="739">
      <contour>
        <pt x="80" y="0" on="1"/>
        <pt x="80" y="739" on="1"/>
        <pt x="230" y="739" on="1"/>
        <pt x="230" y="0" on="1"/>
      </contour>
      <contour>
        <pt x="179" y="-192" on="1"/>
        <pt x="122" y="-192" on="0"/>
        <pt x="57" y="-160" on="0"/>
        <pt x="30" y="-115" on="0"/>
        <pt x="30" y="-94" on="1"/>
        <pt x="30" y="-56" on="0"/>
        <pt x="84" y="-10" on="0"/>
        <pt x="114" y="0" on="1"/>
        <pt x="262" y="0" on="1"/>
        <pt x="242" y="-2" on="0"/>
        <pt x="195" y="-24" on="0"/>
        <pt x="162" y="-57" on="0"/>
        <pt x="162" y="-75" on="1"/>
        <pt x="162" y="-95" on="0"/>
        <pt x="194" y="-108" on="0"/>
        <pt x="211" y="-108" on="1"/>
        <pt x="226" y="-108" on="0"/>
        <pt x="256" y="-99" on="0"/>
        <pt x="262" y="-98" on="1"/>
        <pt x="262" y="-181" on="1"/>
        <pt x="251" y="-186" on="0"/>
        <pt x="199" y="-192" on="0"/>
      </contour>
    </TTGlyph>
    <TTGlyph name="Iota" xMin="80" yMin="0" xMax="230" yMax="739">
      <component glyphName="I" x="0" y="0" flags="0x204"/>
    </TTGlyph>
    <TTGlyph name="Iotadieresis" xMin="-44" yMin="0" xMax="346" yMax="953">
      <component glyphName="uni0308.case" x="-96" y="0" flags="0x4"/>
      <component glyphName="I" x="0" y="0" flags="0x204"/>
    </TTGlyph>
    <TTGlyph name="Iotatonos" xMin="-280" yMin="0" xMax="230" yMax="739">
      <component glyphName="tonos.case" x="-372" y="0" flags="0x4"/>
      <component glyphName="I" x="0" y="0" flags="0x204"/>
    </TTGlyph>
    <TTGlyph name="Itilde" xMin="-24" yMin="0" xMax="326" yMax="954">
      <component glyphName="I" x="0" y="0" flags="0x204"/>
      <component glyphName="tildecomb.case" x="-74" y="0" flags="0x4"/>
    </TTGlyph>
    <TTGlyph name="J" xMin="61" yMin="-13" xMax="598" yMax="739">
      <contour>
        <pt x="324" y="-13" on="1"/>
        <pt x="214" y="-13" on="0"/>
        <pt x="83" y="99" on="0"/>
        <pt x="61" y="193" on="1"/>
        <pt x="214" y="252" on="1"/>
        <pt x="220" y="222" on="0"/>
        <pt x="246" y="163" on="0"/>
        <pt x="291" y="124" on="0"/>
        <pt x="324" y="124" on="1"/>
        <pt x="376" y="124" on="0"/>
        <pt x="432" y="194" on="0"/>
        <pt x="432" y="283" on="1"/>
        <pt x="432" y="739" on="1"/>
        <pt x="598" y="739" on="1"/>
        <pt x="598" y="283" on="1"/>
        <pt x="598" y="145" on="0"/>
        <pt x="458" y="-13" on="0"/>
      </contour>
    </TTGlyph>
    <TTGlyph name="Jcircumflex" xMin="61" yMin="-13" xMax="598" yMax="950">
      <component glyphName="J" x="0" y="0" flags="0x204"/>
      <component glyphName="uni0302.case" x="134" y="0" flags="0x4"/>
    </TTGlyph>
    <TTGlyph name="K" xMin="62" yMin="0" xMax="624" yMax="739">
      <contour>
        <pt x="62" y="0" on="1"/>
        <pt x="62" y="739" on="1"/>
        <pt x="209" y="739" on="1"/>
        <pt x="209" y="445" on="1"/>
        <pt x="432" y="739" on="1"/>
        <pt x="612" y="739" on="1"/>
        <pt x="367" y="422" on="1"/>
        <pt x="624" y="0" on="1"/>
        <pt x="454" y="0" on="1"/>
        <pt x="272" y="301" on="1"/>
        <pt x="209" y="218" on="1"/>
        <pt x="209" y="0" on="1"/>
      </contour>
    </TTGlyph>
    <TTGlyph name="Kappa" xMin="85" yMin="0" xMax="647" yMax="739">
      <component glyphName="K" x="23" y="0" flags="0x4"/>
    </TTGlyph>
    <TTGlyph name="L" xMin="59" yMin="0" xMax="561" yMax="739">
      <contour>
        <pt x="59" y="0" on="1"/>
        <pt x="59" y="739" on="1"/>
        <pt x="225" y="739" on="1"/>
        <pt x="225" y="154" on="1"/>
        <pt x="561" y="154" on="1"/>
        <pt x="561" y="0" on="1"/>
      </contour>
    </TTGlyph>
    <TTGlyph name="Lacute" xMin="59" yMin="0" xMax="561" yMax="950">
      <component glyphName="L" x="0" y="0" flags="0x204"/>
      <component glyphName="acutecomb.case" x="44" y="0" flags="0x4"/>
    </TTGlyph>
    <TTGlyph name="Lambda" xMin="62" yMin="0" xMax="618" yMax="739">
      <contour>
        <pt x="62" y="0" on="1"/>
        <pt x="255" y="739" on="1"/>
        <pt x="424" y="739" on="1"/>
        <pt x="618" y="0" on="1"/>
        <pt x="484" y="0" on="1"/>
        <pt x="369" y="481" on="1"/>
        <pt x="361" y="517" on="0"/>
        <pt x="347" y="584" on="0"/>
        <pt x="339" y="626" on="0"/>
        <pt x="339" y="626" on="1"/>
        <pt x="339" y="626" on="0"/>
        <pt x="331" y="584" on="0"/>
        <pt x="317" y="517" on="0"/>
        <pt x="309" y="482" on="1"/>
        <pt x="195" y="0" on="1"/>
      </contour>
    </TTGlyph>
    <TTGlyph name="Lcaron" xMin="59" yMin="0" xMax="561" yMax="765">
      <contour>
        <pt x="59" y="0" on="1"/>
        <pt x="59" y="739" on="1"/>
        <pt x="225" y="739" on="1"/>
        <pt x="225" y="154" on="1"/>
        <pt x="561" y="154" on="1"/>
        <pt x="561" y="0" on="1"/>
      </contour>
      <contour>
        <pt x="356" y="553" on="1"/>
        <pt x="363" y="593" on="0"/>
        <pt x="375" y="674" on="0"/>
        <pt x="381" y="713" on="1"/>
        <pt x="386" y="739" on="0"/>
        <pt x="422" y="765" on="0"/>
        <pt x="440" y="765" on="1"/>
        <pt x="468" y="765" on="0"/>
        <pt x="498" y="725" on="0"/>
        <pt x="498" y="702" on="1"/>
        <pt x="498" y="692" on="0"/>
        <pt x="495" y="683" on="1"/>
        <pt x="440" y="553" on="1"/>
      </contour>
    </TTGlyph>
    <TTGlyph name="Ldot" xMin="59" yMin="0" xMax="561" yMax="739">
      <component glyphName="L" x="0" y="0" flags="0x204"/>
      <component glyphName="period" x="349" y="275" flags="0x4"/>
    </TTGlyph>
    <TTGlyph name="Lslash" xMin="62" yMin="0" xMax="624" yMax="739">
      <contour>
        <pt x="142" y="0" on="1"/>
        <pt x="142" y="250" on="1"/>
        <pt x="62" y="197" on="1"/>
        <pt x="62" y="332" on="1"/>
        <pt x="142" y="384" on="1"/>
        <pt x="142" y="739" on="1"/>
        <pt x="302" y="739" on="1"/>
        <pt x="302" y="488" on="1"/>
        <pt x="463" y="595" on="1"/>
        <pt x="463" y="460" on="1"/>
        <pt x="302" y="355" on="1"/>
        <pt x="302" y="154" on="1"/>
        <pt x="624" y="154" on="1"/>
        <pt x="624" y="0" on="1"/>
      </contour>
    </TTGlyph>
    <TTGlyph name="M" xMin="84" yMin="0" xMax="634" yMax="739">
      <contour>
        <pt x="84" y="0" on="1"/>
        <pt x="84" y="739" on="1"/>
        <pt x="257" y="739" on="1"/>
        <pt x="358" y="209" on="1"/>
        <pt x="462" y="739" on="1"/>
        <pt x="634" y="739" on="1"/>
        <pt x="634" y="0" on="1"/>
        <pt x="522" y="0" on="1"/>
        <pt x="522" y="581" on="1"/>
        <pt x="405" y="0" on="1"/>
        <pt x="311" y="0" on="1"/>
        <pt x="196" y="581" on="1"/>
        <pt x="196" y="0" on="1"/>
      </contour>
    </TTGlyph>
    <TTGlyph name="Mu" xMin="102" yMin="0" xMax="652" yMax="739">
      <component glyphName="M" x="18" y="0" flags="0x4"/>
    </TTGlyph>
    <TTGlyph name="N" xMin="62" yMin="0" xMax="624" yMax="739">
      <contour>
        <pt x="62" y="0" on="1"/>
        <pt x="62" y="739" on="1"/>
        <pt x="246" y="739" on="1"/>
        <pt x="484" y="213" on="1"/>
        <pt x="484" y="739" on="1"/>
        <pt x="624" y="739" on="1"/>
        <pt x="624" y="0" on="1"/>
        <pt x="439" y="0" on="1"/>
        <pt x="201" y="526" on="1"/>
        <pt x="201" y="0" on="1"/>
      </contour>
    </TTGlyph>
    <TTGlyph name="Nacute" xMin="62" yMin="0" xMax="624" yMax="967">
      <contour>
        <pt x="62" y="0" on="1"/>
        <pt x="62" y="730" on="1"/>
        <pt x="246" y="730" on="1"/>
        <pt x="484" y="210" on="1"/>
        <pt x="484" y="730" on="1"/>
        <pt x="624" y="730" on="1"/>
        <pt x="624" y="0" on="1"/>
        <pt x="439" y="0" on="1"/>
        <pt x="201" y="520" on="1"/>
        <pt x="201" y="0" on="1"/>
      </contour>
      <contour>
        <pt x="293" y="799" on="1"/>
        <pt x="320" y="836" on="0"/>
        <pt x="375" y="908" on="0"/>
        <pt x="402" y="945" on="1"/>
        <pt x="421" y="967" on="0"/>
        <pt x="442" y="967" on="1"/>
        <pt x="463" y="967" on="0"/>
        <pt x="493" y="931" on="0"/>
        <pt x="493" y="906" on="1"/>
        <pt x="493" y="892" on="0"/>
        <pt x="484" y="869" on="0"/>
        <pt x="475" y="859" on="1"/>
        <pt x="457" y="845" on="0"/>
        <pt x="425" y="814" on="0"/>
        <pt x="407" y="799" on="1"/>
      </contour>
    </TTGlyph>
    <TTGlyph name="Ncaron" xMin="62" yMin="0" xMax="624" yMax="958">
      <contour>
        <pt x="62" y="0" on="1"/>
        <pt x="62" y="730" on="1"/>
        <pt x="246" y="730" on="1"/>
        <pt x="484" y="210" on="1"/>
        <pt x="484" y="730" on="1"/>
        <pt x="624" y="730" on="1"/>
        <pt x="624" y="0" on="1"/>
        <pt x="439" y="0" on="1"/>
        <pt x="201" y="520" on="1"/>
        <pt x="201" y="0" on="1"/>
      </contour>
      <contour>
        <pt x="357" y="792" on="1"/>
        <pt x="330" y="792" on="0"/>
        <pt x="310" y="813" on="1"/>
        <pt x="176" y="958" on="1"/>
        <pt x="295" y="958" on="1"/>
        <pt x="357" y="892" on="1"/>
        <pt x="420" y="958" on="1"/>
        <pt x="537" y="958" on="1"/>
        <pt x="403" y="813" on="1"/>
        <pt x="383" y="792" on="0"/>
      </contour>
    </TTGlyph>
    <TTGlyph name="Ntilde" xMin="62" yMin="0" xMax="624" yMax="928">
      <contour>
        <pt x="62" y="0" on="1"/>
        <pt x="62" y="730" on="1"/>
        <pt x="246" y="730" on="1"/>
        <pt x="484" y="210" on="1"/>
        <pt x="484" y="730" on="1"/>
        <pt x="624" y="730" on="1"/>
        <pt x="624" y="0" on="1"/>
        <pt x="439" y="0" on="1"/>
        <pt x="201" y="520" on="1"/>
        <pt x="201" y="0" on="1"/>
      </contour>
      <contour>
        <pt x="424" y="797" on="1"/>
        <pt x="388" y="797" on="0"/>
        <pt x="359" y="814" on="1"/>
        <pt x="341" y="825" on="0"/>
        <pt x="321" y="838" on="0"/>
        <pt x="308" y="838" on="1"/>
        <pt x="294" y="838" on="0"/>
        <pt x="272" y="820" on="0"/>
        <pt x="268" y="802" on="1"/>
        <pt x="187" y="802" on="1"/>
        <pt x="195" y="862" on="0"/>
        <pt x="253" y="928" on="0"/>
        <pt x="302" y="928" on="1"/>
        <pt x="331" y="928" on="0"/>
        <pt x="367" y="906" on="0"/>
        <pt x="398" y="883" on="0"/>
        <pt x="415" y="883" on="1"/>
        <pt x="428" y="883" on="0"/>
        <pt x="446" y="895" on="0"/>
        <pt x="455" y="906" on="1"/>
        <pt x="472" y="928" on="0"/>
        <pt x="488" y="928" on="1"/>
        <pt x="506" y="928" on="0"/>
        <pt x="527" y="903" on="0"/>
        <pt x="527" y="884" on="1"/>
        <pt x="527" y="863" on="0"/>
        <pt x="496" y="823" on="0"/>
        <pt x="450" y="797" on="0"/>
      </contour>
    </TTGlyph>
    <TTGlyph name="Nu" xMin="85" yMin="0" xMax="647" yMax="739">
      <component glyphName="N" x="23" y="0" flags="0x4"/>
    </TTGlyph>
    <TTGlyph name="O" xMin="62" yMin="-13" xMax="624" yMax="752">
      <contour>
        <pt x="342" y="-13" on="1"/>
        <pt x="259" y="-13" on="0"/>
        <pt x="133" y="82" on="0"/>
        <pt x="62" y="254" on="0"/>
        <pt x="62" y="369" on="1"/>
        <pt x="62" y="485" on="0"/>
        <pt x="133" y="657" on="0"/>
        <pt x="259" y="752" on="0"/>
        <pt x="342" y="752" on="1"/>
        <pt x="426" y="752" on="0"/>
        <pt x="552" y="657" on="0"/>
        <pt x="624" y="485" on="0"/>
        <pt x="624" y="369" on="1"/>
        <pt x="624" y="254" on="0"/>
        <pt x="552" y="82" on="0"/>
        <pt x="426" y="-13" on="0"/>
      </contour>
      <contour>
        <pt x="342" y="131" on="1"/>
        <pt x="382" y="131" on="0"/>
        <pt x="448" y="184" on="0"/>
        <pt x="488" y="290" on="0"/>
        <pt x="488" y="369" on="1"/>
        <pt x="488" y="448" on="0"/>
        <pt x="448" y="555" on="0"/>
        <pt x="382" y="608" on="0"/>
        <pt x="342" y="608" on="1"/>
        <pt x="303" y="608" on="0"/>
        <pt x="237" y="555" on="0"/>
        <pt x="197" y="448" on="0"/>
        <pt x="197" y="369" on="1"/>
        <pt x="197" y="290" on="0"/>
        <pt x="237" y="184" on="0"/>
        <pt x="303" y="131" on="0"/>
      </contour>
    </TTGlyph>
    <TTGlyph name="OE" xMin="62" yMin="-13" xMax="624" yMax="752">
      <contour>
        <pt x="256" y="-13" on="1"/>
        <pt x="198" y="-13" on="0"/>
        <pt x="111" y="82" on="0"/>
        <pt x="62" y="253" on="0"/>
        <pt x="62" y="369" on="1"/>
        <pt x="62" y="485" on="0"/>
        <pt x="111" y="657" on="0"/>
        <pt x="198" y="752" on="0"/>
        <pt x="256" y="752" on="1"/>
        <pt x="313" y="752" on="0"/>
        <pt x="357" y="704" on="1"/>
        <pt x="357" y="739" on="1"/>
        <pt x="624" y="739" on="1"/>
        <pt x="624" y="584" on="1"/>
        <pt x="425" y="584" on="1"/>
        <pt x="425" y="456" on="1"/>
        <pt x="547" y="456" on="1"/>
        <pt x="547" y="305" on="1"/>
        <pt x="425" y="305" on="1"/>
        <pt x="425" y="154" on="1"/>
        <pt x="624" y="154" on="1"/>
        <pt x="624" y="0" on="1"/>
        <pt x="357" y="0" on="1"/>
        <pt x="357" y="34" on="1"/>
        <pt x="313" y="-13" on="0"/>
      </contour>
      <contour>
        <pt x="256" y="131" on="1"/>
        <pt x="283" y="131" on="0"/>
        <pt x="329" y="184" on="0"/>
        <pt x="357" y="290" on="0"/>
        <pt x="357" y="369" on="1"/>
        <pt x="357" y="448" on="0"/>
        <pt x="329" y="555" on="0"/>
        <pt x="283" y="607" on="0"/>
        <pt x="256" y="607" on="1"/>
        <pt x="229" y="607" on="0"/>
        <pt x="182" y="555" on="0"/>
        <pt x="155" y="448" on="0"/>
        <pt x="155" y="369" on="1"/>
        <pt x="155" y="290" on="0"/>
        <pt x="182" y="184" on="0"/>
        <pt x="229" y="131" on="0"/>
      </contour>
    </TTGlyph>
    <TTGlyph name="Oacute" xMin="62" yMin="-13" xMax="624" yMax="967">
      <contour>
        <pt x="342" y="-13" on="1"/>
        <pt x="259" y="-13" on="0"/>
        <pt x="133" y="81" on="0"/>
        <pt x="62" y="251" on="0"/>
        <pt x="62" y="365" on="1"/>
        <pt x="62" y="479" on="0"/>
        <pt x="133" y="649" on="0"/>
        <pt x="259" y="743" on="0"/>
        <pt x="342" y="743" on="1"/>
        <pt x="426" y="743" on="0"/>
        <pt x="552" y="649" on="0"/>
        <pt x="624" y="479" on="0"/>
        <pt x="624" y="365" on="1"/>
        <pt x="624" y="251" on="0"/>
        <pt x="552" y="81" on="0"/>
        <pt x="426" y="-13" on="0"/>
      </contour>
      <contour>
        <pt x="342" y="129" on="1"/>
        <pt x="382" y="129" on="0"/>
        <pt x="448" y="182" on="0"/>
        <pt x="488" y="287" on="0"/>
        <pt x="488" y="365" on="1"/>
        <pt x="488" y="443" on="0"/>
        <pt x="448" y="548" on="0"/>
        <pt x="382" y="601" on="0"/>
        <pt x="342" y="601" on="1"/>
        <pt x="303" y="601" on="0"/>
        <pt x="237" y="548" on="0"/>
        <pt x="197" y="443" on="0"/>
        <pt x="197" y="365" on="1"/>
        <pt x="197" y="287" on="0"/>
        <pt x="237" y="182" on="0"/>
        <pt x="303" y="129" on="0"/>
      </contour>
      <contour>
        <pt x="286" y="799" on="1"/>
        <pt x="310" y="836" on="0"/>
        <pt x="359" y="908" on="0"/>
        <pt x="383" y="945" on="1"/>
        <pt x="399" y="967" on="0"/>
        <pt x="418" y="967" on="1"/>
        <pt x="436" y="967" on="0"/>
        <pt x="463" y="931" on="0"/>
        <pt x="463" y="906" on="1"/>
        <pt x="463" y="892" on="0"/>
        <pt x="455" y="869" on="0"/>
        <pt x="448" y="859" on="1"/>
        <pt x="432" y="845" on="0"/>
        <pt x="403" y="814" on="0"/>
        <pt x="387" y="799" on="1"/>
      </contour>
    </TTGlyph>
    <TTGlyph name="Obreve" xMin="62" yMin="-13" xMax="624" yMax="950">
      <component glyphName="O" x="0" y="0" flags="0x204"/>
      <component glyphName="uni0306.case" x="111" y="0" flags="0x4"/>
    </TTGlyph>
    <TTGlyph name="Ocircumflex" xMin="62" yMin="-13" xMax="624" yMax="965">
      <contour>
        <pt x="342" y="-13" on="1"/>
        <pt x="259" y="-13" on="0"/>
        <pt x="133" y="81" on="0"/>
        <pt x="62" y="251" on="0"/>
        <pt x="62" y="365" on="1"/>
        <pt x="62" y="479" on="0"/>
        <pt x="133" y="649" on="0"/>
        <pt x="259" y="743" on="0"/>
        <pt x="342" y="743" on="1"/>
        <pt x="426" y="743" on="0"/>
        <pt x="552" y="649" on="0"/>
        <pt x="624" y="479" on="0"/>
        <pt x="624" y="365" on="1"/>
        <pt x="624" y="251" on="0"/>
        <pt x="552" y="81" on="0"/>
        <pt x="426" y="-13" on="0"/>
      </contour>
      <contour>
        <pt x="342" y="129" on="1"/>
        <pt x="382" y="129" on="0"/>
        <pt x="448" y="182" on="0"/>
        <pt x="488" y="287" on="0"/>
        <pt x="488" y="365" on="1"/>
        <pt x="488" y="443" on="0"/>
        <pt x="448" y="548" on="0"/>
        <pt x="382" y="601" on="0"/>
        <pt x="342" y="601" on="1"/>
        <pt x="303" y="601" on="0"/>
        <pt x="237" y="548" on="0"/>
        <pt x="197" y="443" on="0"/>
        <pt x="197" y="365" on="1"/>
        <pt x="197" y="287" on="0"/>
        <pt x="237" y="182" on="0"/>
        <pt x="303" y="129" on="0"/>
      </contour>
      <contour>
        <pt x="183" y="799" on="1"/>
        <pt x="302" y="944" on="1"/>
        <pt x="310" y="953" on="0"/>
        <pt x="330" y="965" on="0"/>
        <pt x="342" y="965" on="1"/>
        <pt x="365" y="965" on="0"/>
        <pt x="382" y="944" on="1"/>
        <pt x="502" y="799" on="1"/>
        <pt x="398" y="799" on="1"/>
        <pt x="342" y="866" on="1"/>
        <pt x="287" y="799" on="1"/>
      </contour>
    </TTGlyph>
    <TTGlyph name="Odieresis" xMin="62" yMin="-13" xMax="624" yMax="947">
      <contour>
        <pt x="342" y="-13" on="1"/>
        <pt x="259" y="-13" on="0"/>
        <pt x="133" y="81" on="0"/>
        <pt x="62" y="251" on="0"/>
        <pt x="62" y="365" on="1"/>
        <pt x="62" y="479" on="0"/>
        <pt x="133" y="649" on="0"/>
        <pt x="259" y="743" on="0"/>
        <pt x="342" y="743" on="1"/>
        <pt x="426" y="743" on="0"/>
        <pt x="552" y="649" on="0"/>
        <pt x="624" y="479" on="0"/>
        <pt x="624" y="365" on="1"/>
        <pt x="624" y="251" on="0"/>
        <pt x="552" y="81" on="0"/>
        <pt x="426" y="-13" on="0"/>
      </contour>
      <contour>
        <pt x="342" y="129" on="1"/>
        <pt x="382" y="129" on="0"/>
        <pt x="448" y="182" on="0"/>
        <pt x="488" y="287" on="0"/>
        <pt x="488" y="365" on="1"/>
        <pt x="488" y="443" on="0"/>
        <pt x="448" y="548" on="0"/>
        <pt x="382" y="601" on="0"/>
        <pt x="342" y="601" on="1"/>
        <pt x="303" y="601" on="0"/>
        <pt x="237" y="548" on="0"/>
        <pt x="197" y="443" on="0"/>
        <pt x="197" y="365" on="1"/>
        <pt x="197" y="287" on="0"/>
        <pt x="237" y="182" on="0"/>
        <pt x="303" y="129" on="0"/>
      </contour>
      <contour>
        <pt x="265" y="793" on="1"/>
        <pt x="241" y="793" on="0"/>
        <pt x="208" y="838" on="0"/>
        <pt x="208" y="870" on="1"/>
        <pt x="208" y="902" on="0"/>
        <pt x="241" y="947" on="0"/>
        <pt x="265" y="947" on="1"/>
        <pt x="288" y="947" on="0"/>
        <pt x="322" y="902" on="0"/>
        <pt x="322" y="870" on="1"/>
        <pt x="322" y="838" on="0"/>
        <pt x="288" y="793" on="0"/>
      </contour>
      <contour>
        <pt x="423" y="793" on="1"/>
        <pt x="399" y="793" on="0"/>
        <pt x="365" y="838" on="0"/>
        <pt x="365" y="870" on="1"/>
        <pt x="365" y="902" on="0"/>
        <pt x="399" y="947" on="0"/>
        <pt x="423" y="947" on="1"/>
        <pt x="446" y="947" on="0"/>
        <pt x="478" y="902" on="0"/>
        <pt x="478" y="870" on="1"/>
        <pt x="478" y="838" on="0"/>
        <pt x="446" y="793" on="0"/>
      </contour>
    </TTGlyph>
    <TTGlyph name="Ograve" xMin="62" yMin="-13" xMax="624" yMax="967">
      <contour>
        <pt x="342" y="-13" on="1"/>
        <pt x="259" y="-13" on="0"/>
        <pt x="133" y="81" on="0"/>
        <pt x="62" y="251" on="0"/>
        <pt x="62" y="365" on="1"/>
        <pt x="62" y="479" on="0"/>
        <pt x="133" y="649" on="0"/>
        <pt x="259" y="743" on="0"/>
        <pt x="342" y="743" on="1"/>
        <pt x="426" y="743" on="0"/>
        <pt x="552" y="649" on="0"/>
        <pt x="624" y="479" on="0"/>
        <pt x="624" y="365" on="1"/>
        <pt x="624" y="251" on="0"/>
        <pt x="552" y="81" on="0"/>
        <pt x="426" y="-13" on="0"/>
      </contour>
      <contour>
        <pt x="342" y="129" on="1"/>
        <pt x="382" y="129" on="0"/>
        <pt x="448" y="182" on="0"/>
        <pt x="488" y="287" on="0"/>
        <pt x="488" y="365" on="1"/>
        <pt x="488" y="443" on="0"/>
        <pt x="448" y="548" on="0"/>
        <pt x="382" y="601" on="0"/>
        <pt x="342" y="601" on="1"/>
        <pt x="303" y="601" on="0"/>
        <pt x="237" y="548" on="0"/>
        <pt x="197" y="443" on="0"/>
        <pt x="197" y="365" on="1"/>
        <pt x="197" y="287" on="0"/>
        <pt x="237" y="182" on="0"/>
        <pt x="303" y="129" on="0"/>
      </contour>
      <contour>
        <pt x="300" y="799" on="1"/>
        <pt x="284" y="814" on="0"/>
        <pt x="256" y="845" on="0"/>
        <pt x="240" y="859" on="1"/>
        <pt x="232" y="870" on="0"/>
        <pt x="223" y="891" on="0"/>
        <pt x="223" y="906" on="1"/>
        <pt x="223" y="930" on="0"/>
        <pt x="252" y="967" on="0"/>
        <pt x="270" y="967" on="1"/>
        <pt x="287" y="967" on="0"/>
        <pt x="300" y="951" on="1"/>
        <pt x="402" y="799" on="1"/>
      </contour>
    </TTGlyph>
    <TTGlyph name="Ohorn" xMin="62" yMin="-13" xMax="651" yMax="810">
      <component glyphName="O" x="0" y="0" flags="0x204"/>
      <component glyphName="uni031B" x="379" y="150" flags="0x4"/>
    </TTGlyph>
    <TTGlyph name="Ohungarumlaut" xMin="62" yMin="-13" xMax="624" yMax="982">
      <contour>
        <pt x="342" y="-13" on="1"/>
        <pt x="259" y="-13" on="0"/>
        <pt x="133" y="81" on="0"/>
        <pt x="62" y="251" on="0"/>
        <pt x="62" y="365" on="1"/>
        <pt x="62" y="479" on="0"/>
        <pt x="133" y="649" on="0"/>
        <pt x="259" y="743" on="0"/>
        <pt x="342" y="743" on="1"/>
        <pt x="426" y="743" on="0"/>
        <pt x="552" y="649" on="0"/>
        <pt x="624" y="479" on="0"/>
        <pt x="624" y="365" on="1"/>
        <pt x="624" y="251" on="0"/>
        <pt x="552" y="81" on="0"/>
        <pt x="426" y="-13" on="0"/>
      </contour>
      <contour>
        <pt x="342" y="129" on="1"/>
        <pt x="382" y="129" on="0"/>
        <pt x="448" y="182" on="0"/>
        <pt x="488" y="287" on="0"/>
        <pt x="488" y="365" on="1"/>
        <pt x="488" y="443" on="0"/>
        <pt x="448" y="548" on="0"/>
        <pt x="382" y="601" on="0"/>
        <pt x="342" y="601" on="1"/>
        <pt x="303" y="601" on="0"/>
        <pt x="237" y="548" on="0"/>
        <pt x="197" y="443" on="0"/>
        <pt x="197" y="365" on="1"/>
        <pt x="197" y="287" on="0"/>
        <pt x="237" y="182" on="0"/>
        <pt x="303" y="129" on="0"/>
      </contour>
      <contour>
        <pt x="200" y="815" on="1"/>
        <pt x="288" y="961" on="1"/>
        <pt x="302" y="982" on="0"/>
        <pt x="323" y="982" on="1"/>
        <pt x="343" y="982" on="0"/>
        <pt x="369" y="947" on="0"/>
        <pt x="369" y="921" on="1"/>
        <pt x="369" y="907" on="0"/>
        <pt x="362" y="883" on="0"/>
        <pt x="354" y="875" on="1"/>
        <pt x="293" y="815" on="1"/>
      </contour>
      <contour>
        <pt x="365" y="815" on="1"/>
        <pt x="453" y="961" on="1"/>
        <pt x="467" y="982" on="0"/>
        <pt x="488" y="982" on="1"/>
        <pt x="508" y="982" on="0"/>
        <pt x="533" y="947" on="0"/>
        <pt x="533" y="921" on="1"/>
        <pt x="533" y="907" on="0"/>
        <pt x="527" y="883" on="0"/>
        <pt x="518" y="875" on="1"/>
        <pt x="457" y="815" on="1"/>
      </contour>
    </TTGlyph>
    <TTGlyph name="Omacron" xMin="62" yMin="-13" xMax="624" yMax="924">
      <component glyphName="O" x="0" y="0" flags="0x204"/>
      <component glyphName="uni0304.case" x="114" y="0" flags="0x4"/>
    </TTGlyph>
    <TTGlyph name="Omegatonos" xMin="-80" yMin="0" xMax="587" yMax="749">
      <component glyphName="uni03A9" x="0" y="0" flags="0x204"/>
      <component glyphName="tonos.case" x="-172" y="0" flags="0x4"/>
    </TTGlyph>
    <TTGlyph name="Omicron" xMin="85" yMin="-13" xMax="647" yMax="752">
      <component glyphName="O" x="23" y="0" flags="0x4"/>
    </TTGlyph>
    <TTGlyph name="Omicrontonos" xMin="-60" yMin="-13" xMax="624" yMax="752">
      <component glyphName="tonos.case" x="-152" y="0" flags="0x4"/>
      <component glyphName="O" x="0" y="0" flags="0x204"/>
    </TTGlyph>
    <TTGlyph name="Oslash" xMin="62" yMin="-13" xMax="624" yMax="751">
      <contour>
        <pt x="342" y="-13" on="1"/>
        <pt x="295" y="-13" on="0"/>
        <pt x="211" y="20" on="0"/>
        <pt x="176" y="51" on="1"/>
        <pt x="135" y="-13" on="1"/>
        <pt x="90" y="39" on="1"/>
        <pt x="131" y="105" on="1"/>
        <pt x="98" y="154" on="0"/>
        <pt x="62" y="288" on="0"/>
        <pt x="62" y="369" on="1"/>
        <pt x="62" y="485" on="0"/>
        <pt x="133" y="656" on="0"/>
        <pt x="259" y="751" on="0"/>
        <pt x="342" y="751" on="1"/>
        <pt x="388" y="751" on="0"/>
        <pt x="469" y="722" on="0"/>
        <pt x="503" y="692" on="1"/>
        <pt x="539" y="751" on="1"/>
        <pt x="585" y="698" on="1"/>
        <pt x="549" y="641" on="1"/>
        <pt x="585" y="591" on="0"/>
        <pt x="624" y="452" on="0"/>
        <pt x="624" y="369" on="1"/>
        <pt x="624" y="254" on="0"/>
        <pt x="552" y="82" on="0"/>
        <pt x="426" y="-13" on="0"/>
      </contour>
      <contour>
        <pt x="217" y="240" on="1"/>
        <pt x="426" y="571" on="1"/>
        <pt x="390" y="607" on="0"/>
        <pt x="342" y="607" on="1"/>
        <pt x="303" y="607" on="0"/>
        <pt x="237" y="553" on="0"/>
        <pt x="197" y="448" on="0"/>
        <pt x="197" y="369" on="1"/>
        <pt x="197" y="332" on="0"/>
        <pt x="208" y="266" on="0"/>
      </contour>
      <contour>
        <pt x="342" y="131" on="1"/>
        <pt x="382" y="131" on="0"/>
        <pt x="448" y="184" on="0"/>
        <pt x="488" y="290" on="0"/>
        <pt x="488" y="369" on="1"/>
        <pt x="488" y="451" on="0"/>
        <pt x="465" y="508" on="1"/>
        <pt x="254" y="174" on="1"/>
        <pt x="273" y="153" on="0"/>
        <pt x="317" y="131" on="0"/>
      </contour>
    </TTGlyph>
    <TTGlyph name="Oslashacute" xMin="62" yMin="-13" xMax="624" yMax="950">
      <component glyphName="Oslash" x="0" y="0" flags="0x204"/>
      <component glyphName="acutecomb.case" x="194" y="0" flags="0x4"/>
    </TTGlyph>
    <TTGlyph name="Otilde" xMin="62" yMin="-13" xMax="624" yMax="928">
      <contour>
        <pt x="342" y="-13" on="1"/>
        <pt x="259" y="-13" on="0"/>
        <pt x="133" y="81" on="0"/>
        <pt x="62" y="251" on="0"/>
        <pt x="62" y="365" on="1"/>
        <pt x="62" y="479" on="0"/>
        <pt x="133" y="649" on="0"/>
        <pt x="259" y="743" on="0"/>
        <pt x="342" y="743" on="1"/>
        <pt x="426" y="743" on="0"/>
        <pt x="552" y="649" on="0"/>
        <pt x="624" y="479" on="0"/>
        <pt x="624" y="365" on="1"/>
        <pt x="624" y="251" on="0"/>
        <pt x="552" y="81" on="0"/>
        <pt x="426" y="-13" on="0"/>
      </contour>
      <contour>
        <pt x="342" y="129" on="1"/>
        <pt x="382" y="129" on="0"/>
        <pt x="448" y="182" on="0"/>
        <pt x="488" y="287" on="0"/>
        <pt x="488" y="365" on="1"/>
        <pt x="488" y="443" on="0"/>
        <pt x="448" y="548" on="0"/>
        <pt x="382" y="601" on="0"/>
        <pt x="342" y="601" on="1"/>
        <pt x="303" y="601" on="0"/>
        <pt x="237" y="548" on="0"/>
        <pt x="197" y="443" on="0"/>
        <pt x="197" y="365" on="1"/>
        <pt x="197" y="287" on="0"/>
        <pt x="237" y="182" on="0"/>
        <pt x="303" y="129" on="0"/>
      </contour>
      <contour>
        <pt x="402" y="797" on="1"/>
        <pt x="370" y="797" on="0"/>
        <pt x="345" y="814" on="1"/>
        <pt x="329" y="825" on="0"/>
        <pt x="312" y="838" on="0"/>
        <pt x="300" y="838" on="1"/>
        <pt x="287" y="838" on="0"/>
        <pt x="267" y="820" on="0"/>
        <pt x="265" y="802" on="1"/>
        <pt x="193" y="802" on="1"/>
        <pt x="200" y="862" on="0"/>
        <pt x="252" y="928" on="0"/>
        <pt x="295" y="928" on="1"/>
        <pt x="320" y="928" on="0"/>
        <pt x="351" y="906" on="0"/>
        <pt x="379" y="883" on="0"/>
        <pt x="394" y="883" on="1"/>
        <pt x="406" y="883" on="0"/>
        <pt x="422" y="895" on="0"/>
        <pt x="430" y="906" on="1"/>
        <pt x="445" y="928" on="0"/>
        <pt x="459" y="928" on="1"/>
        <pt x="474" y="928" on="0"/>
        <pt x="493" y="903" on="0"/>
        <pt x="493" y="884" on="1"/>
        <pt x="493" y="863" on="0"/>
        <pt x="466" y="823" on="0"/>
        <pt x="425" y="797" on="0"/>
      </contour>
    </TTGlyph>
    <TTGlyph name="P" xMin="62" yMin="0" xMax="624" yMax="739">
      <contour>
        <pt x="62" y="0" on="1"/>
        <pt x="62" y="739" on="1"/>
        <pt x="320" y="739" on="1"/>
        <pt x="407" y="739" on="0"/>
        <pt x="545" y="699" on="0"/>
        <pt x="624" y="595" on="0"/>
        <pt x="624" y="498" on="1"/>
        <pt x="624" y="402" on="0"/>
        <pt x="545" y="297" on="0"/>
        <pt x="407" y="257" on="0"/>
        <pt x="320" y="257" on="1"/>
        <pt x="220" y="257" on="1"/>
        <pt x="220" y="0" on="1"/>
      </contour>
      <contour>
        <pt x="220" y="402" on="1"/>
        <pt x="325" y="402" on="1"/>
        <pt x="362" y="402" on="0"/>
        <pt x="422" y="417" on="0"/>
        <pt x="456" y="459" on="0"/>
        <pt x="456" y="498" on="1"/>
        <pt x="456" y="536" on="0"/>
        <pt x="422" y="577" on="0"/>
        <pt x="362" y="592" on="0"/>
        <pt x="325" y="592" on="1"/>
        <pt x="220" y="592" on="1"/>
      </contour>
    </TTGlyph>
    <TTGlyph name="Phi" xMin="78" yMin="-25" xMax="624" yMax="779">
      <component glyphName="uni0424" x="16" y="0" flags="0x4"/>
    </TTGlyph>
    <TTGlyph name="Pi" xMin="41" yMin="0" xMax="507" yMax="739">
      <component glyphName="uni041F" x="-17" y="0" flags="0x4"/>
    </TTGlyph>
    <TTGlyph name="Psi" xMin="62" yMin="0" xMax="608" yMax="739">
      <contour>
        <pt x="279" y="0" on="1"/>
        <pt x="279" y="172" on="1"/>
        <pt x="214" y="173" on="0"/>
        <pt x="116" y="228" on="0"/>
        <pt x="62" y="325" on="0"/>
        <pt x="62" y="389" on="1"/>
        <pt x="62" y="739" on="1"/>
        <pt x="176" y="739" on="1"/>
        <pt x="176" y="389" on="1"/>
        <pt x="176" y="336" on="0"/>
        <pt x="234" y="272" on="0"/>
        <pt x="284" y="272" on="1"/>
        <pt x="284" y="739" on="1"/>
        <pt x="386" y="739" on="1"/>
        <pt x="386" y="272" on="1"/>
        <pt x="436" y="272" on="0"/>
        <pt x="494" y="336" on="0"/>
        <pt x="494" y="389" on="1"/>
        <pt x="494" y="739" on="1"/>
        <pt x="608" y="739" on="1"/>
        <pt x="608" y="389" on="1"/>
        <pt x="608" y="325" on="0"/>
        <pt x="554" y="228" on="0"/>
        <pt x="456" y="173" on="0"/>
        <pt x="391" y="172" on="1"/>
        <pt x="391" y="0" on="1"/>
      </contour>
    </TTGlyph>
    <TTGlyph name="Q" xMin="62" yMin="-61" xMax="624" yMax="752">
      <contour>
        <pt x="561" y="-61" on="1"/>
        <pt x="480" y="53" on="1"/>
        <pt x="414" y="-13" on="0"/>
        <pt x="323" y="-13" on="1"/>
        <pt x="245" y="-13" on="0"/>
        <pt x="128" y="82" on="0"/>
        <pt x="62" y="254" on="0"/>
        <pt x="62" y="369" on="1"/>
        <pt x="62" y="485" on="0"/>
        <pt x="128" y="657" on="0"/>
        <pt x="245" y="752" on="0"/>
        <pt x="323" y="752" on="1"/>
        <pt x="401" y="752" on="0"/>
        <pt x="518" y="657" on="0"/>
        <pt x="586" y="485" on="0"/>
        <pt x="586" y="369" on="1"/>
        <pt x="586" y="306" on="0"/>
        <pt x="564" y="194" on="0"/>
        <pt x="544" y="150" on="1"/>
        <pt x="624" y="37" on="1"/>
      </contour>
      <contour>
        <pt x="323" y="131" on="1"/>
        <pt x="366" y="131" on="0"/>
        <pt x="398" y="165" on="1"/>
        <pt x="291" y="315" on="1"/>
        <pt x="352" y="412" on="1"/>
        <pt x="450" y="277" on="1"/>
        <pt x="454" y="299" on="0"/>
        <pt x="459" y="344" on="0"/>
        <pt x="459" y="369" on="1"/>
        <pt x="459" y="448" on="0"/>
        <pt x="422" y="555" on="0"/>
        <pt x="360" y="608" on="0"/>
        <pt x="323" y="608" on="1"/>
        <pt x="286" y="608" on="0"/>
        <pt x="224" y="555" on="0"/>
        <pt x="188" y="448" on="0"/>
        <pt x="188" y="369" on="1"/>
        <pt x="188" y="290" on="0"/>
        <pt x="224" y="184" on="0"/>
        <pt x="286" y="131" on="0"/>
      </contour>
    </TTGlyph>
    <TTGlyph name="R" xMin="62" yMin="0" xMax="624" yMax="739">
      <contour>
        <pt x="62" y="0" on="1"/>
        <pt x="62" y="739" on="1"/>
        <pt x="305" y="739" on="1"/>
        <pt x="388" y="739" on="0"/>
        <pt x="518" y="701" on="0"/>
        <pt x="593" y="601" on="0"/>
        <pt x="593" y="510" on="1"/>
        <pt x="593" y="468" on="0"/>
        <pt x="567" y="385" on="0"/>
        <pt x="501" y="317" on="0"/>
        <pt x="441" y="298" on="1"/>
        <pt x="624" y="0" on="1"/>
        <pt x="451" y="0" on="1"/>
        <pt x="279" y="278" on="1"/>
        <pt x="212" y="278" on="1"/>
        <pt x="212" y="0" on="1"/>
      </contour>
      <contour>
        <pt x="212" y="425" on="1"/>
        <pt x="310" y="425" on="1"/>
        <pt x="363" y="425" on="0"/>
        <pt x="434" y="456" on="0"/>
        <pt x="434" y="508" on="1"/>
        <pt x="434" y="560" on="0"/>
        <pt x="363" y="592" on="0"/>
        <pt x="310" y="592" on="1"/>
        <pt x="212" y="592" on="1"/>
      </contour>
    </TTGlyph>
    <TTGlyph name="Racute" xMin="62" yMin="0" xMax="624" yMax="967">
      <contour>
        <pt x="62" y="0" on="1"/>
        <pt x="62" y="730" on="1"/>
        <pt x="305" y="730" on="1"/>
        <pt x="388" y="730" on="0"/>
        <pt x="518" y="693" on="0"/>
        <pt x="593" y="594" on="0"/>
        <pt x="593" y="504" on="1"/>
        <pt x="593" y="462" on="0"/>
        <pt x="567" y="380" on="0"/>
        <pt x="501" y="313" on="0"/>
        <pt x="441" y="294" on="1"/>
        <pt x="624" y="0" on="1"/>
        <pt x="451" y="0" on="1"/>
        <pt x="279" y="275" on="1"/>
        <pt x="212" y="275" on="1"/>
        <pt x="212" y="0" on="1"/>
      </contour>
      <contour>
        <pt x="212" y="420" on="1"/>
        <pt x="310" y="420" on="1"/>
        <pt x="363" y="420" on="0"/>
        <pt x="434" y="451" on="0"/>
        <pt x="434" y="502" on="1"/>
        <pt x="434" y="553" on="0"/>
        <pt x="363" y="585" on="0"/>
        <pt x="310" y="585" on="1"/>
        <pt x="212" y="585" on="1"/>
      </contour>
      <contour>
        <pt x="244" y="799" on="1"/>
        <pt x="274" y="836" on="0"/>
        <pt x="329" y="908" on="0"/>
        <pt x="358" y="945" on="1"/>
        <pt x="377" y="967" on="0"/>
        <pt x="399" y="967" on="1"/>
        <pt x="421" y="967" on="0"/>
        <pt x="451" y="931" on="0"/>
        <pt x="451" y="906" on="1"/>
        <pt x="451" y="892" on="0"/>
        <pt x="442" y="869" on="0"/>
        <pt x="433" y="859" on="1"/>
        <pt x="415" y="845" on="0"/>
        <pt x="382" y="814" on="0"/>
        <pt x="363" y="799" on="1"/>
      </contour>
    </TTGlyph>
    <TTGlyph name="Rcaron" xMin="62" yMin="0" xMax="624" yMax="958">
      <contour>
        <pt x="62" y="0" on="1"/>
        <pt x="62" y="730" on="1"/>
        <pt x="305" y="730" on="1"/>
        <pt x="388" y="730" on="0"/>
        <pt x="518" y="693" on="0"/>
        <pt x="593" y="594" on="0"/>
        <pt x="593" y="504" on="1"/>
        <pt x="593" y="462" on="0"/>
        <pt x="567" y="380" on="0"/>
        <pt x="501" y="313" on="0"/>
        <pt x="441" y="294" on="1"/>
        <pt x="624" y="0" on="1"/>
        <pt x="451" y="0" on="1"/>
        <pt x="279" y="275" on="1"/>
        <pt x="212" y="275" on="1"/>
        <pt x="212" y="0" on="1"/>
      </contour>
      <contour>
        <pt x="212" y="420" on="1"/>
        <pt x="310" y="420" on="1"/>
        <pt x="363" y="420" on="0"/>
        <pt x="434" y="451" on="0"/>
        <pt x="434" y="502" on="1"/>
        <pt x="434" y="553" on="0"/>
        <pt x="363" y="585" on="0"/>
        <pt x="310" y="585" on="1"/>
        <pt x="212" y="585" on="1"/>
      </contour>
      <contour>
        <pt x="312" y="792" on="1"/>
        <pt x="284" y="792" on="0"/>
        <pt x="264" y="813" on="1"/>
        <pt x="125" y="958" on="1"/>
        <pt x="246" y="958" on="1"/>
        <pt x="312" y="892" on="1"/>
        <pt x="376" y="958" on="1"/>
        <pt x="497" y="958" on="1"/>
        <pt x="359" y="813" on="1"/>
        <pt x="338" y="792" on="0"/>
      </contour>
    </TTGlyph>
    <TTGlyph name="Rho" xMin="85" yMin="0" xMax="647" yMax="739">
      <component glyphName="P" x="23" y="0" flags="0x4"/>
    </TTGlyph>
    <TTGlyph name="S" xMin="62" yMin="-13" xMax="624" yMax="752">
      <contour>
        <pt x="346" y="-13" on="1"/>
        <pt x="239" y="-13" on="0"/>
        <pt x="92" y="85" on="0"/>
        <pt x="62" y="174" on="1"/>
        <pt x="203" y="231" on="1"/>
        <pt x="217" y="178" on="0"/>
        <pt x="294" y="128" on="0"/>
        <pt x="347" y="128" on="1"/>
        <pt x="376" y="128" on="0"/>
        <pt x="429" y="142" on="0"/>
        <pt x="465" y="176" on="0"/>
        <pt x="465" y="204" on="1"/>
        <pt x="465" y="243" on="0"/>
        <pt x="398" y="286" on="0"/>
        <pt x="344" y="298" on="1"/>
        <pt x="264" y="315" on="1"/>
        <pt x="212" y="327" on="0"/>
        <pt x="119" y="377" on="0"/>
        <pt x="65" y="460" on="0"/>
        <pt x="65" y="523" on="1"/>
        <pt x="65" y="583" on="0"/>
        <pt x="114" y="669" on="0"/>
        <pt x="196" y="725" on="0"/>
        <pt x="295" y="752" on="0"/>
        <pt x="343" y="752" on="1"/>
        <pt x="397" y="752" on="0"/>
        <pt x="496" y="719" on="0"/>
        <pt x="575" y="649" on="0"/>
        <pt x="596" y="592" on="1"/>
        <pt x="455" y="534" on="1"/>
        <pt x="442" y="572" on="0"/>
        <pt x="376" y="611" on="0"/>
        <pt x="329" y="611" on="1"/>
        <pt x="284" y="611" on="0"/>
        <pt x="224" y="575" on="0"/>
        <pt x="224" y="540" on="1"/>
        <pt x="224" y="513" on="0"/>
        <pt x="265" y="474" on="0"/>
        <pt x="299" y="466" on="1"/>
        <pt x="388" y="445" on="1"/>
        <pt x="428" y="437" on="0"/>
        <pt x="511" y="409" on="0"/>
        <pt x="581" y="364" on="0"/>
        <pt x="624" y="288" on="0"/>
        <pt x="624" y="231" on="1"/>
        <pt x="624" y="172" on="0"/>
        <pt x="576" y="81" on="0"/>
        <pt x="496" y="19" on="0"/>
        <pt x="398" y="-13" on="0"/>
      </contour>
    </TTGlyph>
    <TTGlyph name="Sacute" xMin="62" yMin="-13" xMax="624" yMax="967">
      <contour>
        <pt x="346" y="-13" on="1"/>
        <pt x="239" y="-13" on="0"/>
        <pt x="92" y="84" on="0"/>
        <pt x="62" y="172" on="1"/>
        <pt x="203" y="228" on="1"/>
        <pt x="217" y="176" on="0"/>
        <pt x="294" y="126" on="0"/>
        <pt x="347" y="126" on="1"/>
        <pt x="376" y="126" on="0"/>
        <pt x="429" y="140" on="0"/>
        <pt x="465" y="174" on="0"/>
        <pt x="465" y="202" on="1"/>
        <pt x="465" y="240" on="0"/>
        <pt x="398" y="283" on="0"/>
        <pt x="344" y="294" on="1"/>
        <pt x="264" y="311" on="1"/>
        <pt x="212" y="323" on="0"/>
        <pt x="119" y="373" on="0"/>
        <pt x="65" y="455" on="0"/>
        <pt x="65" y="517" on="1"/>
        <pt x="65" y="576" on="0"/>
        <pt x="114" y="661" on="0"/>
        <pt x="196" y="716" on="0"/>
        <pt x="295" y="743" on="0"/>
        <pt x="343" y="743" on="1"/>
        <pt x="397" y="743" on="0"/>
        <pt x="496" y="710" on="0"/>
        <pt x="575" y="641" on="0"/>
        <pt x="596" y="585" on="1"/>
        <pt x="455" y="528" on="1"/>
        <pt x="442" y="565" on="0"/>
        <pt x="376" y="604" on="0"/>
        <pt x="329" y="604" on="1"/>
        <pt x="284" y="604" on="0"/>
        <pt x="224" y="568" on="0"/>
        <pt x="224" y="534" on="1"/>
        <pt x="224" y="507" on="0"/>
        <pt x="265" y="468" on="0"/>
        <pt x="299" y="460" on="1"/>
        <pt x="388" y="440" on="1"/>
        <pt x="428" y="432" on="0"/>
        <pt x="511" y="404" on="0"/>
        <pt x="581" y="360" on="0"/>
        <pt x="624" y="285" on="0"/>
        <pt x="624" y="228" on="1"/>
        <pt x="624" y="170" on="0"/>
        <pt x="576" y="80" on="0"/>
        <pt x="496" y="19" on="0"/>
        <pt x="398" y="-13" on="0"/>
      </contour>
      <contour>
        <pt x="267" y="799" on="1"/>
        <pt x="297" y="836" on="0"/>
        <pt x="356" y="908" on="0"/>
        <pt x="385" y="945" on="1"/>
        <pt x="405" y="967" on="0"/>
        <pt x="427" y="967" on="1"/>
        <pt x="450" y="967" on="0"/>
        <pt x="483" y="931" on="0"/>
        <pt x="483" y="906" on="1"/>
        <pt x="483" y="892" on="0"/>
        <pt x="472" y="869" on="0"/>
        <pt x="464" y="859" on="1"/>
        <pt x="445" y="845" on="0"/>
        <pt x="409" y="814" on="0"/>
        <pt x="391" y="799" on="1"/>
      </contour>
    </TTGlyph>
    <TTGlyph name="Scaron" xMin="62" yMin="-13" xMax="624" yMax="958">
      <contour>
        <pt x="346" y="-13" on="1"/>
        <pt x="239" y="-13" on="0"/>
        <pt x="92" y="84" on="0"/>
        <pt x="62" y="172" on="1"/>
        <pt x="203" y="228" on="1"/>
        <pt x="217" y="176" on="0"/>
        <pt x="294" y="126" on="0"/>
        <pt x="347" y="126" on="1"/>
        <pt x="376" y="126" on="0"/>
        <pt x="429" y="140" on="0"/>
        <pt x="465" y="174" on="0"/>
        <pt x="465" y="202" on="1"/>
        <pt x="465" y="240" on="0"/>
        <pt x="398" y="283" on="0"/>
        <pt x="344" y="294" on="1"/>
        <pt x="264" y="311" on="1"/>
        <pt x="212" y="323" on="0"/>
        <pt x="119" y="373" on="0"/>
        <pt x="65" y="455" on="0"/>
        <pt x="65" y="517" on="1"/>
        <pt x="65" y="576" on="0"/>
        <pt x="114" y="661" on="0"/>
        <pt x="196" y="716" on="0"/>
        <pt x="295" y="743" on="0"/>
        <pt x="343" y="743" on="1"/>
        <pt x="397" y="743" on="0"/>
        <pt x="496" y="710" on="0"/>
        <pt x="575" y="641" on="0"/>
        <pt x="596" y="585" on="1"/>
        <pt x="455" y="528" on="1"/>
        <pt x="442" y="565" on="0"/>
        <pt x="376" y="604" on="0"/>
        <pt x="329" y="604" on="1"/>
        <pt x="284" y="604" on="0"/>
        <pt x="224" y="568" on="0"/>
        <pt x="224" y="534" on="1"/>
        <pt x="224" y="507" on="0"/>
        <pt x="265" y="468" on="0"/>
        <pt x="299" y="460" on="1"/>
        <pt x="388" y="440" on="1"/>
        <pt x="428" y="432" on="0"/>
        <pt x="511" y="404" on="0"/>
        <pt x="581" y="360" on="0"/>
        <pt x="624" y="285" on="0"/>
        <pt x="624" y="228" on="1"/>
        <pt x="624" y="170" on="0"/>
        <pt x="576" y="80" on="0"/>
        <pt x="496" y="19" on="0"/>
        <pt x="398" y="-13" on="0"/>
      </contour>
      <contour>
        <pt x="337" y="792" on="1"/>
        <pt x="308" y="792" on="0"/>
        <pt x="287" y="813" on="1"/>
        <pt x="142" y="958" on="1"/>
        <pt x="270" y="958" on="1"/>
        <pt x="337" y="892" on="1"/>
        <pt x="404" y="958" on="1"/>
        <pt x="530" y="958" on="1"/>
        <pt x="386" y="813" on="1"/>
        <pt x="364" y="792" on="0"/>
      </contour>
    </TTGlyph>
    <TTGlyph name="Scedilla" xMin="62" yMin="-206" xMax="624" yMax="752">
      <contour>
        <pt x="346" y="-13" on="1"/>
        <pt x="239" y="-13" on="0"/>
        <pt x="92" y="85" on="0"/>
        <pt x="62" y="174" on="1"/>
        <pt x="203" y="231" on="1"/>
        <pt x="217" y="178" on="0"/>
        <pt x="294" y="128" on="0"/>
        <pt x="347" y="128" on="1"/>
        <pt x="376" y="128" on="0"/>
        <pt x="429" y="142" on="0"/>
        <pt x="465" y="176" on="0"/>
        <pt x="465" y="204" on="1"/>
        <pt x="465" y="243" on="0"/>
        <pt x="398" y="286" on="0"/>
        <pt x="344" y="298" on="1"/>
        <pt x="264" y="315" on="1"/>
        <pt x="212" y="327" on="0"/>
        <pt x="119" y="377" on="0"/>
        <pt x="65" y="460" on="0"/>
        <pt x="65" y="523" on="1"/>
        <pt x="65" y="583" on="0"/>
        <pt x="114" y="669" on="0"/>
        <pt x="196" y="725" on="0"/>
        <pt x="295" y="752" on="0"/>
        <pt x="343" y="752" on="1"/>
        <pt x="397" y="752" on="0"/>
        <pt x="496" y="719" on="0"/>
        <pt x="575" y="649" on="0"/>
        <pt x="596" y="592" on="1"/>
        <pt x="455" y="534" on="1"/>
        <pt x="442" y="572" on="0"/>
        <pt x="376" y="611" on="0"/>
        <pt x="329" y="611" on="1"/>
        <pt x="284" y="611" on="0"/>
        <pt x="224" y="575" on="0"/>
        <pt x="224" y="540" on="1"/>
        <pt x="224" y="513" on="0"/>
        <pt x="265" y="474" on="0"/>
        <pt x="299" y="466" on="1"/>
        <pt x="388" y="445" on="1"/>
        <pt x="428" y="437" on="0"/>
        <pt x="511" y="409" on="0"/>
        <pt x="581" y="364" on="0"/>
        <pt x="624" y="288" on="0"/>
        <pt x="624" y="231" on="1"/>
        <pt x="624" y="172" on="0"/>
        <pt x="576" y="81" on="0"/>
        <pt x="496" y="19" on="0"/>
        <pt x="398" y="-13" on="0"/>
      </contour>
      <contour>
        <pt x="342" y="-206" on="1"/>
        <pt x="318" y="-206" on="0"/>
        <pt x="274" y="-199" on="0"/>
        <pt x="255" y="-192" on="1"/>
        <pt x="271" y="-138" on="1"/>
        <pt x="279" y="-142" on="0"/>
        <pt x="313" y="-152" on="0"/>
        <pt x="330" y="-152" on="1"/>
        <pt x="348" y="-152" on="0"/>
        <pt x="375" y="-139" on="0"/>
        <pt x="375" y="-121" on="1"/>
        <pt x="375" y="-108" on="0"/>
        <pt x="355" y="-93" on="0"/>
        <pt x="338" y="-93" on="1"/>
        <pt x="326" y="-93" on="0"/>
        <pt x="310" y="-98" on="1"/>
        <pt x="302" y="-102" on="0"/>
        <pt x="295" y="-96" on="1"/>
        <pt x="287" y="-92" on="0"/>
        <pt x="282" y="-73" on="0"/>
        <pt x="286" y="-65" on="1"/>
        <pt x="338" y="27" on="1"/>
        <pt x="378" y="0" on="1"/>
        <pt x="348" y="-53" on="1"/>
        <pt x="362" y="-50" on="0"/>
        <pt x="382" y="-50" on="1"/>
        <pt x="401" y="-50" on="0"/>
        <pt x="440" y="-63" on="0"/>
        <pt x="467" y="-93" on="0"/>
        <pt x="467" y="-118" on="1"/>
        <pt x="467" y="-151" on="0"/>
        <pt x="430" y="-189" on="0"/>
        <pt x="373" y="-206" on="0"/>
      </contour>
    </TTGlyph>
    <TTGlyph name="Scircumflex" xMin="62" yMin="-13" xMax="624" yMax="950">
      <component glyphName="S" x="0" y="0" flags="0x204"/>
      <component glyphName="uni0302.case" x="88" y="0" flags="0x4"/>
    </TTGlyph>
    <TTGlyph name="Sigma" xMin="60" yMin="0" xMax="566" yMax="739">
      <contour>
        <pt x="60" y="0" on="1"/>
        <pt x="60" y="110" on="1"/>
        <pt x="276" y="376" on="1"/>
        <pt x="60" y="628" on="1"/>
        <pt x="60" y="739" on="1"/>
        <pt x="566" y="739" on="1"/>
        <pt x="566" y="625" on="1"/>
        <pt x="219" y="625" on="1"/>
        <pt x="433" y="380" on="1"/>
        <pt x="219" y="113" on="1"/>
        <pt x="566" y="113" on="1"/>
        <pt x="566" y="0" on="1"/>
      </contour>
    </TTGlyph>
    <TTGlyph name="T" xMin="62" yMin="0" xMax="624" yMax="739">
      <contour>
        <pt x="267" y="0" on="1"/>
        <pt x="267" y="585" on="1"/>
        <pt x="62" y="585" on="1"/>
        <pt x="62" y="739" on="1"/>
        <pt x="624" y="739" on="1"/>
        <pt x="624" y="585" on="1"/>
        <pt x="419" y="585" on="1"/>
        <pt x="419" y="0" on="1"/>
      </contour>
    </TTGlyph>
    <TTGlyph name="Tau" xMin="85" yMin="0" xMax="647" yMax="739">
      <component glyphName="T" x="23" y="0" flags="0x4"/>
    </TTGlyph>
    <TTGlyph name="Tbar" xMin="61" yMin="0" xMax="595" yMax="739">
      <contour>
        <pt x="262" y="0" on="1"/>
        <pt x="262" y="280" on="1"/>
        <pt x="122" y="280" on="1"/>
        <pt x="122" y="387" on="1"/>
        <pt x="262" y="387" on="1"/>
        <pt x="262" y="624" on="1"/>
        <pt x="61" y="624" on="1"/>
        <pt x="61" y="739" on="1"/>
        <pt x="595" y="739" on="1"/>
        <pt x="595" y="624" on="1"/>
        <pt x="394" y="624" on="1"/>
        <pt x="394" y="387" on="1"/>
        <pt x="534" y="387" on="1"/>
        <pt x="534" y="280" on="1"/>
        <pt x="394" y="280" on="1"/>
        <pt x="394" y="0" on="1"/>
      </contour>
    </TTGlyph>
    <TTGlyph name="Tcaron" xMin="62" yMin="0" xMax="624" yMax="958">
      <contour>
        <pt x="267" y="0" on="1"/>
        <pt x="267" y="578" on="1"/>
        <pt x="62" y="578" on="1"/>
        <pt x="62" y="730" on="1"/>
        <pt x="624" y="730" on="1"/>
        <pt x="624" y="578" on="1"/>
        <pt x="419" y="578" on="1"/>
        <pt x="419" y="0" on="1"/>
      </contour>
      <contour>
        <pt x="343" y="792" on="1"/>
        <pt x="316" y="792" on="0"/>
        <pt x="296" y="813" on="1"/>
        <pt x="155" y="958" on="1"/>
        <pt x="278" y="958" on="1"/>
        <pt x="343" y="892" on="1"/>
        <pt x="409" y="958" on="1"/>
        <pt x="531" y="958" on="1"/>
        <pt x="391" y="813" on="1"/>
        <pt x="370" y="792" on="0"/>
      </contour>
    </TTGlyph>
    <TTGlyph name="Theta" xMin="58" yMin="-10" xMax="536" yMax="749">
      <contour>
        <pt x="297" y="-10" on="1"/>
        <pt x="187" y="-10" on="0"/>
        <pt x="58" y="108" on="0"/>
        <pt x="58" y="208" on="1"/>
        <pt x="58" y="530" on="1"/>
        <pt x="58" y="630" on="0"/>
        <pt x="187" y="749" on="0"/>
        <pt x="297" y="749" on="1"/>
        <pt x="407" y="749" on="0"/>
        <pt x="536" y="630" on="0"/>
        <pt x="536" y="531" on="1"/>
        <pt x="536" y="208" on="1"/>
        <pt x="536" y="108" on="0"/>
        <pt x="407" y="-10" on="0"/>
      </contour>
      <contour>
        <pt x="297" y="101" on="1"/>
        <pt x="351" y="101" on="0"/>
        <pt x="405" y="157" on="0"/>
        <pt x="405" y="208" on="1"/>
        <pt x="405" y="530" on="1"/>
        <pt x="405" y="582" on="0"/>
        <pt x="351" y="638" on="0"/>
        <pt x="297" y="638" on="1"/>
        <pt x="243" y="638" on="0"/>
        <pt x="189" y="582" on="0"/>
        <pt x="189" y="530" on="1"/>
        <pt x="189" y="208" on="1"/>
        <pt x="189" y="157" on="0"/>
        <pt x="243" y="101" on="0"/>
      </contour>
      <contour>
        <pt x="220" y="317" on="1"/>
        <pt x="220" y="434" on="1"/>
        <pt x="373" y="434" on="1"/>
        <pt x="373" y="317" on="1"/>
      </contour>
    </TTGlyph>
    <TTGlyph name="Thorn" xMin="62" yMin="0" xMax="624" yMax="738">
      <contour>
        <pt x="62" y="0" on="1"/>
        <pt x="62" y="738" on="1"/>
        <pt x="224" y="738" on="1"/>
        <pt x="224" y="621" on="1"/>
        <pt x="315" y="621" on="1"/>
        <pt x="403" y="621" on="0"/>
        <pt x="544" y="582" on="0"/>
        <pt x="624" y="477" on="0"/>
        <pt x="624" y="380" on="1"/>
        <pt x="624" y="284" on="0"/>
        <pt x="544" y="180" on="0"/>
        <pt x="403" y="142" on="0"/>
        <pt x="315" y="142" on="1"/>
        <pt x="224" y="142" on="1"/>
        <pt x="224" y="0" on="1"/>
      </contour>
      <contour>
        <pt x="224" y="298" on="1"/>
        <pt x="320" y="298" on="1"/>
        <pt x="357" y="298" on="0"/>
        <pt x="418" y="309" on="0"/>
        <pt x="453" y="345" on="0"/>
        <pt x="453" y="383" on="1"/>
        <pt x="453" y="422" on="0"/>
        <pt x="418" y="459" on="0"/>
        <pt x="357" y="470" on="0"/>
        <pt x="320" y="470" on="1"/>
        <pt x="224" y="470" on="1"/>
      </contour>
    </TTGlyph>
    <TTGlyph name="U" xMin="62" yMin="-13" xMax="624" yMax="739">
      <contour>
        <pt x="343" y="-13" on="1"/>
        <pt x="190" y="-13" on="0"/>
        <pt x="62" y="153" on="0"/>
        <pt x="62" y="323" on="1"/>
        <pt x="62" y="739" on="1"/>
        <pt x="216" y="739" on="1"/>
        <pt x="216" y="309" on="1"/>
        <pt x="216" y="254" on="0"/>
        <pt x="235" y="174" on="0"/>
        <pt x="289" y="130" on="0"/>
        <pt x="343" y="130" on="1"/>
        <pt x="398" y="130" on="0"/>
        <pt x="451" y="174" on="0"/>
        <pt x="470" y="254" on="0"/>
        <pt x="470" y="309" on="1"/>
        <pt x="470" y="739" on="1"/>
        <pt x="624" y="739" on="1"/>
        <pt x="624" y="323" on="1"/>
        <pt x="624" y="153" on="0"/>
        <pt x="495" y="-13" on="0"/>
      </contour>
    </TTGlyph>
    <TTGlyph name="Uacute" xMin="62" yMin="-13" xMax="624" yMax="967">
      <contour>
        <pt x="343" y="-13" on="1"/>
        <pt x="190" y="-13" on="0"/>
        <pt x="62" y="151" on="0"/>
        <pt x="62" y="319" on="1"/>
        <pt x="62" y="730" on="1"/>
        <pt x="216" y="730" on="1"/>
        <pt x="216" y="305" on="1"/>
        <pt x="216" y="251" on="0"/>
        <pt x="235" y="172" on="0"/>
        <pt x="289" y="128" on="0"/>
        <pt x="343" y="128" on="1"/>
        <pt x="398" y="128" on="0"/>
        <pt x="451" y="172" on="0"/>
        <pt x="470" y="251" on="0"/>
        <pt x="470" y="305" on="1"/>
        <pt x="470" y="730" on="1"/>
        <pt x="624" y="730" on="1"/>
        <pt x="624" y="319" on="1"/>
        <pt x="624" y="151" on="0"/>
        <pt x="495" y="-13" on="0"/>
      </contour>
      <contour>
        <pt x="275" y="799" on="1"/>
        <pt x="304" y="836" on="0"/>
        <pt x="362" y="908" on="0"/>
        <pt x="391" y="945" on="1"/>
        <pt x="411" y="967" on="0"/>
        <pt x="433" y="967" on="1"/>
        <pt x="456" y="967" on="0"/>
        <pt x="488" y="931" on="0"/>
        <pt x="488" y="906" on="1"/>
        <pt x="488" y="892" on="0"/>
        <pt x="478" y="869" on="0"/>
        <pt x="470" y="859" on="1"/>
        <pt x="451" y="845" on="0"/>
        <pt x="415" y="814" on="0"/>
        <pt x="398" y="799" on="1"/>
      </contour>
    </TTGlyph>
    <TTGlyph name="Ubreve" xMin="62" yMin="-13" xMax="624" yMax="950">
      <component glyphName="U" x="0" y="0" flags="0x204"/>
      <component glyphName="uni0306.case" x="111" y="0" flags="0x4"/>
    </TTGlyph>
    <TTGlyph name="Ucircumflex" xMin="62" yMin="-13" xMax="624" yMax="965">
      <contour>
        <pt x="343" y="-13" on="1"/>
        <pt x="190" y="-13" on="0"/>
        <pt x="62" y="151" on="0"/>
        <pt x="62" y="319" on="1"/>
        <pt x="62" y="730" on="1"/>
        <pt x="216" y="730" on="1"/>
        <pt x="216" y="305" on="1"/>
        <pt x="216" y="251" on="0"/>
        <pt x="235" y="172" on="0"/>
        <pt x="289" y="128" on="0"/>
        <pt x="343" y="128" on="1"/>
        <pt x="398" y="128" on="0"/>
        <pt x="451" y="172" on="0"/>
        <pt x="470" y="251" on="0"/>
        <pt x="470" y="305" on="1"/>
        <pt x="470" y="730" on="1"/>
        <pt x="624" y="730" on="1"/>
        <pt x="624" y="319" on="1"/>
        <pt x="624" y="151" on="0"/>
        <pt x="495" y="-13" on="0"/>
      </contour>
      <contour>
        <pt x="151" y="799" on="1"/>
        <pt x="295" y="944" on="1"/>
        <pt x="304" y="953" on="0"/>
        <pt x="328" y="965" on="0"/>
        <pt x="343" y="965" on="1"/>
        <pt x="370" y="965" on="0"/>
        <pt x="390" y="944" on="1"/>
        <pt x="535" y="799" on="1"/>
        <pt x="409" y="799" on="1"/>
        <pt x="343" y="866" on="1"/>
        <pt x="277" y="799" on="1"/>
      </contour>
    </TTGlyph>
    <TTGlyph name="Udieresis" xMin="62" yMin="-13" xMax="624" yMax="947">
      <contour>
        <pt x="343" y="-13" on="1"/>
        <pt x="190" y="-13" on="0"/>
        <pt x="62" y="151" on="0"/>
        <pt x="62" y="319" on="1"/>
        <pt x="62" y="730" on="1"/>
        <pt x="216" y="730" on="1"/>
        <pt x="216" y="305" on="1"/>
        <pt x="216" y="251" on="0"/>
        <pt x="235" y="172" on="0"/>
        <pt x="289" y="128" on="0"/>
        <pt x="343" y="128" on="1"/>
        <pt x="398" y="128" on="0"/>
        <pt x="451" y="172" on="0"/>
        <pt x="470" y="251" on="0"/>
        <pt x="470" y="305" on="1"/>
        <pt x="470" y="730" on="1"/>
        <pt x="624" y="730" on="1"/>
        <pt x="624" y="319" on="1"/>
        <pt x="624" y="151" on="0"/>
        <pt x="495" y="-13" on="0"/>
      </contour>
      <contour>
        <pt x="250" y="793" on="1"/>
        <pt x="221" y="793" on="0"/>
        <pt x="180" y="838" on="0"/>
        <pt x="180" y="870" on="1"/>
        <pt x="180" y="902" on="0"/>
        <pt x="221" y="947" on="0"/>
        <pt x="250" y="947" on="1"/>
        <pt x="278" y="947" on="0"/>
        <pt x="318" y="902" on="0"/>
        <pt x="318" y="870" on="1"/>
        <pt x="318" y="838" on="0"/>
        <pt x="278" y="793" on="0"/>
      </contour>
      <contour>
        <pt x="440" y="793" on="1"/>
        <pt x="411" y="793" on="0"/>
        <pt x="370" y="838" on="0"/>
        <pt x="370" y="870" on="1"/>
        <pt x="370" y="902" on="0"/>
        <pt x="411" y="947" on="0"/>
        <pt x="440" y="947" on="1"/>
        <pt x="468" y="947" on="0"/>
        <pt x="507" y="902" on="0"/>
        <pt x="507" y="870" on="1"/>
        <pt x="507" y="838" on="0"/>
        <pt x="468" y="793" on="0"/>
      </contour>
    </TTGlyph>
    <TTGlyph name="Ugrave" xMin="62" yMin="-13" xMax="624" yMax="967">
      <contour>
        <pt x="343" y="-13" on="1"/>
        <pt x="190" y="-13" on="0"/>
        <pt x="62" y="151" on="0"/>
        <pt x="62" y="319" on="1"/>
        <pt x="62" y="730" on="1"/>
        <pt x="216" y="730" on="1"/>
        <pt x="216" y="305" on="1"/>
        <pt x="216" y="251" on="0"/>
        <pt x="235" y="172" on="0"/>
        <pt x="289" y="128" on="0"/>
        <pt x="343" y="128" on="1"/>
        <pt x="398" y="128" on="0"/>
        <pt x="451" y="172" on="0"/>
        <pt x="470" y="251" on="0"/>
        <pt x="470" y="305" on="1"/>
        <pt x="470" y="730" on="1"/>
        <pt x="624" y="730" on="1"/>
        <pt x="624" y="319" on="1"/>
        <pt x="624" y="151" on="0"/>
        <pt x="495" y="-13" on="0"/>
      </contour>
      <contour>
        <pt x="292" y="799" on="1"/>
        <pt x="273" y="814" on="0"/>
        <pt x="238" y="845" on="0"/>
        <pt x="219" y="859" on="1"/>
        <pt x="210" y="870" on="0"/>
        <pt x="199" y="891" on="0"/>
        <pt x="199" y="906" on="1"/>
        <pt x="199" y="930" on="0"/>
        <pt x="233" y="967" on="0"/>
        <pt x="255" y="967" on="1"/>
        <pt x="277" y="967" on="0"/>
        <pt x="292" y="951" on="1"/>
        <pt x="414" y="799" on="1"/>
      </contour>
    </TTGlyph>
    <TTGlyph name="Uhorn" xMin="62" yMin="-13" xMax="651" yMax="840">
      <component glyphName="U" x="0" y="0" flags="0x204"/>
      <component glyphName="uni031B" x="379" y="180" flags="0x4"/>
    </TTGlyph>
    <TTGlyph name="Uhungarumlaut" xMin="62" yMin="-13" xMax="624" yMax="982">
      <contour>
        <pt x="343" y="-13" on="1"/>
        <pt x="190" y="-13" on="0"/>
        <pt x="62" y="151" on="0"/>
        <pt x="62" y="319" on="1"/>
        <pt x="62" y="730" on="1"/>
        <pt x="216" y="730" on="1"/>
        <pt x="216" y="305" on="1"/>
        <pt x="216" y="251" on="0"/>
        <pt x="235" y="172" on="0"/>
        <pt x="289" y="128" on="0"/>
        <pt x="343" y="128" on="1"/>
        <pt x="398" y="128" on="0"/>
        <pt x="451" y="172" on="0"/>
        <pt x="470" y="251" on="0"/>
        <pt x="470" y="305" on="1"/>
        <pt x="470" y="730" on="1"/>
        <pt x="624" y="730" on="1"/>
        <pt x="624" y="319" on="1"/>
        <pt x="624" y="151" on="0"/>
        <pt x="495" y="-13" on="0"/>
      </contour>
      <contour>
        <pt x="171" y="815" on="1"/>
        <pt x="278" y="961" on="1"/>
        <pt x="295" y="982" on="0"/>
        <pt x="320" y="982" on="1"/>
        <pt x="343" y="982" on="0"/>
        <pt x="375" y="947" on="0"/>
        <pt x="375" y="921" on="1"/>
        <pt x="375" y="907" on="0"/>
        <pt x="366" y="883" on="0"/>
        <pt x="357" y="875" on="1"/>
        <pt x="283" y="815" on="1"/>
      </contour>
      <contour>
        <pt x="370" y="815" on="1"/>
        <pt x="476" y="961" on="1"/>
        <pt x="493" y="982" on="0"/>
        <pt x="518" y="982" on="1"/>
        <pt x="543" y="982" on="0"/>
        <pt x="574" y="947" on="0"/>
        <pt x="574" y="921" on="1"/>
        <pt x="574" y="907" on="0"/>
        <pt x="565" y="883" on="0"/>
        <pt x="555" y="875" on="1"/>
        <pt x="482" y="815" on="1"/>
      </contour>
    </TTGlyph>
    <TTGlyph name="Umacron" xMin="62" yMin="-13" xMax="624" yMax="923">
      <contour>
        <pt x="343" y="-13" on="1"/>
        <pt x="190" y="-13" on="0"/>
        <pt x="62" y="151" on="0"/>
        <pt x="62" y="319" on="1"/>
        <pt x="62" y="730" on="1"/>
        <pt x="216" y="730" on="1"/>
        <pt x="216" y="305" on="1"/>
        <pt x="216" y="251" on="0"/>
        <pt x="235" y="172" on="0"/>
        <pt x="289" y="128" on="0"/>
        <pt x="343" y="128" on="1"/>
        <pt x="398" y="128" on="0"/>
        <pt x="451" y="172" on="0"/>
        <pt x="470" y="251" on="0"/>
        <pt x="470" y="305" on="1"/>
        <pt x="470" y="730" on="1"/>
        <pt x="624" y="730" on="1"/>
        <pt x="624" y="319" on="1"/>
        <pt x="624" y="151" on="0"/>
        <pt x="495" y="-13" on="0"/>
      </contour>
      <contour>
        <pt x="197" y="816" on="1"/>
        <pt x="197" y="923" on="1"/>
        <pt x="489" y="923" on="1"/>
        <pt x="489" y="816" on="1"/>
      </contour>
    </TTGlyph>
    <TTGlyph name="Uogonek" xMin="62" yMin="-192" xMax="624" yMax="739">
      <contour>
        <pt x="343" y="-13" on="1"/>
        <pt x="190" y="-13" on="0"/>
        <pt x="62" y="153" on="0"/>
        <pt x="62" y="323" on="1"/>
        <pt x="62" y="739" on="1"/>
        <pt x="216" y="739" on="1"/>
        <pt x="216" y="309" on="1"/>
        <pt x="216" y="254" on="0"/>
        <pt x="235" y="174" on="0"/>
        <pt x="289" y="130" on="0"/>
        <pt x="343" y="130" on="1"/>
        <pt x="398" y="130" on="0"/>
        <pt x="451" y="174" on="0"/>
        <pt x="470" y="254" on="0"/>
        <pt x="470" y="309" on="1"/>
        <pt x="470" y="739" on="1"/>
        <pt x="624" y="739" on="1"/>
        <pt x="624" y="323" on="1"/>
        <pt x="624" y="153" on="0"/>
        <pt x="495" y="-13" on="0"/>
      </contour>
      <contour>
        <pt x="371" y="-192" on="1"/>
        <pt x="319" y="-192" on="0"/>
        <pt x="258" y="-160" on="0"/>
        <pt x="233" y="-115" on="0"/>
        <pt x="233" y="-94" on="1"/>
        <pt x="233" y="-56" on="0"/>
        <pt x="283" y="-10" on="0"/>
        <pt x="312" y="0" on="1"/>
        <pt x="449" y="0" on="1"/>
        <pt x="430" y="-2" on="0"/>
        <pt x="386" y="-24" on="0"/>
        <pt x="357" y="-57" on="0"/>
        <pt x="357" y="-75" on="1"/>
        <pt x="357" y="-95" on="0"/>
        <pt x="386" y="-108" on="0"/>
        <pt x="401" y="-108" on="1"/>
        <pt x="415" y="-108" on="0"/>
        <pt x="444" y="-99" on="0"/>
        <pt x="449" y="-98" on="1"/>
        <pt x="449" y="-181" on="1"/>
        <pt x="439" y="-186" on="0"/>
        <pt x="390" y="-192" on="0"/>
      </contour>
    </TTGlyph>
    <TTGlyph name="Upsilon" xMin="85" yMin="0" xMax="647" yMax="739">
      <component glyphName="Y" x="23" y="0" flags="0x4"/>
    </TTGlyph>
    <TTGlyph name="Upsilondieresis" xMin="62" yMin="0" xMax="624" yMax="953">
      <component glyphName="uni0308.case" x="92" y="0" flags="0x4"/>
      <component glyphName="Y" x="0" y="0" flags="0x204"/>
    </TTGlyph>
    <TTGlyph name="Upsilontonos" xMin="-119" yMin="0" xMax="624" yMax="739">
      <component glyphName="tonos.case" x="-211" y="0" flags="0x4"/>
      <component glyphName="Y" x="0" y="0" flags="0x204"/>
    </TTGlyph>
    <TTGlyph name="Uring" xMin="62" yMin="-13" xMax="624" yMax="1012">
      <contour>
        <pt x="343" y="-13" on="1"/>
        <pt x="190" y="-13" on="0"/>
        <pt x="62" y="151" on="0"/>
        <pt x="62" y="319" on="1"/>
        <pt x="62" y="730" on="1"/>
        <pt x="216" y="730" on="1"/>
        <pt x="216" y="305" on="1"/>
        <pt x="216" y="251" on="0"/>
        <pt x="235" y="172" on="0"/>
        <pt x="289" y="128" on="0"/>
        <pt x="343" y="128" on="1"/>
        <pt x="398" y="128" on="0"/>
        <pt x="451" y="172" on="0"/>
        <pt x="470" y="251" on="0"/>
        <pt x="470" y="305" on="1"/>
        <pt x="470" y="730" on="1"/>
        <pt x="624" y="730" on="1"/>
        <pt x="624" y="319" on="1"/>
        <pt x="624" y="151" on="0"/>
        <pt x="495" y="-13" on="0"/>
      </contour>
      <contour>
        <pt x="343" y="722" on="1"/>
        <pt x="307" y="722" on="0"/>
        <pt x="249" y="762" on="0"/>
        <pt x="213" y="828" on="0"/>
        <pt x="213" y="868" on="1"/>
        <pt x="213" y="908" on="0"/>
        <pt x="249" y="973" on="0"/>
        <pt x="307" y="1012" on="0"/>
        <pt x="343" y="1012" on="1"/>
        <pt x="379" y="1012" on="0"/>
        <pt x="438" y="973" on="0"/>
        <pt x="473" y="908" on="0"/>
        <pt x="473" y="868" on="1"/>
        <pt x="473" y="828" on="0"/>
        <pt x="438" y="762" on="0"/>
        <pt x="379" y="722" on="0"/>
      </contour>
      <contour>
        <pt x="343" y="816" on="1"/>
        <pt x="362" y="816" on="0"/>
        <pt x="388" y="847" on="0"/>
        <pt x="388" y="868" on="1"/>
        <pt x="388" y="890" on="0"/>
        <pt x="362" y="919" on="0"/>
        <pt x="343" y="919" on="1"/>
        <pt x="324" y="919" on="0"/>
        <pt x="297" y="890" on="0"/>
        <pt x="297" y="868" on="1"/>
        <pt x="297" y="847" on="0"/>
        <pt x="324" y="816" on="0"/>
      </contour>
    </TTGlyph>
    <TTGlyph name="Utilde" xMin="62" yMin="-13" xMax="624" yMax="954">
      <component glyphName="U" x="0" y="0" flags="0x204"/>
      <component glyphName="tildecomb.case" x="114" y="0" flags="0x4"/>
    </TTGlyph>
    <TTGlyph name="V" xMin="62" yMin="0" xMax="624" yMax="739">
      <contour>
        <pt x="261" y="0" on="1"/>
        <pt x="62" y="739" on="1"/>
        <pt x="207" y="739" on="1"/>
        <pt x="342" y="195" on="1"/>
        <pt x="478" y="739" on="1"/>
        <pt x="624" y="739" on="1"/>
        <pt x="424" y="0" on="1"/>
      </contour>
    </TTGlyph>
    <TTGlyph name="W" xMin="84" yMin="0" xMax="634" yMax="739">
      <contour>
        <pt x="187" y="0" on="1"/>
        <pt x="84" y="739" on="1"/>
        <pt x="185" y="739" on="1"/>
        <pt x="244" y="227" on="1"/>
        <pt x="307" y="739" on="1"/>
        <pt x="411" y="739" on="1"/>
        <pt x="474" y="227" on="1"/>
        <pt x="533" y="739" on="1"/>
        <pt x="634" y="739" on="1"/>
        <pt x="531" y="0" on="1"/>
        <pt x="424" y="0" on="1"/>
        <pt x="359" y="520" on="1"/>
        <pt x="294" y="0" on="1"/>
      </contour>
    </TTGlyph>
    <TTGlyph name="Wacute" xMin="84" yMin="0" xMax="634" yMax="950">
      <component glyphName="W" x="0" y="0" flags="0x204"/>
      <component glyphName="acutecomb.case" x="210" y="0" flags="0x4"/>
    </TTGlyph>
    <TTGlyph name="Wcircumflex" xMin="84" yMin="0" xMax="634" yMax="950">
      <component glyphName="W" x="0" y="0" flags="0x204"/>
      <component glyphName="uni0302.case" x="104" y="0" flags="0x4"/>
    </TTGlyph>
    <TTGlyph name="Wdieresis" xMin="84" yMin="0" xMax="634" yMax="953">
      <component glyphName="W" x="0" y="0" flags="0x204"/>
      <component glyphName="uni0308.case" x="108" y="0" flags="0x4"/>
    </TTGlyph>
    <TTGlyph name="Wgrave" xMin="84" yMin="0" xMax="634" yMax="950">
      <component glyphName="W" x="0" y="0" flags="0x204"/>
      <component glyphName="gravecomb.case" x="120" y="0" flags="0x4"/>
    </TTGlyph>
    <TTGlyph name="X" xMin="62" yMin="0" xMax="624" yMax="739">
      <contour>
        <pt x="62" y="0" on="1"/>
        <pt x="264" y="380" on="1"/>
        <pt x="73" y="739" on="1"/>
        <pt x="230" y="739" on="1"/>
        <pt x="343" y="526" on="1"/>
        <pt x="456" y="739" on="1"/>
        <pt x="613" y="739" on="1"/>
        <pt x="422" y="380" on="1"/>
        <pt x="624" y="0" on="1"/>
        <pt x="467" y="0" on="1"/>
        <pt x="343" y="234" on="1"/>
        <pt x="219" y="0" on="1"/>
      </contour>
    </TTGlyph>
    <TTGlyph name="Xi" xMin="58" yMin="0" xMax="538" yMax="739">
      <contour>
        <pt x="58" y="621" on="1"/>
        <pt x="58" y="739" on="1"/>
        <pt x="538" y="739" on="1"/>
        <pt x="538" y="621" on="1"/>
      </contour>
      <contour>
        <pt x="89" y="316" on="1"/>
        <pt x="89" y="433" on="1"/>
        <pt x="507" y="433" on="1"/>
        <pt x="507" y="316" on="1"/>
      </contour>
      <contour>
        <pt x="58" y="0" on="1"/>
        <pt x="58" y="117" on="1"/>
        <pt x="538" y="117" on="1"/>
        <pt x="538" y="0" on="1"/>
      </contour>
    </TTGlyph>
    <TTGlyph name="Y" xMin="62" yMin="0" xMax="624" yMax="739">
      <contour>
        <pt x="277" y="0" on="1"/>
        <pt x="277" y="287" on="1"/>
        <pt x="62" y="739" on="1"/>
        <pt x="217" y="739" on="1"/>
        <pt x="343" y="454" on="1"/>
        <pt x="468" y="739" on="1"/>
        <pt x="624" y="739" on="1"/>
        <pt x="409" y="287" on="1"/>
        <pt x="409" y="0" on="1"/>
      </contour>
    </TTGlyph>
    <TTGlyph name="Yacute" xMin="62" yMin="0" xMax="624" yMax="967">
      <contour>
        <pt x="277" y="0" on="1"/>
        <pt x="277" y="284" on="1"/>
        <pt x="62" y="730" on="1"/>
        <pt x="217" y="730" on="1"/>
        <pt x="343" y="449" on="1"/>
        <pt x="468" y="730" on="1"/>
        <pt x="624" y="730" on="1"/>
        <pt x="409" y="284" on="1"/>
        <pt x="409" y="0" on="1"/>
      </contour>
      <contour>
        <pt x="284" y="799" on="1"/>
        <pt x="309" y="836" on="0"/>
        <pt x="360" y="908" on="0"/>
        <pt x="385" y="945" on="1"/>
        <pt x="402" y="967" on="0"/>
        <pt x="421" y="967" on="1"/>
        <pt x="441" y="967" on="0"/>
        <pt x="468" y="931" on="0"/>
        <pt x="468" y="906" on="1"/>
        <pt x="468" y="892" on="0"/>
        <pt x="460" y="869" on="0"/>
        <pt x="452" y="859" on="1"/>
        <pt x="436" y="845" on="0"/>
        <pt x="406" y="814" on="0"/>
        <pt x="390" y="799" on="1"/>
      </contour>
    </TTGlyph>
    <TTGlyph name="Ycircumflex" xMin="62" yMin="0" xMax="624" yMax="950">
      <component glyphName="Y" x="0" y="0" flags="0x204"/>
      <component glyphName="uni0302.case" x="88" y="0" flags="0x4"/>
    </TTGlyph>
    <TTGlyph name="Ydieresis" xMin="62" yMin="0" xMax="624" yMax="947">
      <contour>
        <pt x="277" y="0" on="1"/>
        <pt x="277" y="284" on="1"/>
        <pt x="62" y="730" on="1"/>
        <pt x="217" y="730" on="1"/>
        <pt x="343" y="449" on="1"/>
        <pt x="468" y="730" on="1"/>
        <pt x="624" y="730" on="1"/>
        <pt x="409" y="284" on="1"/>
        <pt x="409" y="0" on="1"/>
      </contour>
      <contour>
        <pt x="262" y="793" on="1"/>
        <pt x="238" y="793" on="0"/>
        <pt x="202" y="838" on="0"/>
        <pt x="202" y="870" on="1"/>
        <pt x="202" y="902" on="0"/>
        <pt x="238" y="947" on="0"/>
        <pt x="262" y="947" on="1"/>
        <pt x="287" y="947" on="0"/>
        <pt x="322" y="902" on="0"/>
        <pt x="322" y="870" on="1"/>
        <pt x="322" y="838" on="0"/>
        <pt x="287" y="793" on="0"/>
      </contour>
      <contour>
        <pt x="426" y="793" on="1"/>
        <pt x="402" y="793" on="0"/>
        <pt x="366" y="838" on="0"/>
        <pt x="366" y="870" on="1"/>
        <pt x="366" y="902" on="0"/>
        <pt x="402" y="947" on="0"/>
        <pt x="426" y="947" on="1"/>
        <pt x="450" y="947" on="0"/>
        <pt x="485" y="902" on="0"/>
        <pt x="485" y="870" on="1"/>
        <pt x="485" y="838" on="0"/>
        <pt x="450" y="793" on="0"/>
      </contour>
    </TTGlyph>
    <TTGlyph name="Ygrave" xMin="62" yMin="0" xMax="624" yMax="950">
      <component glyphName="Y" x="0" y="0" flags="0x204"/>
      <component glyphName="gravecomb.case" x="104" y="0" flags="0x4"/>
    </TTGlyph>
    <TTGlyph name="Z" xMin="62" yMin="0" xMax="624" yMax="739">
      <contour>
        <pt x="62" y="0" on="1"/>
        <pt x="62" y="134" on="1"/>
        <pt x="402" y="585" on="1"/>
        <pt x="76" y="585" on="1"/>
        <pt x="76" y="739" on="1"/>
        <pt x="610" y="739" on="1"/>
        <pt x="610" y="605" on="1"/>
        <pt x="272" y="154" on="1"/>
        <pt x="624" y="154" on="1"/>
        <pt x="624" y="0" on="1"/>
      </contour>
    </TTGlyph>
    <TTGlyph name="Zacute" xMin="62" yMin="0" xMax="624" yMax="967">
      <contour>
        <pt x="62" y="0" on="1"/>
        <pt x="62" y="132" on="1"/>
        <pt x="402" y="578" on="1"/>
        <pt x="76" y="578" on="1"/>
        <pt x="76" y="730" on="1"/>
        <pt x="610" y="730" on="1"/>
        <pt x="610" y="598" on="1"/>
        <pt x="272" y="152" on="1"/>
        <pt x="624" y="152" on="1"/>
        <pt x="624" y="0" on="1"/>
      </contour>
      <contour>
        <pt x="273" y="799" on="1"/>
        <pt x="303" y="836" on="0"/>
        <pt x="363" y="908" on="0"/>
        <pt x="393" y="945" on="1"/>
        <pt x="413" y="967" on="0"/>
        <pt x="436" y="967" on="1"/>
        <pt x="460" y="967" on="0"/>
        <pt x="493" y="931" on="0"/>
        <pt x="493" y="906" on="1"/>
        <pt x="493" y="892" on="0"/>
        <pt x="483" y="869" on="0"/>
        <pt x="474" y="859" on="1"/>
        <pt x="454" y="845" on="0"/>
        <pt x="419" y="814" on="0"/>
        <pt x="399" y="799" on="1"/>
      </contour>
    </TTGlyph>
    <TTGlyph name="Zcaron" xMin="62" yMin="0" xMax="624" yMax="958">
      <contour>
        <pt x="62" y="0" on="1"/>
        <pt x="62" y="132" on="1"/>
        <pt x="402" y="578" on="1"/>
        <pt x="76" y="578" on="1"/>
        <pt x="76" y="730" on="1"/>
        <pt x="610" y="730" on="1"/>
        <pt x="610" y="598" on="1"/>
        <pt x="272" y="152" on="1"/>
        <pt x="624" y="152" on="1"/>
        <pt x="624" y="0" on="1"/>
      </contour>
      <contour>
        <pt x="343" y="792" on="1"/>
        <pt x="315" y="792" on="0"/>
        <pt x="293" y="813" on="1"/>
        <pt x="145" y="958" on="1"/>
        <pt x="275" y="958" on="1"/>
        <pt x="343" y="892" on="1"/>
        <pt x="412" y="958" on="1"/>
        <pt x="541" y="958" on="1"/>
        <pt x="394" y="813" on="1"/>
        <pt x="371" y="792" on="0"/>
      </contour>
    </TTGlyph>
    <TTGlyph name="Zdotaccent" xMin="62" yMin="0" xMax="624" yMax="947">
      <contour>
        <pt x="62" y="0" on="1"/>
        <pt x="62" y="132" on="1"/>
        <pt x="402" y="578" on="1"/>
        <pt x="76" y="578" on="1"/>
        <pt x="76" y="730" on="1"/>
        <pt x="610" y="730" on="1"/>
        <pt x="610" y="598" on="1"/>
        <pt x="272" y="152" on="1"/>
        <pt x="624" y="152" on="1"/>
        <pt x="624" y="0" on="1"/>
      </contour>
      <contour>
        <pt x="343" y="793" on="1"/>
        <pt x="315" y="793" on="0"/>
        <pt x="272" y="838" on="0"/>
        <pt x="272" y="870" on="1"/>
        <pt x="272" y="902" on="0"/>
        <pt x="315" y="947" on="0"/>
        <pt x="343" y="947" on="1"/>
        <pt x="372" y="947" on="0"/>
        <pt x="414" y="902" on="0"/>
        <pt x="414" y="870" on="1"/>
        <pt x="414" y="838" on="0"/>
        <pt x="372" y="793" on="0"/>
      </contour>
    </TTGlyph>
    <TTGlyph name="Zeta" xMin="85" yMin="0" xMax="647" yMax="739">
      <component glyphName="Z" x="23" y="0" flags="0x4"/>
    </TTGlyph>
    <TTGlyph name="a" xMin="55" yMin="-14" xMax="575" yMax="590">
      <contour>
        <pt x="234" y="-14" on="1"/>
        <pt x="185" y="-14" on="0"/>
        <pt x="103" y="28" on="0"/>
        <pt x="55" y="103" on="0"/>
        <pt x="55" y="155" on="1"/>
        <pt x="55" y="226" on="0"/>
        <pt x="144" y="310" on="0"/>
        <pt x="299" y="351" on="0"/>
        <pt x="400" y="359" on="1"/>
        <pt x="400" y="421" on="0"/>
        <pt x="364" y="472" on="0"/>
        <pt x="313" y="472" on="1"/>
        <pt x="280" y="472" on="0"/>
        <pt x="231" y="438" on="0"/>
        <pt x="223" y="403" on="1"/>
        <pt x="88" y="457" on="1"/>
        <pt x="114" y="514" on="0"/>
        <pt x="237" y="590" on="0"/>
        <pt x="327" y="590" on="1"/>
        <pt x="438" y="590" on="0"/>
        <pt x="558" y="482" on="0"/>
        <pt x="558" y="351" on="1"/>
        <pt x="558" y="225" on="1"/>
        <pt x="558" y="188" on="0"/>
        <pt x="562" y="102" on="0"/>
        <pt x="570" y="25" on="0"/>
        <pt x="575" y="0" on="1"/>
        <pt x="427" y="0" on="1"/>
        <pt x="408" y="70" on="1"/>
        <pt x="379" y="24" on="0"/>
        <pt x="290" y="-14" on="0"/>
      </contour>
      <contour>
        <pt x="293" y="107" on="1"/>
        <pt x="340" y="107" on="0"/>
        <pt x="403" y="162" on="0"/>
        <pt x="403" y="241" on="1"/>
        <pt x="403" y="254" on="1"/>
        <pt x="320" y="247" on="0"/>
        <pt x="219" y="213" on="0"/>
        <pt x="219" y="167" on="1"/>
        <pt x="219" y="140" on="0"/>
        <pt x="261" y="107" on="0"/>
      </contour>
    </TTGlyph>
    <TTGlyph name="aacute" xMin="55" yMin="-14" xMax="575" yMax="794">
      <contour>
        <pt x="234" y="-14" on="1"/>
        <pt x="185" y="-14" on="0"/>
        <pt x="103" y="28" on="0"/>
        <pt x="55" y="103" on="0"/>
        <pt x="55" y="155" on="1"/>
        <pt x="55" y="226" on="0"/>
        <pt x="144" y="310" on="0"/>
        <pt x="299" y="351" on="0"/>
        <pt x="400" y="359" on="1"/>
        <pt x="400" y="421" on="0"/>
        <pt x="364" y="472" on="0"/>
        <pt x="313" y="472" on="1"/>
        <pt x="280" y="472" on="0"/>
        <pt x="231" y="438" on="0"/>
        <pt x="223" y="403" on="1"/>
        <pt x="88" y="457" on="1"/>
        <pt x="114" y="514" on="0"/>
        <pt x="237" y="590" on="0"/>
        <pt x="327" y="590" on="1"/>
        <pt x="438" y="590" on="0"/>
        <pt x="558" y="482" on="0"/>
        <pt x="558" y="351" on="1"/>
        <pt x="558" y="225" on="1"/>
        <pt x="558" y="188" on="0"/>
        <pt x="562" y="102" on="0"/>
        <pt x="570" y="25" on="0"/>
        <pt x="575" y="0" on="1"/>
        <pt x="427" y="0" on="1"/>
        <pt x="408" y="70" on="1"/>
        <pt x="379" y="24" on="0"/>
        <pt x="290" y="-14" on="0"/>
      </contour>
      <contour>
        <pt x="293" y="107" on="1"/>
        <pt x="340" y="107" on="0"/>
        <pt x="403" y="162" on="0"/>
        <pt x="403" y="241" on="1"/>
        <pt x="403" y="254" on="1"/>
        <pt x="320" y="247" on="0"/>
        <pt x="219" y="213" on="0"/>
        <pt x="219" y="167" on="1"/>
        <pt x="219" y="140" on="0"/>
        <pt x="261" y="107" on="0"/>
      </contour>
      <contour>
        <pt x="257" y="627" on="1"/>
        <pt x="287" y="664" on="0"/>
        <pt x="344" y="738" on="0"/>
        <pt x="374" y="775" on="1"/>
        <pt x="390" y="794" on="0"/>
        <pt x="417" y="794" on="1"/>
        <pt x="442" y="794" on="0"/>
        <pt x="476" y="760" on="0"/>
        <pt x="476" y="733" on="1"/>
        <pt x="476" y="705" on="0"/>
        <pt x="456" y="687" on="1"/>
        <pt x="436" y="673" on="0"/>
        <pt x="397" y="643" on="0"/>
        <pt x="377" y="627" on="1"/>
      </contour>
    </TTGlyph>
    <TTGlyph name="abreve" xMin="55" yMin="-14" xMax="575" yMax="753">
      <contour>
        <pt x="234" y="-14" on="1"/>
        <pt x="185" y="-14" on="0"/>
        <pt x="103" y="28" on="0"/>
        <pt x="55" y="103" on="0"/>
        <pt x="55" y="155" on="1"/>
        <pt x="55" y="226" on="0"/>
        <pt x="144" y="310" on="0"/>
        <pt x="299" y="351" on="0"/>
        <pt x="400" y="359" on="1"/>
        <pt x="400" y="421" on="0"/>
        <pt x="364" y="472" on="0"/>
        <pt x="313" y="472" on="1"/>
        <pt x="280" y="472" on="0"/>
        <pt x="231" y="438" on="0"/>
        <pt x="223" y="403" on="1"/>
        <pt x="88" y="457" on="1"/>
        <pt x="114" y="514" on="0"/>
        <pt x="237" y="590" on="0"/>
        <pt x="327" y="590" on="1"/>
        <pt x="438" y="590" on="0"/>
        <pt x="558" y="482" on="0"/>
        <pt x="558" y="351" on="1"/>
        <pt x="558" y="225" on="1"/>
        <pt x="558" y="188" on="0"/>
        <pt x="562" y="102" on="0"/>
        <pt x="570" y="25" on="0"/>
        <pt x="575" y="0" on="1"/>
        <pt x="427" y="0" on="1"/>
        <pt x="408" y="70" on="1"/>
        <pt x="379" y="24" on="0"/>
        <pt x="290" y="-14" on="0"/>
      </contour>
      <contour>
        <pt x="293" y="107" on="1"/>
        <pt x="340" y="107" on="0"/>
        <pt x="403" y="162" on="0"/>
        <pt x="403" y="241" on="1"/>
        <pt x="403" y="254" on="1"/>
        <pt x="320" y="247" on="0"/>
        <pt x="219" y="213" on="0"/>
        <pt x="219" y="167" on="1"/>
        <pt x="219" y="140" on="0"/>
        <pt x="261" y="107" on="0"/>
      </contour>
      <contour>
        <pt x="328" y="622" on="1"/>
        <pt x="272" y="622" on="0"/>
        <pt x="187" y="697" on="0"/>
        <pt x="177" y="753" on="1"/>
        <pt x="267" y="753" on="1"/>
        <pt x="271" y="735" on="0"/>
        <pt x="305" y="706" on="0"/>
        <pt x="328" y="706" on="1"/>
        <pt x="352" y="706" on="0"/>
        <pt x="385" y="735" on="0"/>
        <pt x="390" y="753" on="1"/>
        <pt x="479" y="753" on="1"/>
        <pt x="469" y="697" on="0"/>
        <pt x="384" y="622" on="0"/>
      </contour>
    </TTGlyph>
    <TTGlyph name="acircumflex" xMin="55" yMin="-14" xMax="575" yMax="793">
      <contour>
        <pt x="234" y="-14" on="1"/>
        <pt x="185" y="-14" on="0"/>
        <pt x="103" y="28" on="0"/>
        <pt x="55" y="103" on="0"/>
        <pt x="55" y="155" on="1"/>
        <pt x="55" y="226" on="0"/>
        <pt x="144" y="310" on="0"/>
        <pt x="299" y="351" on="0"/>
        <pt x="400" y="359" on="1"/>
        <pt x="400" y="421" on="0"/>
        <pt x="364" y="472" on="0"/>
        <pt x="313" y="472" on="1"/>
        <pt x="280" y="472" on="0"/>
        <pt x="231" y="438" on="0"/>
        <pt x="223" y="403" on="1"/>
        <pt x="88" y="457" on="1"/>
        <pt x="114" y="514" on="0"/>
        <pt x="237" y="590" on="0"/>
        <pt x="327" y="590" on="1"/>
        <pt x="438" y="590" on="0"/>
        <pt x="558" y="482" on="0"/>
        <pt x="558" y="351" on="1"/>
        <pt x="558" y="225" on="1"/>
        <pt x="558" y="188" on="0"/>
        <pt x="562" y="102" on="0"/>
        <pt x="570" y="25" on="0"/>
        <pt x="575" y="0" on="1"/>
        <pt x="427" y="0" on="1"/>
        <pt x="408" y="70" on="1"/>
        <pt x="379" y="24" on="0"/>
        <pt x="290" y="-14" on="0"/>
      </contour>
      <contour>
        <pt x="293" y="107" on="1"/>
        <pt x="340" y="107" on="0"/>
        <pt x="403" y="162" on="0"/>
        <pt x="403" y="241" on="1"/>
        <pt x="403" y="254" on="1"/>
        <pt x="320" y="247" on="0"/>
        <pt x="219" y="213" on="0"/>
        <pt x="219" y="167" on="1"/>
        <pt x="219" y="140" on="0"/>
        <pt x="261" y="107" on="0"/>
      </contour>
      <contour>
        <pt x="122" y="627" on="1"/>
        <pt x="276" y="772" on="1"/>
        <pt x="299" y="793" on="0"/>
        <pt x="329" y="793" on="1"/>
        <pt x="343" y="793" on="0"/>
        <pt x="371" y="781" on="0"/>
        <pt x="381" y="772" on="1"/>
        <pt x="534" y="627" on="1"/>
        <pt x="400" y="627" on="1"/>
        <pt x="329" y="694" on="1"/>
        <pt x="257" y="627" on="1"/>
      </contour>
    </TTGlyph>
    <TTGlyph name="acknowledgecontrol" xMin="33" yMin="241" xMax="629" yMax="493">
      <component glyphName="A" x="13" y="245" scale="0.33" flags="0x4"/>
      <component glyphName="C" x="212" y="245" scale="0.33" flags="0x4"/>
      <component glyphName="K" x="423" y="245" scale="0.33" flags="0x4"/>
    </TTGlyph>
    <TTGlyph name="acute" xMin="357" yMin="645" xMax="602" yMax="785">
      <component glyphName="acutecomb" x="290" y="0" flags="0x4"/>
    </TTGlyph>
    <TTGlyph name="acute.case" xMin="413" yMin="810" xMax="658" yMax="950">
      <component glyphName="acutecomb.case" x="346" y="0" flags="0x4"/>
    </TTGlyph>
    <TTGlyph name="acutecomb" xMin="67" yMin="645" xMax="312" yMax="785">
      <contour>
        <pt x="67" y="645" on="1"/>
        <pt x="175" y="785" on="1"/>
        <pt x="312" y="785" on="1"/>
        <pt x="196" y="645" on="1"/>
      </contour>
    </TTGlyph>
    <TTGlyph name="acutecomb.case" xMin="67" yMin="810" xMax="312" yMax="950">
      <contour>
        <pt x="67" y="810" on="1"/>
        <pt x="175" y="950" on="1"/>
        <pt x="312" y="950" on="1"/>
        <pt x="196" y="810" on="1"/>
      </contour>
    </TTGlyph>
    <TTGlyph name="adieresis" xMin="55" yMin="-14" xMax="575" yMax="786">
      <contour>
        <pt x="234" y="-14" on="1"/>
        <pt x="185" y="-14" on="0"/>
        <pt x="103" y="28" on="0"/>
        <pt x="55" y="103" on="0"/>
        <pt x="55" y="155" on="1"/>
        <pt x="55" y="226" on="0"/>
        <pt x="144" y="310" on="0"/>
        <pt x="299" y="351" on="0"/>
        <pt x="400" y="359" on="1"/>
        <pt x="400" y="421" on="0"/>
        <pt x="364" y="472" on="0"/>
        <pt x="313" y="472" on="1"/>
        <pt x="280" y="472" on="0"/>
        <pt x="231" y="438" on="0"/>
        <pt x="223" y="403" on="1"/>
        <pt x="88" y="457" on="1"/>
        <pt x="114" y="514" on="0"/>
        <pt x="237" y="590" on="0"/>
        <pt x="327" y="590" on="1"/>
        <pt x="438" y="590" on="0"/>
        <pt x="558" y="482" on="0"/>
        <pt x="558" y="351" on="1"/>
        <pt x="558" y="225" on="1"/>
        <pt x="558" y="188" on="0"/>
        <pt x="562" y="102" on="0"/>
        <pt x="570" y="25" on="0"/>
        <pt x="575" y="0" on="1"/>
        <pt x="427" y="0" on="1"/>
        <pt x="408" y="70" on="1"/>
        <pt x="379" y="24" on="0"/>
        <pt x="290" y="-14" on="0"/>
      </contour>
      <contour>
        <pt x="293" y="107" on="1"/>
        <pt x="340" y="107" on="0"/>
        <pt x="403" y="162" on="0"/>
        <pt x="403" y="241" on="1"/>
        <pt x="403" y="254" on="1"/>
        <pt x="320" y="247" on="0"/>
        <pt x="219" y="213" on="0"/>
        <pt x="219" y="167" on="1"/>
        <pt x="219" y="140" on="0"/>
        <pt x="261" y="107" on="0"/>
      </contour>
      <contour>
        <pt x="228" y="632" on="1"/>
        <pt x="197" y="632" on="0"/>
        <pt x="153" y="676" on="0"/>
        <pt x="153" y="708" on="1"/>
        <pt x="153" y="740" on="0"/>
        <pt x="197" y="786" on="0"/>
        <pt x="228" y="786" on="1"/>
        <pt x="258" y="786" on="0"/>
        <pt x="301" y="740" on="0"/>
        <pt x="301" y="708" on="1"/>
        <pt x="301" y="676" on="0"/>
        <pt x="258" y="632" on="0"/>
      </contour>
      <contour>
        <pt x="432" y="632" on="1"/>
        <pt x="401" y="632" on="0"/>
        <pt x="357" y="676" on="0"/>
        <pt x="357" y="708" on="1"/>
        <pt x="357" y="740" on="0"/>
        <pt x="401" y="786" on="0"/>
        <pt x="432" y="786" on="1"/>
        <pt x="462" y="786" on="0"/>
        <pt x="504" y="740" on="0"/>
        <pt x="504" y="708" on="1"/>
        <pt x="504" y="676" on="0"/>
        <pt x="462" y="632" on="0"/>
      </contour>
    </TTGlyph>
    <TTGlyph name="ae" xMin="42" yMin="-14" xMax="608" yMax="590">
      <contour>
        <pt x="164" y="-14" on="1"/>
        <pt x="134" y="-14" on="0"/>
        <pt x="77" y="24" on="0"/>
        <pt x="42" y="101" on="0"/>
        <pt x="42" y="157" on="1"/>
        <pt x="42" y="192" on="0"/>
        <pt x="61" y="261" on="0"/>
        <pt x="109" y="315" on="0"/>
        <pt x="196" y="348" on="0"/>
        <pt x="263" y="348" on="1"/>
        <pt x="263" y="382" on="1"/>
        <pt x="263" y="431" on="0"/>
        <pt x="234" y="472" on="0"/>
        <pt x="206" y="472" on="1"/>
        <pt x="187" y="472" on="0"/>
        <pt x="154" y="438" on="0"/>
        <pt x="149" y="403" on="1"/>
        <pt x="63" y="457" on="1"/>
        <pt x="79" y="514" on="0"/>
        <pt x="158" y="590" on="0"/>
        <pt x="216" y="590" on="1"/>
        <pt x="252" y="590" on="0"/>
        <pt x="307" y="565" on="0"/>
        <pt x="326" y="535" on="1"/>
        <pt x="371" y="590" on="0"/>
        <pt x="432" y="590" on="1"/>
        <pt x="487" y="590" on="0"/>
        <pt x="567" y="501" on="0"/>
        <pt x="608" y="345" on="0"/>
        <pt x="604" y="242" on="1"/>
        <pt x="357" y="242" on="1"/>
        <pt x="359" y="182" on="0"/>
        <pt x="406" y="123" on="0"/>
        <pt x="433" y="123" on="1"/>
        <pt x="457" y="123" on="0"/>
        <pt x="492" y="147" on="0"/>
        <pt x="502" y="165" on="1"/>
        <pt x="582" y="114" on="1"/>
        <pt x="556" y="48" on="0"/>
        <pt x="477" y="-14" on="0"/>
        <pt x="436" y="-14" on="1"/>
        <pt x="348" y="-14" on="0"/>
        <pt x="298" y="77" on="1"/>
        <pt x="271" y="21" on="0"/>
        <pt x="201" y="-14" on="0"/>
      </contour>
      <contour>
        <pt x="356" y="347" on="1"/>
        <pt x="509" y="347" on="1"/>
        <pt x="508" y="402" on="0"/>
        <pt x="465" y="459" on="0"/>
        <pt x="434" y="459" on="1"/>
        <pt x="406" y="459" on="0"/>
        <pt x="361" y="405" on="0"/>
      </contour>
      <contour>
        <pt x="194" y="105" on="1"/>
        <pt x="224" y="105" on="0"/>
        <pt x="264" y="162" on="0"/>
        <pt x="264" y="233" on="1"/>
        <pt x="264" y="242" on="1"/>
        <pt x="210" y="243" on="0"/>
        <pt x="147" y="216" on="0"/>
        <pt x="147" y="172" on="1"/>
        <pt x="147" y="140" on="0"/>
        <pt x="173" y="105" on="0"/>
      </contour>
    </TTGlyph>
    <TTGlyph name="aeacute" xMin="42" yMin="-14" xMax="608" yMax="787">
      <component glyphName="ae" x="0" y="0" flags="0x204"/>
      <component glyphName="acutecomb" x="174" y="2" flags="0x4"/>
    </TTGlyph>
    <TTGlyph name="agrave" xMin="55" yMin="-14" xMax="575" yMax="796">
      <contour>
        <pt x="234" y="-14" on="1"/>
        <pt x="185" y="-14" on="0"/>
        <pt x="103" y="28" on="0"/>
        <pt x="55" y="103" on="0"/>
        <pt x="55" y="155" on="1"/>
        <pt x="55" y="226" on="0"/>
        <pt x="144" y="310" on="0"/>
        <pt x="299" y="351" on="0"/>
        <pt x="400" y="359" on="1"/>
        <pt x="400" y="421" on="0"/>
        <pt x="364" y="472" on="0"/>
        <pt x="313" y="472" on="1"/>
        <pt x="280" y="472" on="0"/>
        <pt x="231" y="438" on="0"/>
        <pt x="223" y="403" on="1"/>
        <pt x="88" y="457" on="1"/>
        <pt x="114" y="514" on="0"/>
        <pt x="237" y="590" on="0"/>
        <pt x="327" y="590" on="1"/>
        <pt x="438" y="590" on="0"/>
        <pt x="558" y="482" on="0"/>
        <pt x="558" y="351" on="1"/>
        <pt x="558" y="225" on="1"/>
        <pt x="558" y="188" on="0"/>
        <pt x="562" y="102" on="0"/>
        <pt x="570" y="25" on="0"/>
        <pt x="575" y="0" on="1"/>
        <pt x="427" y="0" on="1"/>
        <pt x="408" y="70" on="1"/>
        <pt x="379" y="24" on="0"/>
        <pt x="290" y="-14" on="0"/>
      </contour>
      <contour>
        <pt x="293" y="107" on="1"/>
        <pt x="340" y="107" on="0"/>
        <pt x="403" y="162" on="0"/>
        <pt x="403" y="241" on="1"/>
        <pt x="403" y="254" on="1"/>
        <pt x="320" y="247" on="0"/>
        <pt x="219" y="213" on="0"/>
        <pt x="219" y="167" on="1"/>
        <pt x="219" y="140" on="0"/>
        <pt x="261" y="107" on="0"/>
      </contour>
      <contour>
        <pt x="281" y="627" on="1"/>
        <pt x="261" y="643" on="0"/>
        <pt x="223" y="673" on="0"/>
        <pt x="203" y="687" on="1"/>
        <pt x="183" y="708" on="0"/>
        <pt x="183" y="733" on="1"/>
        <pt x="183" y="758" on="0"/>
        <pt x="217" y="796" on="0"/>
        <pt x="242" y="796" on="1"/>
        <pt x="269" y="796" on="0"/>
        <pt x="286" y="775" on="1"/>
        <pt x="401" y="627" on="1"/>
      </contour>
    </TTGlyph>
    <TTGlyph name="alpha" xMin="54" yMin="-11" xMax="526" yMax="594">
      <contour>
        <pt x="244" y="-11" on="1"/>
        <pt x="157" y="-11" on="0"/>
        <pt x="54" y="110" on="0"/>
        <pt x="54" y="213" on="1"/>
        <pt x="54" y="371" on="1"/>
        <pt x="54" y="473" on="0"/>
        <pt x="157" y="594" on="0"/>
        <pt x="244" y="594" on="1"/>
        <pt x="308" y="594" on="0"/>
        <pt x="386" y="530" on="0"/>
        <pt x="395" y="472" on="1"/>
        <pt x="398" y="472" on="1"/>
        <pt x="398" y="583" on="1"/>
        <pt x="526" y="583" on="1"/>
        <pt x="526" y="0" on="1"/>
        <pt x="398" y="0" on="1"/>
        <pt x="398" y="111" on="1"/>
        <pt x="395" y="111" on="1"/>
        <pt x="386" y="54" on="0"/>
        <pt x="308" y="-11" on="0"/>
      </contour>
      <contour>
        <pt x="290" y="104" on="1"/>
        <pt x="340" y="104" on="0"/>
        <pt x="395" y="164" on="0"/>
        <pt x="395" y="218" on="1"/>
        <pt x="395" y="365" on="1"/>
        <pt x="395" y="419" on="0"/>
        <pt x="340" y="479" on="0"/>
        <pt x="290" y="479" on="1"/>
        <pt x="239" y="479" on="0"/>
        <pt x="186" y="420" on="0"/>
        <pt x="186" y="365" on="1"/>
        <pt x="186" y="218" on="1"/>
        <pt x="186" y="163" on="0"/>
        <pt x="239" y="104" on="0"/>
      </contour>
    </TTGlyph>
    <TTGlyph name="alphatonos" xMin="54" yMin="-10" xMax="526" yMax="785">
      <contour>
        <pt x="206" y="645" on="1"/>
        <pt x="316" y="785" on="1"/>
        <pt x="458" y="785" on="1"/>
        <pt x="337" y="645" on="1"/>
      </contour>
      <contour>
        <pt x="244" y="-10" on="1"/>
        <pt x="157" y="-10" on="0"/>
        <pt x="54" y="104" on="0"/>
        <pt x="54" y="201" on="1"/>
        <pt x="54" y="350" on="1"/>
        <pt x="54" y="446" on="0"/>
        <pt x="157" y="560" on="0"/>
        <pt x="244" y="560" on="1"/>
        <pt x="308" y="560" on="0"/>
        <pt x="386" y="500" on="0"/>
        <pt x="395" y="445" on="1"/>
        <pt x="398" y="445" on="1"/>
        <pt x="398" y="550" on="1"/>
        <pt x="526" y="550" on="1"/>
        <pt x="526" y="0" on="1"/>
        <pt x="398" y="0" on="1"/>
        <pt x="398" y="105" on="1"/>
        <pt x="395" y="105" on="1"/>
        <pt x="386" y="51" on="0"/>
        <pt x="308" y="-10" on="0"/>
      </contour>
      <contour>
        <pt x="290" y="98" on="1"/>
        <pt x="340" y="98" on="0"/>
        <pt x="395" y="155" on="0"/>
        <pt x="395" y="206" on="1"/>
        <pt x="395" y="344" on="1"/>
        <pt x="395" y="395" on="0"/>
        <pt x="340" y="452" on="0"/>
        <pt x="290" y="452" on="1"/>
        <pt x="239" y="452" on="0"/>
        <pt x="186" y="396" on="0"/>
        <pt x="186" y="344" on="1"/>
        <pt x="186" y="206" on="1"/>
        <pt x="186" y="154" on="0"/>
        <pt x="239" y="98" on="0"/>
      </contour>
    </TTGlyph>
    <TTGlyph name="amacron" xMin="55" yMin="-14" xMax="575" yMax="730">
      <contour>
        <pt x="234" y="-14" on="1"/>
        <pt x="185" y="-14" on="0"/>
        <pt x="103" y="28" on="0"/>
        <pt x="55" y="103" on="0"/>
        <pt x="55" y="155" on="1"/>
        <pt x="55" y="226" on="0"/>
        <pt x="144" y="310" on="0"/>
        <pt x="299" y="351" on="0"/>
        <pt x="400" y="359" on="1"/>
        <pt x="400" y="421" on="0"/>
        <pt x="364" y="472" on="0"/>
        <pt x="313" y="472" on="1"/>
        <pt x="280" y="472" on="0"/>
        <pt x="231" y="438" on="0"/>
        <pt x="223" y="403" on="1"/>
        <pt x="88" y="457" on="1"/>
        <pt x="114" y="514" on="0"/>
        <pt x="237" y="590" on="0"/>
        <pt x="327" y="590" on="1"/>
        <pt x="438" y="590" on="0"/>
        <pt x="558" y="482" on="0"/>
        <pt x="558" y="351" on="1"/>
        <pt x="558" y="225" on="1"/>
        <pt x="558" y="188" on="0"/>
        <pt x="562" y="102" on="0"/>
        <pt x="570" y="25" on="0"/>
        <pt x="575" y="0" on="1"/>
        <pt x="427" y="0" on="1"/>
        <pt x="408" y="70" on="1"/>
        <pt x="379" y="24" on="0"/>
        <pt x="290" y="-14" on="0"/>
      </contour>
      <contour>
        <pt x="293" y="107" on="1"/>
        <pt x="340" y="107" on="0"/>
        <pt x="403" y="162" on="0"/>
        <pt x="403" y="241" on="1"/>
        <pt x="403" y="254" on="1"/>
        <pt x="320" y="247" on="0"/>
        <pt x="219" y="213" on="0"/>
        <pt x="219" y="167" on="1"/>
        <pt x="219" y="140" on="0"/>
        <pt x="261" y="107" on="0"/>
      </contour>
      <contour>
        <pt x="171" y="623" on="1"/>
        <pt x="171" y="730" on="1"/>
        <pt x="485" y="730" on="1"/>
        <pt x="485" y="623" on="1"/>
      </contour>
    </TTGlyph>
    <TTGlyph name="ampersand" xMin="58" yMin="-10" xMax="602" yMax="740">
      <contour>
        <pt x="252" y="-10" on="1"/>
        <pt x="160" y="-10" on="0"/>
        <pt x="58" y="90" on="0"/>
        <pt x="58" y="178" on="1"/>
        <pt x="58" y="271" on="1"/>
        <pt x="58" y="330" on="0"/>
        <pt x="112" y="411" on="0"/>
        <pt x="162" y="427" on="1"/>
        <pt x="137" y="465" on="0"/>
        <pt x="111" y="536" on="0"/>
        <pt x="111" y="572" on="1"/>
        <pt x="111" y="647" on="0"/>
        <pt x="219" y="740" on="0"/>
        <pt x="308" y="740" on="1"/>
        <pt x="400" y="740" on="0"/>
        <pt x="511" y="641" on="0"/>
        <pt x="511" y="558" on="1"/>
        <pt x="392" y="558" on="1"/>
        <pt x="392" y="594" on="0"/>
        <pt x="346" y="637" on="0"/>
        <pt x="308" y="637" on="1"/>
        <pt x="271" y="637" on="0"/>
        <pt x="227" y="596" on="0"/>
        <pt x="227" y="562" on="1"/>
        <pt x="227" y="538" on="0"/>
        <pt x="252" y="480" on="0"/>
        <pt x="275" y="450" on="1"/>
        <pt x="416" y="255" on="1"/>
        <pt x="473" y="360" on="1"/>
        <pt x="597" y="360" on="1"/>
        <pt x="487" y="157" on="1"/>
        <pt x="602" y="0" on="1"/>
        <pt x="474" y="0" on="1"/>
        <pt x="426" y="66" on="1"/>
        <pt x="354" y="-10" on="0"/>
      </contour>
      <contour>
        <pt x="263" y="93" on="1"/>
        <pt x="292" y="93" on="0"/>
        <pt x="344" y="125" on="0"/>
        <pt x="362" y="153" on="1"/>
        <pt x="222" y="345" on="1"/>
        <pt x="180" y="328" on="0"/>
        <pt x="180" y="271" on="1"/>
        <pt x="180" y="178" on="1"/>
        <pt x="180" y="137" on="0"/>
        <pt x="225" y="93" on="0"/>
      </contour>
    </TTGlyph>
    <TTGlyph name="anoteleia" xMin="0" yMin="265" xMax="184" yMax="452">
      <component glyphName="period" x="-28" y="275" flags="0x4"/>
    </TTGlyph>
    <TTGlyph name="aogonek" xMin="55" yMin="-201" xMax="575" yMax="590">
      <contour>
        <pt x="234" y="-14" on="1"/>
        <pt x="185" y="-14" on="0"/>
        <pt x="103" y="28" on="0"/>
        <pt x="55" y="103" on="0"/>
        <pt x="55" y="155" on="1"/>
        <pt x="55" y="226" on="0"/>
        <pt x="144" y="310" on="0"/>
        <pt x="299" y="351" on="0"/>
        <pt x="400" y="359" on="1"/>
        <pt x="400" y="421" on="0"/>
        <pt x="364" y="472" on="0"/>
        <pt x="313" y="472" on="1"/>
        <pt x="280" y="472" on="0"/>
        <pt x="231" y="438" on="0"/>
        <pt x="223" y="403" on="1"/>
        <pt x="88" y="457" on="1"/>
        <pt x="114" y="514" on="0"/>
        <pt x="237" y="590" on="0"/>
        <pt x="327" y="590" on="1"/>
        <pt x="438" y="590" on="0"/>
        <pt x="558" y="482" on="0"/>
        <pt x="558" y="351" on="1"/>
        <pt x="558" y="225" on="1"/>
        <pt x="558" y="188" on="0"/>
        <pt x="562" y="102" on="0"/>
        <pt x="570" y="25" on="0"/>
        <pt x="575" y="0" on="1"/>
        <pt x="427" y="0" on="1"/>
        <pt x="408" y="70" on="1"/>
        <pt x="379" y="24" on="0"/>
        <pt x="290" y="-14" on="0"/>
      </contour>
      <contour>
        <pt x="293" y="107" on="1"/>
        <pt x="340" y="107" on="0"/>
        <pt x="403" y="162" on="0"/>
        <pt x="403" y="241" on="1"/>
        <pt x="403" y="254" on="1"/>
        <pt x="320" y="247" on="0"/>
        <pt x="219" y="213" on="0"/>
        <pt x="219" y="167" on="1"/>
        <pt x="219" y="140" on="0"/>
        <pt x="261" y="107" on="0"/>
      </contour>
      <contour>
        <pt x="490" y="-201" on="1"/>
        <pt x="434" y="-201" on="0"/>
        <pt x="369" y="-167" on="0"/>
        <pt x="341" y="-121" on="0"/>
        <pt x="341" y="-99" on="1"/>
        <pt x="341" y="-58" on="0"/>
        <pt x="395" y="-11" on="0"/>
        <pt x="425" y="0" on="1"/>
        <pt x="573" y="0" on="1"/>
        <pt x="538" y="-20" on="0"/>
        <pt x="474" y="-58" on="0"/>
        <pt x="474" y="-78" on="1"/>
        <pt x="474" y="-100" on="0"/>
        <pt x="505" y="-113" on="0"/>
        <pt x="522" y="-113" on="1"/>
        <pt x="538" y="-113" on="0"/>
        <pt x="567" y="-104" on="0"/>
        <pt x="573" y="-103" on="1"/>
        <pt x="573" y="-190" on="1"/>
        <pt x="562" y="-195" on="0"/>
        <pt x="510" y="-201" on="0"/>
      </contour>
    </TTGlyph>
    <TTGlyph name="approxequal" xMin="56" yMin="84" xMax="566" yMax="576">
      <component glyphName="asciitilde" x="0" y="106" flags="0x204"/>
      <component glyphName="asciitilde" x="0" y="-151" flags="0x4"/>
    </TTGlyph>
    <TTGlyph name="aring" xMin="55" yMin="-14" xMax="575" yMax="874">
      <contour>
        <pt x="234" y="-14" on="1"/>
        <pt x="185" y="-14" on="0"/>
        <pt x="103" y="28" on="0"/>
        <pt x="55" y="103" on="0"/>
        <pt x="55" y="155" on="1"/>
        <pt x="55" y="226" on="0"/>
        <pt x="144" y="310" on="0"/>
        <pt x="299" y="351" on="0"/>
        <pt x="400" y="359" on="1"/>
        <pt x="400" y="421" on="0"/>
        <pt x="364" y="472" on="0"/>
        <pt x="313" y="472" on="1"/>
        <pt x="280" y="472" on="0"/>
        <pt x="231" y="438" on="0"/>
        <pt x="223" y="403" on="1"/>
        <pt x="88" y="457" on="1"/>
        <pt x="114" y="514" on="0"/>
        <pt x="237" y="590" on="0"/>
        <pt x="327" y="590" on="1"/>
        <pt x="438" y="590" on="0"/>
        <pt x="558" y="482" on="0"/>
        <pt x="558" y="351" on="1"/>
        <pt x="558" y="225" on="1"/>
        <pt x="558" y="188" on="0"/>
        <pt x="562" y="102" on="0"/>
        <pt x="570" y="25" on="0"/>
        <pt x="575" y="0" on="1"/>
        <pt x="427" y="0" on="1"/>
        <pt x="408" y="70" on="1"/>
        <pt x="379" y="24" on="0"/>
        <pt x="290" y="-14" on="0"/>
      </contour>
      <contour>
        <pt x="293" y="107" on="1"/>
        <pt x="340" y="107" on="0"/>
        <pt x="403" y="162" on="0"/>
        <pt x="403" y="241" on="1"/>
        <pt x="403" y="254" on="1"/>
        <pt x="320" y="247" on="0"/>
        <pt x="219" y="213" on="0"/>
        <pt x="219" y="167" on="1"/>
        <pt x="219" y="140" on="0"/>
        <pt x="261" y="107" on="0"/>
      </contour>
      <contour>
        <pt x="328" y="585" on="1"/>
        <pt x="290" y="585" on="0"/>
        <pt x="227" y="624" on="0"/>
        <pt x="189" y="691" on="0"/>
        <pt x="189" y="730" on="1"/>
        <pt x="189" y="770" on="0"/>
        <pt x="227" y="835" on="0"/>
        <pt x="290" y="874" on="0"/>
        <pt x="328" y="874" on="1"/>
        <pt x="366" y="874" on="0"/>
        <pt x="429" y="835" on="0"/>
        <pt x="467" y="770" on="0"/>
        <pt x="467" y="730" on="1"/>
        <pt x="467" y="691" on="0"/>
        <pt x="429" y="624" on="0"/>
        <pt x="366" y="585" on="0"/>
      </contour>
      <contour>
        <pt x="328" y="679" on="1"/>
        <pt x="349" y="679" on="0"/>
        <pt x="377" y="709" on="0"/>
        <pt x="377" y="730" on="1"/>
        <pt x="377" y="752" on="0"/>
        <pt x="349" y="781" on="0"/>
        <pt x="328" y="781" on="1"/>
        <pt x="308" y="781" on="0"/>
        <pt x="278" y="752" on="0"/>
        <pt x="278" y="730" on="1"/>
        <pt x="278" y="709" on="0"/>
        <pt x="308" y="679" on="0"/>
      </contour>
    </TTGlyph>
    <TTGlyph name="arrowboth" xMin="0" yMin="35" xMax="782" yMax="625">
      <contour>
        <pt x="239" y="35" on="1"/>
        <pt x="0" y="330" on="1"/>
        <pt x="238" y="625" on="1"/>
        <pt x="347" y="625" on="1"/>
        <pt x="180" y="420" on="1"/>
        <pt x="170" y="407" on="0"/>
        <pt x="143" y="382" on="0"/>
        <pt x="134" y="375" on="1"/>
        <pt x="134" y="366" on="1"/>
        <pt x="147" y="368" on="0"/>
        <pt x="189" y="370" on="0"/>
        <pt x="206" y="370" on="1"/>
        <pt x="576" y="370" on="1"/>
        <pt x="594" y="370" on="0"/>
        <pt x="635" y="367" on="0"/>
        <pt x="649" y="365" on="1"/>
        <pt x="649" y="374" on="1"/>
        <pt x="641" y="380" on="0"/>
        <pt x="616" y="406" on="0"/>
        <pt x="602" y="421" on="1"/>
        <pt x="435" y="625" on="1"/>
        <pt x="543" y="625" on="1"/>
        <pt x="782" y="330" on="1"/>
        <pt x="544" y="35" on="1"/>
        <pt x="435" y="35" on="1"/>
        <pt x="602" y="240" on="1"/>
        <pt x="612" y="253" on="0"/>
        <pt x="639" y="278" on="0"/>
        <pt x="649" y="285" on="1"/>
        <pt x="649" y="294" on="1"/>
        <pt x="635" y="293" on="0"/>
        <pt x="594" y="290" on="0"/>
        <pt x="576" y="290" on="1"/>
        <pt x="206" y="290" on="1"/>
        <pt x="189" y="290" on="0"/>
        <pt x="147" y="294" on="0"/>
        <pt x="134" y="295" on="1"/>
        <pt x="134" y="286" on="1"/>
        <pt x="141" y="280" on="0"/>
        <pt x="166" y="254" on="0"/>
        <pt x="180" y="239" on="1"/>
        <pt x="347" y="35" on="1"/>
      </contour>
    </TTGlyph>
    <TTGlyph name="arrowdblboth" xMin="0" yMin="35" xMax="782" yMax="625">
      <contour>
        <pt x="238" y="35" on="1"/>
        <pt x="0" y="330" on="1"/>
        <pt x="239" y="625" on="1"/>
        <pt x="347" y="625" on="1"/>
        <pt x="238" y="490" on="1"/>
        <pt x="544" y="490" on="1"/>
        <pt x="435" y="625" on="1"/>
        <pt x="543" y="625" on="1"/>
        <pt x="782" y="330" on="1"/>
        <pt x="544" y="35" on="1"/>
        <pt x="435" y="35" on="1"/>
        <pt x="544" y="170" on="1"/>
        <pt x="238" y="170" on="1"/>
        <pt x="347" y="35" on="1"/>
      </contour>
      <contour>
        <pt x="173" y="250" on="1"/>
        <pt x="609" y="250" on="1"/>
        <pt x="674" y="330" on="1"/>
        <pt x="609" y="410" on="1"/>
        <pt x="173" y="410" on="1"/>
        <pt x="108" y="330" on="1"/>
      </contour>
    </TTGlyph>
    <TTGlyph name="arrowdbldown" xMin="24" yMin="-190" xMax="662" yMax="829">
      <component glyphName="arrowdblup" x="19" y="649" scalex="1.0" scaley="-1.0" flags="0x4"/>
    </TTGlyph>
    <TTGlyph name="arrowdblright" xMin="0" yMin="35" xMax="782" yMax="625">
      <contour>
        <pt x="435" y="35" on="1"/>
        <pt x="544" y="170" on="1"/>
        <pt x="0" y="170" on="1"/>
        <pt x="0" y="250" on="1"/>
        <pt x="609" y="250" on="1"/>
        <pt x="674" y="330" on="1"/>
        <pt x="609" y="410" on="1"/>
        <pt x="0" y="410" on="1"/>
        <pt x="0" y="490" on="1"/>
        <pt x="544" y="490" on="1"/>
        <pt x="435" y="625" on="1"/>
        <pt x="543" y="625" on="1"/>
        <pt x="782" y="330" on="1"/>
        <pt x="544" y="35" on="1"/>
      </contour>
    </TTGlyph>
    <TTGlyph name="arrowdblup" xMin="5" yMin="-180" xMax="643" yMax="839">
      <contour>
        <pt x="391" y="-180" on="1"/>
        <pt x="391" y="839" on="1"/>
        <pt x="643" y="601" on="1"/>
        <pt x="643" y="536" on="1"/>
        <pt x="442" y="725" on="1"/>
        <pt x="442" y="-180" on="1"/>
      </contour>
      <contour>
        <pt x="206" y="-180" on="1"/>
        <pt x="206" y="725" on="1"/>
        <pt x="5" y="536" on="1"/>
        <pt x="5" y="601" on="1"/>
        <pt x="257" y="839" on="1"/>
        <pt x="257" y="-180" on="1"/>
      </contour>
    </TTGlyph>
    <TTGlyph name="arrowdown" xMin="21" yMin="-10" xMax="619" yMax="730">
      <contour>
        <pt x="319" y="-10" on="1"/>
        <pt x="21" y="236" on="1"/>
        <pt x="21" y="341" on="1"/>
        <pt x="213" y="183" on="1"/>
        <pt x="236" y="164" on="0"/>
        <pt x="264" y="136" on="0"/>
        <pt x="269" y="130" on="1"/>
        <pt x="279" y="130" on="1"/>
        <pt x="278" y="143" on="0"/>
        <pt x="274" y="188" on="0"/>
        <pt x="274" y="210" on="1"/>
        <pt x="274" y="730" on="1"/>
        <pt x="366" y="730" on="1"/>
        <pt x="366" y="210" on="1"/>
        <pt x="366" y="188" on="0"/>
        <pt x="363" y="143" on="0"/>
        <pt x="361" y="130" on="1"/>
        <pt x="372" y="130" on="1"/>
        <pt x="382" y="145" on="0"/>
        <pt x="428" y="184" on="1"/>
        <pt x="619" y="342" on="1"/>
        <pt x="619" y="237" on="1"/>
      </contour>
    </TTGlyph>
    <TTGlyph name="arrowleft" xMin="42" yMin="35" xMax="588" yMax="625">
      <contour>
        <pt x="281" y="35" on="1"/>
        <pt x="42" y="330" on="1"/>
        <pt x="280" y="625" on="1"/>
        <pt x="389" y="625" on="1"/>
        <pt x="222" y="420" on="1"/>
        <pt x="212" y="407" on="0"/>
        <pt x="185" y="382" on="0"/>
        <pt x="176" y="375" on="1"/>
        <pt x="176" y="366" on="1"/>
        <pt x="189" y="368" on="0"/>
        <pt x="232" y="370" on="0"/>
        <pt x="248" y="370" on="1"/>
        <pt x="588" y="370" on="1"/>
        <pt x="588" y="290" on="1"/>
        <pt x="248" y="290" on="1"/>
        <pt x="232" y="290" on="0"/>
        <pt x="189" y="294" on="0"/>
        <pt x="176" y="295" on="1"/>
        <pt x="176" y="286" on="1"/>
        <pt x="183" y="280" on="0"/>
        <pt x="209" y="254" on="0"/>
        <pt x="222" y="239" on="1"/>
        <pt x="389" y="35" on="1"/>
      </contour>
    </TTGlyph>
    <TTGlyph name="arrowright" xMin="42" yMin="35" xMax="588" yMax="625">
      <contour>
        <pt x="241" y="35" on="1"/>
        <pt x="408" y="240" on="1"/>
        <pt x="418" y="253" on="0"/>
        <pt x="445" y="278" on="0"/>
        <pt x="454" y="285" on="1"/>
        <pt x="454" y="294" on="1"/>
        <pt x="441" y="293" on="0"/>
        <pt x="400" y="290" on="0"/>
        <pt x="382" y="290" on="1"/>
        <pt x="42" y="290" on="1"/>
        <pt x="42" y="370" on="1"/>
        <pt x="382" y="370" on="1"/>
        <pt x="400" y="370" on="0"/>
        <pt x="441" y="367" on="0"/>
        <pt x="454" y="365" on="1"/>
        <pt x="454" y="374" on="1"/>
        <pt x="447" y="380" on="0"/>
        <pt x="421" y="406" on="0"/>
        <pt x="408" y="421" on="1"/>
        <pt x="241" y="625" on="1"/>
        <pt x="349" y="625" on="1"/>
        <pt x="588" y="330" on="1"/>
        <pt x="350" y="35" on="1"/>
      </contour>
    </TTGlyph>
    <TTGlyph name="arrowup" xMin="21" yMin="0" xMax="619" yMax="740">
      <contour>
        <pt x="274" y="0" on="1"/>
        <pt x="274" y="520" on="1"/>
        <pt x="274" y="542" on="0"/>
        <pt x="278" y="587" on="0"/>
        <pt x="279" y="600" on="1"/>
        <pt x="269" y="600" on="1"/>
        <pt x="258" y="585" on="0"/>
        <pt x="212" y="546" on="1"/>
        <pt x="21" y="388" on="1"/>
        <pt x="21" y="493" on="1"/>
        <pt x="321" y="740" on="1"/>
        <pt x="619" y="494" on="1"/>
        <pt x="619" y="389" on="1"/>
        <pt x="427" y="547" on="1"/>
        <pt x="404" y="566" on="0"/>
        <pt x="377" y="594" on="0"/>
        <pt x="372" y="600" on="1"/>
        <pt x="361" y="600" on="1"/>
        <pt x="363" y="587" on="0"/>
        <pt x="366" y="542" on="0"/>
        <pt x="366" y="520" on="1"/>
        <pt x="366" y="0" on="1"/>
      </contour>
    </TTGlyph>
    <TTGlyph name="arrowupdn" xMin="21" yMin="-170" xMax="619" yMax="900">
      <contour>
        <pt x="320" y="-170" on="1"/>
        <pt x="21" y="76" on="1"/>
        <pt x="21" y="181" on="1"/>
        <pt x="213" y="23" on="1"/>
        <pt x="236" y="4" on="0"/>
        <pt x="264" y="-24" on="0"/>
        <pt x="269" y="-30" on="1"/>
        <pt x="279" y="-30" on="1"/>
        <pt x="278" y="-17" on="0"/>
        <pt x="274" y="28" on="0"/>
        <pt x="274" y="50" on="1"/>
        <pt x="274" y="680" on="1"/>
        <pt x="274" y="702" on="0"/>
        <pt x="278" y="747" on="0"/>
        <pt x="279" y="760" on="1"/>
        <pt x="269" y="760" on="1"/>
        <pt x="258" y="745" on="0"/>
        <pt x="212" y="706" on="1"/>
        <pt x="21" y="548" on="1"/>
        <pt x="21" y="653" on="1"/>
        <pt x="320" y="900" on="1"/>
        <pt x="619" y="654" on="1"/>
        <pt x="619" y="549" on="1"/>
        <pt x="427" y="707" on="1"/>
        <pt x="404" y="726" on="0"/>
        <pt x="377" y="754" on="0"/>
        <pt x="372" y="760" on="1"/>
        <pt x="361" y="760" on="1"/>
        <pt x="363" y="747" on="0"/>
        <pt x="366" y="702" on="0"/>
        <pt x="366" y="680" on="1"/>
        <pt x="366" y="50" on="1"/>
        <pt x="366" y="28" on="0"/>
        <pt x="363" y="-17" on="0"/>
        <pt x="361" y="-30" on="1"/>
        <pt x="372" y="-30" on="1"/>
        <pt x="382" y="-15" on="0"/>
        <pt x="428" y="24" on="1"/>
        <pt x="619" y="182" on="1"/>
        <pt x="619" y="77" on="1"/>
      </contour>
    </TTGlyph>
    <TTGlyph name="asciicircum" xMin="58" yMin="340" xMax="536" yMax="730">
      <contour>
        <pt x="58" y="340" on="1"/>
        <pt x="236" y="730" on="1"/>
        <pt x="360" y="730" on="1"/>
        <pt x="536" y="340" on="1"/>
        <pt x="415" y="340" on="1"/>
        <pt x="321" y="570" on="1"/>
        <pt x="312" y="591" on="0"/>
        <pt x="301" y="630" on="0"/>
        <pt x="299" y="640" on="1"/>
        <pt x="296" y="630" on="0"/>
        <pt x="284" y="591" on="0"/>
        <pt x="275" y="570" on="1"/>
        <pt x="178" y="340" on="1"/>
      </contour>
    </TTGlyph>
    <TTGlyph name="asciitilde" xMin="56" yMin="235" xMax="566" yMax="470">
      <contour>
        <pt x="56" y="255" on="1"/>
        <pt x="56" y="334" on="1"/>
        <pt x="56" y="395" on="0"/>
        <pt x="138" y="470" on="0"/>
        <pt x="205" y="470" on="1"/>
        <pt x="247" y="470" on="0"/>
        <pt x="303" y="442" on="0"/>
        <pt x="339" y="402" on="0"/>
        <pt x="368" y="361" on="0"/>
        <pt x="396" y="334" on="0"/>
        <pt x="418" y="334" on="1"/>
        <pt x="457" y="334" on="0"/>
        <pt x="457" y="377" on="1"/>
        <pt x="457" y="450" on="1"/>
        <pt x="566" y="450" on="1"/>
        <pt x="566" y="371" on="1"/>
        <pt x="566" y="310" on="0"/>
        <pt x="485" y="235" on="0"/>
        <pt x="417" y="235" on="1"/>
        <pt x="375" y="235" on="0"/>
        <pt x="319" y="263" on="0"/>
        <pt x="283" y="303" on="0"/>
        <pt x="254" y="344" on="0"/>
        <pt x="226" y="371" on="0"/>
        <pt x="204" y="371" on="1"/>
        <pt x="165" y="371" on="0"/>
        <pt x="165" y="328" on="1"/>
        <pt x="165" y="255" on="1"/>
      </contour>
    </TTGlyph>
    <TTGlyph name="asterisk" xMin="0" yMin="87" xMax="556" yMax="610">
      <contour>
        <pt x="165" y="87" on="1"/>
        <pt x="70" y="151" on="1"/>
        <pt x="112" y="210" on="1"/>
        <pt x="128" y="231" on="0"/>
        <pt x="173" y="274" on="0"/>
        <pt x="220" y="310" on="0"/>
        <pt x="237" y="322" on="1"/>
        <pt x="235" y="328" on="1"/>
        <pt x="213" y="328" on="0"/>
        <pt x="153" y="333" on="0"/>
        <pt x="93" y="342" on="0"/>
        <pt x="69" y="351" on="1"/>
        <pt x="0" y="375" on="1"/>
        <pt x="40" y="481" on="1"/>
        <pt x="108" y="457" on="1"/>
        <pt x="133" y="448" on="0"/>
        <pt x="186" y="417" on="0"/>
        <pt x="235" y="383" on="0"/>
        <pt x="251" y="369" on="1"/>
        <pt x="256" y="373" on="1"/>
        <pt x="250" y="393" on="0"/>
        <pt x="233" y="450" on="0"/>
        <pt x="220" y="512" on="0"/>
        <pt x="220" y="538" on="1"/>
        <pt x="220" y="610" on="1"/>
        <pt x="336" y="610" on="1"/>
        <pt x="336" y="538" on="1"/>
        <pt x="336" y="512" on="0"/>
        <pt x="323" y="450" on="0"/>
        <pt x="306" y="393" on="0"/>
        <pt x="299" y="373" on="1"/>
        <pt x="304" y="370" on="1"/>
        <pt x="320" y="383" on="0"/>
        <pt x="369" y="417" on="0"/>
        <pt x="422" y="448" on="0"/>
        <pt x="447" y="457" on="1"/>
        <pt x="516" y="481" on="1"/>
        <pt x="556" y="375" on="1"/>
        <pt x="486" y="351" on="1"/>
        <pt x="450" y="338" on="0"/>
        <pt x="354" y="329" on="0"/>
        <pt x="321" y="328" on="1"/>
        <pt x="319" y="322" on="1"/>
        <pt x="336" y="310" on="0"/>
        <pt x="382" y="273" on="0"/>
        <pt x="427" y="231" on="0"/>
        <pt x="443" y="210" on="1"/>
        <pt x="485" y="151" on="1"/>
        <pt x="390" y="87" on="1"/>
        <pt x="348" y="146" on="1"/>
        <pt x="333" y="167" on="0"/>
        <pt x="307" y="224" on="0"/>
        <pt x="287" y="280" on="0"/>
        <pt x="281" y="299" on="1"/>
        <pt x="275" y="299" on="1"/>
        <pt x="269" y="280" on="0"/>
        <pt x="249" y="224" on="0"/>
        <pt x="223" y="167" on="0"/>
        <pt x="207" y="146" on="1"/>
      </contour>
    </TTGlyph>
    <TTGlyph name="at" xMin="55" yMin="-179" xMax="608" yMax="740">
      <contour>
        <pt x="355" y="-179" on="1"/>
        <pt x="262" y="-179" on="0"/>
        <pt x="128" y="-109" on="0"/>
        <pt x="55" y="21" on="0"/>
        <pt x="55" y="111" on="1"/>
        <pt x="55" y="450" on="1"/>
        <pt x="55" y="540" on="0"/>
        <pt x="125" y="670" on="0"/>
        <pt x="254" y="740" on="0"/>
        <pt x="344" y="740" on="1"/>
        <pt x="426" y="740" on="0"/>
        <pt x="544" y="679" on="0"/>
        <pt x="608" y="570" on="0"/>
        <pt x="608" y="498" on="1"/>
        <pt x="608" y="65" on="1"/>
        <pt x="504" y="65" on="1"/>
        <pt x="504" y="136" on="1"/>
        <pt x="501" y="136" on="1"/>
        <pt x="497" y="99" on="0"/>
        <pt x="437" y="55" on="0"/>
        <pt x="391" y="55" on="1"/>
        <pt x="326" y="55" on="0"/>
        <pt x="258" y="139" on="0"/>
        <pt x="258" y="216" on="1"/>
        <pt x="258" y="330" on="1"/>
        <pt x="258" y="407" on="0"/>
        <pt x="326" y="491" on="0"/>
        <pt x="391" y="491" on="1"/>
        <pt x="438" y="491" on="0"/>
        <pt x="497" y="447" on="0"/>
        <pt x="501" y="410" on="1"/>
        <pt x="504" y="410" on="1"/>
        <pt x="501" y="488" on="1"/>
        <pt x="501" y="498" on="1"/>
        <pt x="501" y="571" on="0"/>
        <pt x="419" y="650" on="0"/>
        <pt x="340" y="650" on="1"/>
        <pt x="256" y="650" on="0"/>
        <pt x="162" y="545" on="0"/>
        <pt x="162" y="450" on="1"/>
        <pt x="162" y="111" on="1"/>
        <pt x="162" y="18" on="0"/>
        <pt x="263" y="-84" on="0"/>
        <pt x="355" y="-84" on="1"/>
        <pt x="426" y="-84" on="1"/>
        <pt x="426" y="-179" on="1"/>
      </contour>
      <contour>
        <pt x="432" y="131" on="1"/>
        <pt x="468" y="131" on="0"/>
        <pt x="501" y="173" on="0"/>
        <pt x="501" y="220" on="1"/>
        <pt x="501" y="330" on="1"/>
        <pt x="501" y="415" on="0"/>
        <pt x="432" y="415" on="1"/>
        <pt x="362" y="415" on="0"/>
        <pt x="362" y="330" on="1"/>
        <pt x="362" y="216" on="1"/>
        <pt x="362" y="171" on="0"/>
        <pt x="397" y="131" on="0"/>
      </contour>
    </TTGlyph>
    <TTGlyph name="atilde" xMin="55" yMin="-14" xMax="575" yMax="753">
      <contour>
        <pt x="234" y="-14" on="1"/>
        <pt x="185" y="-14" on="0"/>
        <pt x="103" y="28" on="0"/>
        <pt x="55" y="103" on="0"/>
        <pt x="55" y="155" on="1"/>
        <pt x="55" y="226" on="0"/>
        <pt x="144" y="310" on="0"/>
        <pt x="299" y="351" on="0"/>
        <pt x="400" y="359" on="1"/>
        <pt x="400" y="421" on="0"/>
        <pt x="364" y="472" on="0"/>
        <pt x="313" y="472" on="1"/>
        <pt x="280" y="472" on="0"/>
        <pt x="231" y="438" on="0"/>
        <pt x="223" y="403" on="1"/>
        <pt x="88" y="457" on="1"/>
        <pt x="114" y="514" on="0"/>
        <pt x="237" y="590" on="0"/>
        <pt x="327" y="590" on="1"/>
        <pt x="438" y="590" on="0"/>
        <pt x="558" y="482" on="0"/>
        <pt x="558" y="351" on="1"/>
        <pt x="558" y="225" on="1"/>
        <pt x="558" y="188" on="0"/>
        <pt x="562" y="102" on="0"/>
        <pt x="570" y="25" on="0"/>
        <pt x="575" y="0" on="1"/>
        <pt x="427" y="0" on="1"/>
        <pt x="408" y="70" on="1"/>
        <pt x="379" y="24" on="0"/>
        <pt x="290" y="-14" on="0"/>
      </contour>
      <contour>
        <pt x="293" y="107" on="1"/>
        <pt x="340" y="107" on="0"/>
        <pt x="403" y="162" on="0"/>
        <pt x="403" y="241" on="1"/>
        <pt x="403" y="254" on="1"/>
        <pt x="320" y="247" on="0"/>
        <pt x="219" y="213" on="0"/>
        <pt x="219" y="167" on="1"/>
        <pt x="219" y="140" on="0"/>
        <pt x="261" y="107" on="0"/>
      </contour>
      <contour>
        <pt x="405" y="622" on="1"/>
        <pt x="364" y="622" on="0"/>
        <pt x="331" y="639" on="1"/>
        <pt x="311" y="650" on="0"/>
        <pt x="288" y="663" on="0"/>
        <pt x="273" y="663" on="1"/>
        <pt x="256" y="663" on="0"/>
        <pt x="231" y="645" on="0"/>
        <pt x="228" y="627" on="1"/>
        <pt x="134" y="627" on="1"/>
        <pt x="144" y="687" on="0"/>
        <pt x="210" y="753" on="0"/>
        <pt x="266" y="753" on="1"/>
        <pt x="299" y="753" on="0"/>
        <pt x="340" y="731" on="0"/>
        <pt x="375" y="708" on="0"/>
        <pt x="396" y="708" on="1"/>
        <pt x="411" y="708" on="0"/>
        <pt x="431" y="720" on="0"/>
        <pt x="441" y="731" on="1"/>
        <pt x="460" y="753" on="0"/>
        <pt x="479" y="753" on="1"/>
        <pt x="499" y="753" on="0"/>
        <pt x="523" y="728" on="0"/>
        <pt x="523" y="709" on="1"/>
        <pt x="523" y="688" on="0"/>
        <pt x="488" y="648" on="0"/>
        <pt x="435" y="622" on="0"/>
      </contour>
    </TTGlyph>
    <TTGlyph name="b" xMin="49" yMin="-13" xMax="597" yMax="730">
      <contour>
        <pt x="367" y="-13" on="1"/>
        <pt x="325" y="-13" on="0"/>
        <pt x="234" y="28" on="0"/>
        <pt x="209" y="73" on="1"/>
        <pt x="189" y="0" on="1"/>
        <pt x="49" y="0" on="1"/>
        <pt x="49" y="730" on="1"/>
        <pt x="209" y="730" on="1"/>
        <pt x="209" y="468" on="1"/>
        <pt x="234" y="513" on="0"/>
        <pt x="325" y="557" on="0"/>
        <pt x="367" y="557" on="1"/>
        <pt x="434" y="557" on="0"/>
        <pt x="538" y="490" on="0"/>
        <pt x="597" y="364" on="0"/>
        <pt x="597" y="275" on="1"/>
        <pt x="597" y="187" on="0"/>
        <pt x="538" y="57" on="0"/>
        <pt x="434" y="-13" on="0"/>
      </contour>
      <contour>
        <pt x="317" y="116" on="1"/>
        <pt x="363" y="116" on="0"/>
        <pt x="431" y="200" on="0"/>
        <pt x="431" y="275" on="1"/>
        <pt x="431" y="350" on="0"/>
        <pt x="363" y="428" on="0"/>
        <pt x="317" y="428" on="1"/>
        <pt x="269" y="428" on="0"/>
        <pt x="201" y="355" on="0"/>
        <pt x="201" y="272" on="1"/>
        <pt x="201" y="188" on="0"/>
        <pt x="269" y="116" on="0"/>
      </contour>
    </TTGlyph>
    <TTGlyph name="backslash" xMin="3" yMin="-110" xMax="496" yMax="830">
      <contour>
        <pt x="362" y="-110" on="1"/>
        <pt x="3" y="830" on="1"/>
        <pt x="137" y="830" on="1"/>
        <pt x="496" y="-110" on="1"/>
      </contour>
    </TTGlyph>
    <TTGlyph name="backspacecontrol" xMin="61" yMin="241" xMax="450" yMax="493">
      <component glyphName="B" x="41" y="245" scale="0.33" flags="0x4"/>
      <component glyphName="S" x="244" y="245" scale="0.33" flags="0x4"/>
    </TTGlyph>
    <TTGlyph name="bar" xMin="125" yMin="-110" xMax="225" yMax="830">
      <contour>
        <pt x="165" y="-110" on="1"/>
        <pt x="185" y="-110" on="1"/>
        <pt x="225" y="-110" on="0"/>
        <pt x="225" y="-70" on="1"/>
        <pt x="225" y="790" on="1"/>
        <pt x="225" y="830" on="0"/>
        <pt x="185" y="830" on="1"/>
        <pt x="165" y="830" on="1"/>
        <pt x="125" y="830" on="0"/>
        <pt x="125" y="790" on="1"/>
        <pt x="125" y="-70" on="1"/>
        <pt x="125" y="-110" on="0"/>
      </contour>
    </TTGlyph>
    <TTGlyph name="bellcontrol" xMin="37" yMin="245" xMax="612" yMax="489">
      <component glyphName="B" x="17" y="245" scale="0.33" flags="0x4"/>
      <component glyphName="E" x="222" y="245" scale="0.33" flags="0x4"/>
      <component glyphName="L" x="427" y="245" scale="0.33" flags="0x4"/>
    </TTGlyph>
    <TTGlyph name="beta" xMin="54" yMin="-180" xMax="552" yMax="740">
      <contour>
        <pt x="54" y="-180" on="1"/>
        <pt x="54" y="523" on="1"/>
        <pt x="54" y="588" on="0"/>
        <pt x="114" y="686" on="0"/>
        <pt x="221" y="740" on="0"/>
        <pt x="292" y="740" on="1"/>
        <pt x="366" y="740" on="0"/>
        <pt x="477" y="692" on="0"/>
        <pt x="538" y="607" on="0"/>
        <pt x="538" y="550" on="1"/>
        <pt x="538" y="487" on="0"/>
        <pt x="469" y="404" on="0"/>
        <pt x="408" y="389" on="1"/>
        <pt x="474" y="372" on="0"/>
        <pt x="552" y="278" on="0"/>
        <pt x="552" y="209" on="1"/>
        <pt x="552" y="147" on="0"/>
        <pt x="490" y="53" on="0"/>
        <pt x="380" y="0" on="0"/>
        <pt x="306" y="0" on="1"/>
        <pt x="177" y="0" on="1"/>
        <pt x="177" y="-180" on="1"/>
      </contour>
      <contour>
        <pt x="177" y="107" on="1"/>
        <pt x="298" y="107" on="1"/>
        <pt x="354" y="107" on="0"/>
        <pt x="418" y="167" on="0"/>
        <pt x="418" y="217" on="1"/>
        <pt x="418" y="267" on="0"/>
        <pt x="354" y="325" on="0"/>
        <pt x="298" y="325" on="1"/>
        <pt x="250" y="325" on="1"/>
        <pt x="250" y="422" on="1"/>
        <pt x="296" y="422" on="1"/>
        <pt x="347" y="422" on="0"/>
        <pt x="404" y="479" on="0"/>
        <pt x="404" y="526" on="1"/>
        <pt x="404" y="575" on="0"/>
        <pt x="342" y="633" on="0"/>
        <pt x="290" y="633" on="1"/>
        <pt x="237" y="633" on="0"/>
        <pt x="177" y="574" on="0"/>
        <pt x="177" y="523" on="1"/>
      </contour>
    </TTGlyph>
    <TTGlyph name="block" xMin="13" yMin="-300" xMax="631" yMax="1020">
      <contour>
        <pt x="13" y="-300" on="1"/>
        <pt x="13" y="1020" on="1"/>
        <pt x="631" y="1020" on="1"/>
        <pt x="631" y="-300" on="1"/>
      </contour>
    </TTGlyph>
    <TTGlyph name="braceleft" xMin="95" yMin="-111" xMax="548" yMax="830">
      <contour>
        <pt x="478" y="-111" on="1"/>
        <pt x="387" y="-111" on="0"/>
        <pt x="283" y="-14" on="0"/>
        <pt x="291" y="67" on="1"/>
        <pt x="306" y="219" on="1"/>
        <pt x="310" y="260" on="0"/>
        <pt x="274" y="302" on="0"/>
        <pt x="228" y="302" on="1"/>
        <pt x="95" y="302" on="1"/>
        <pt x="95" y="417" on="1"/>
        <pt x="228" y="417" on="1"/>
        <pt x="274" y="417" on="0"/>
        <pt x="310" y="459" on="0"/>
        <pt x="306" y="499" on="1"/>
        <pt x="291" y="656" on="1"/>
        <pt x="283" y="735" on="0"/>
        <pt x="387" y="830" on="0"/>
        <pt x="478" y="830" on="1"/>
        <pt x="548" y="830" on="1"/>
        <pt x="548" y="715" on="1"/>
        <pt x="496" y="715" on="1"/>
        <pt x="458" y="715" on="0"/>
        <pt x="417" y="678" on="0"/>
        <pt x="419" y="644" on="1"/>
        <pt x="435" y="488" on="1"/>
        <pt x="440" y="437" on="0"/>
        <pt x="379" y="371" on="0"/>
        <pt x="325" y="362" on="1"/>
        <pt x="379" y="352" on="0"/>
        <pt x="440" y="282" on="0"/>
        <pt x="435" y="231" on="1"/>
        <pt x="419" y="75" on="1"/>
        <pt x="416" y="42" on="0"/>
        <pt x="458" y="5" on="0"/>
        <pt x="496" y="5" on="1"/>
        <pt x="548" y="5" on="1"/>
        <pt x="548" y="-111" on="1"/>
      </contour>
    </TTGlyph>
    <TTGlyph name="braceright" xMin="95" yMin="-111" xMax="548" yMax="830">
      <contour>
        <pt x="95" y="-111" on="1"/>
        <pt x="95" y="5" on="1"/>
        <pt x="147" y="5" on="1"/>
        <pt x="185" y="5" on="0"/>
        <pt x="227" y="42" on="0"/>
        <pt x="224" y="75" on="1"/>
        <pt x="209" y="231" on="1"/>
        <pt x="203" y="282" on="0"/>
        <pt x="264" y="353" on="0"/>
        <pt x="318" y="362" on="1"/>
        <pt x="263" y="371" on="0"/>
        <pt x="203" y="437" on="0"/>
        <pt x="209" y="488" on="1"/>
        <pt x="224" y="644" on="1"/>
        <pt x="226" y="678" on="0"/>
        <pt x="185" y="715" on="0"/>
        <pt x="147" y="715" on="1"/>
        <pt x="95" y="715" on="1"/>
        <pt x="95" y="830" on="1"/>
        <pt x="165" y="830" on="1"/>
        <pt x="256" y="830" on="0"/>
        <pt x="360" y="735" on="0"/>
        <pt x="352" y="656" on="1"/>
        <pt x="337" y="499" on="1"/>
        <pt x="333" y="459" on="0"/>
        <pt x="369" y="417" on="0"/>
        <pt x="415" y="417" on="1"/>
        <pt x="548" y="417" on="1"/>
        <pt x="548" y="302" on="1"/>
        <pt x="415" y="302" on="1"/>
        <pt x="369" y="302" on="0"/>
        <pt x="333" y="260" on="0"/>
        <pt x="337" y="219" on="1"/>
        <pt x="352" y="67" on="1"/>
        <pt x="360" y="-14" on="0"/>
        <pt x="256" y="-111" on="0"/>
        <pt x="165" y="-111" on="1"/>
      </contour>
    </TTGlyph>
    <TTGlyph name="bracketleft" xMin="35" yMin="-110" xMax="323" yMax="830">
      <contour>
        <pt x="35" y="-110" on="1"/>
        <pt x="35" y="830" on="1"/>
        <pt x="323" y="830" on="1"/>
        <pt x="323" y="715" on="1"/>
        <pt x="163" y="715" on="1"/>
        <pt x="163" y="5" on="1"/>
        <pt x="323" y="5" on="1"/>
        <pt x="323" y="-110" on="1"/>
      </contour>
    </TTGlyph>
    <TTGlyph name="bracketright" xMin="35" yMin="-110" xMax="323" yMax="830">
      <contour>
        <pt x="35" y="-110" on="1"/>
        <pt x="35" y="5" on="1"/>
        <pt x="195" y="5" on="1"/>
        <pt x="195" y="715" on="1"/>
        <pt x="35" y="715" on="1"/>
        <pt x="35" y="830" on="1"/>
        <pt x="323" y="830" on="1"/>
        <pt x="323" y="-110" on="1"/>
      </contour>
    </TTGlyph>
    <TTGlyph name="breve" xMin="473" yMin="637" xMax="830" yMax="785">
      <component glyphName="uni0306" x="423" y="0" flags="0x4"/>
    </TTGlyph>
    <TTGlyph name="breve.case" xMin="470" yMin="802" xMax="826" yMax="950">
      <component glyphName="uni0306.case" x="420" y="0" flags="0x4"/>
    </TTGlyph>
    <TTGlyph name="brevecombcy" xMin="50" yMin="637" xMax="407" yMax="785">
      <contour>
        <pt x="228" y="637" on="1"/>
        <pt x="148" y="637" on="0"/>
        <pt x="50" y="718" on="0"/>
        <pt x="50" y="785" on="1"/>
        <pt x="148" y="785" on="1"/>
        <pt x="148" y="752" on="0"/>
        <pt x="192" y="712" on="0"/>
        <pt x="228" y="712" on="1"/>
        <pt x="264" y="712" on="0"/>
        <pt x="308" y="752" on="0"/>
        <pt x="308" y="785" on="1"/>
        <pt x="407" y="785" on="1"/>
        <pt x="407" y="718" on="0"/>
        <pt x="309" y="637" on="0"/>
      </contour>
    </TTGlyph>
    <TTGlyph name="brokenbar" xMin="114" yMin="-110" xMax="244" yMax="830">
      <contour>
        <pt x="114" y="450" on="1"/>
        <pt x="114" y="830" on="1"/>
        <pt x="244" y="830" on="1"/>
        <pt x="244" y="450" on="1"/>
      </contour>
      <contour>
        <pt x="114" y="-110" on="1"/>
        <pt x="114" y="270" on="1"/>
        <pt x="244" y="270" on="1"/>
        <pt x="244" y="-110" on="1"/>
      </contour>
    </TTGlyph>
    <TTGlyph name="bullet" xMin="35" yMin="236" xMax="301" yMax="494">
      <contour>
        <pt x="168" y="236" on="1"/>
        <pt x="109" y="236" on="0"/>
        <pt x="35" y="308" on="0"/>
        <pt x="35" y="365" on="1"/>
        <pt x="35" y="422" on="0"/>
        <pt x="109" y="494" on="0"/>
        <pt x="168" y="494" on="1"/>
        <pt x="227" y="494" on="0"/>
        <pt x="301" y="422" on="0"/>
        <pt x="301" y="365" on="1"/>
        <pt x="301" y="308" on="0"/>
        <pt x="227" y="236" on="0"/>
      </contour>
    </TTGlyph>
    <TTGlyph name="c" xMin="54" yMin="-14" xMax="556" yMax="590">
      <contour>
        <pt x="321" y="-14" on="1"/>
        <pt x="235" y="-14" on="0"/>
        <pt x="116" y="63" on="0"/>
        <pt x="54" y="200" on="0"/>
        <pt x="54" y="290" on="1"/>
        <pt x="54" y="382" on="0"/>
        <pt x="121" y="516" on="0"/>
        <pt x="242" y="590" on="0"/>
        <pt x="321" y="590" on="1"/>
        <pt x="366" y="590" on="0"/>
        <pt x="455" y="563" on="0"/>
        <pt x="532" y="497" on="0"/>
        <pt x="556" y="440" on="1"/>
        <pt x="423" y="387" on="1"/>
        <pt x="410" y="424" on="0"/>
        <pt x="361" y="454" on="0"/>
        <pt x="330" y="454" on="1"/>
        <pt x="302" y="454" on="0"/>
        <pt x="249" y="423" on="0"/>
        <pt x="217" y="351" on="0"/>
        <pt x="217" y="289" on="1"/>
        <pt x="217" y="227" on="0"/>
        <pt x="250" y="154" on="0"/>
        <pt x="302" y="123" on="0"/>
        <pt x="330" y="123" on="1"/>
        <pt x="364" y="123" on="0"/>
        <pt x="410" y="152" on="0"/>
        <pt x="424" y="177" on="1"/>
        <pt x="554" y="125" on="1"/>
        <pt x="528" y="73" on="0"/>
        <pt x="450" y="12" on="0"/>
        <pt x="363" y="-14" on="0"/>
      </contour>
    </TTGlyph>
    <TTGlyph name="cacute" xMin="54" yMin="-14" xMax="556" yMax="794">
      <contour>
        <pt x="321" y="-14" on="1"/>
        <pt x="235" y="-14" on="0"/>
        <pt x="116" y="63" on="0"/>
        <pt x="54" y="200" on="0"/>
        <pt x="54" y="290" on="1"/>
        <pt x="54" y="382" on="0"/>
        <pt x="121" y="516" on="0"/>
        <pt x="242" y="590" on="0"/>
        <pt x="321" y="590" on="1"/>
        <pt x="366" y="590" on="0"/>
        <pt x="455" y="563" on="0"/>
        <pt x="532" y="497" on="0"/>
        <pt x="556" y="440" on="1"/>
        <pt x="423" y="387" on="1"/>
        <pt x="410" y="424" on="0"/>
        <pt x="361" y="454" on="0"/>
        <pt x="330" y="454" on="1"/>
        <pt x="302" y="454" on="0"/>
        <pt x="249" y="423" on="0"/>
        <pt x="217" y="351" on="0"/>
        <pt x="217" y="289" on="1"/>
        <pt x="217" y="227" on="0"/>
        <pt x="250" y="154" on="0"/>
        <pt x="302" y="123" on="0"/>
        <pt x="330" y="123" on="1"/>
        <pt x="364" y="123" on="0"/>
        <pt x="410" y="152" on="0"/>
        <pt x="424" y="177" on="1"/>
        <pt x="554" y="125" on="1"/>
        <pt x="528" y="73" on="0"/>
        <pt x="450" y="12" on="0"/>
        <pt x="363" y="-14" on="0"/>
      </contour>
      <contour>
        <pt x="251" y="627" on="1"/>
        <pt x="281" y="664" on="0"/>
        <pt x="339" y="738" on="0"/>
        <pt x="368" y="775" on="1"/>
        <pt x="384" y="794" on="0"/>
        <pt x="411" y="794" on="1"/>
        <pt x="436" y="794" on="0"/>
        <pt x="470" y="760" on="0"/>
        <pt x="470" y="733" on="1"/>
        <pt x="470" y="705" on="0"/>
        <pt x="450" y="687" on="1"/>
        <pt x="430" y="673" on="0"/>
        <pt x="391" y="643" on="0"/>
        <pt x="371" y="627" on="1"/>
      </contour>
    </TTGlyph>
    <TTGlyph name="cancelcontrol" xMin="33" yMin="241" xMax="629" yMax="493">
      <component glyphName="C" x="13" y="245" scale="0.33" flags="0x4"/>
      <component glyphName="A" x="212" y="245" scale="0.33" flags="0x4"/>
      <component glyphName="N" x="423" y="245" scale="0.33" flags="0x4"/>
    </TTGlyph>
    <TTGlyph name="caron" xMin="490" yMin="645" xMax="888" yMax="785">
      <component glyphName="uni030C" x="438" y="0" flags="0x4"/>
    </TTGlyph>
    <TTGlyph name="caron.case" xMin="490" yMin="810" xMax="888" yMax="950">
      <component glyphName="uni030C.case" x="438" y="0" flags="0x4"/>
    </TTGlyph>
    <TTGlyph name="carriageReturncontrol" xMin="61" yMin="241" xMax="450" yMax="493">
      <component glyphName="C" x="41" y="245" scale="0.33" flags="0x4"/>
      <component glyphName="R" x="244" y="245" scale="0.33" flags="0x4"/>
    </TTGlyph>
    <TTGlyph name="ccaron" xMin="54" yMin="-14" xMax="556" yMax="787">
      <contour>
        <pt x="321" y="-14" on="1"/>
        <pt x="235" y="-14" on="0"/>
        <pt x="116" y="63" on="0"/>
        <pt x="54" y="200" on="0"/>
        <pt x="54" y="290" on="1"/>
        <pt x="54" y="382" on="0"/>
        <pt x="121" y="516" on="0"/>
        <pt x="242" y="590" on="0"/>
        <pt x="321" y="590" on="1"/>
        <pt x="366" y="590" on="0"/>
        <pt x="455" y="563" on="0"/>
        <pt x="532" y="497" on="0"/>
        <pt x="556" y="440" on="1"/>
        <pt x="423" y="387" on="1"/>
        <pt x="410" y="424" on="0"/>
        <pt x="361" y="454" on="0"/>
        <pt x="330" y="454" on="1"/>
        <pt x="302" y="454" on="0"/>
        <pt x="249" y="423" on="0"/>
        <pt x="217" y="351" on="0"/>
        <pt x="217" y="289" on="1"/>
        <pt x="217" y="227" on="0"/>
        <pt x="250" y="154" on="0"/>
        <pt x="302" y="123" on="0"/>
        <pt x="330" y="123" on="1"/>
        <pt x="364" y="123" on="0"/>
        <pt x="410" y="152" on="0"/>
        <pt x="424" y="177" on="1"/>
        <pt x="554" y="125" on="1"/>
        <pt x="528" y="73" on="0"/>
        <pt x="450" y="12" on="0"/>
        <pt x="363" y="-14" on="0"/>
      </contour>
      <contour>
        <pt x="323" y="621" on="1"/>
        <pt x="292" y="621" on="0"/>
        <pt x="270" y="641" on="1"/>
        <pt x="116" y="787" on="1"/>
        <pt x="251" y="787" on="1"/>
        <pt x="323" y="720" on="1"/>
        <pt x="394" y="787" on="1"/>
        <pt x="529" y="787" on="1"/>
        <pt x="375" y="641" on="1"/>
        <pt x="352" y="621" on="0"/>
      </contour>
    </TTGlyph>
</ttFont>
